<?xml version="1.0" standalone="no"?>
<!DOCTYPE svg PUBLIC "-//W3C//DTD SVG 1.1//EN" "http://www.w3.org/Graphics/SVG/1.1/DTD/svg11.dtd" >
<svg xmlns="http://www.w3.org/2000/svg">
<metadata>
Created by FontPrep 20130207 at Tue Dec  1 12:14:47 2015
 By Greg Greenhaw
(c) 2014 Apple Inc. All rights reserved.
</metadata>
<defs>
<font id="d0302eaa9baa2904e902ad889ccb5e9f" horiz-adv-x='1024' >
  <font-face 
    font-family=".HelveticaNeueDeskInterface-Bold"
    font-weight="700"
    font-stretch="normal"
    units-per-em="2048"
    panose-1="0 0 8 0 0 0 0 0 0 0"
    ascent="1638"
    descent="-410"
    x-height="1101"
    cap-height="1443"
    bbox="-583 -882 2641 2178"
    underline-thickness="50"
    underline-position="-25"
    unicode-range="U+0020-FB02"
  />
<missing-glyph horiz-adv-x="1293" 
d="M632 1018q56 0 88.5 -29.5t32.5 -73.5t-21 -73t-86 -75t-91.5 -96.5t-21.5 -139.5h166v15q0 47 19 75t71 66q89 64 119.5 113.5t30.5 111.5q0 119 -81.5 187t-219.5 68t-220.5 -76t-78.5 -203h169q1 60 34.5 95t89.5 35zM501 313q0 -48 33 -77.5t88 -29.5t88 30t33 78
t-33 77.5t-88 29.5t-88 -30t-33 -78zM120 1365h1053v-1365h-1053v1365z" />
    <glyph glyph-name=".notdef" horiz-adv-x="1293" 
d="M632 1018q56 0 88.5 -29.5t32.5 -73.5t-21 -73t-86 -75t-91.5 -96.5t-21.5 -139.5h166v15q0 47 19 75t71 66q89 64 119.5 113.5t30.5 111.5q0 119 -81.5 187t-219.5 68t-220.5 -76t-78.5 -203h169q1 60 34.5 95t89.5 35zM501 313q0 -48 33 -77.5t88 -29.5t88 30t33 78
t-33 77.5t-88 29.5t-88 -30t-33 -78zM120 1365h1053v-1365h-1053v1365z" />
    <glyph glyph-name=".null" 
 />
    <glyph glyph-name="nonmarkingreturn" 
 />
    <glyph glyph-name="space" unicode=" " horiz-adv-x="440" 
 />
    <glyph glyph-name="exclam" unicode="!" horiz-adv-x="648" 
d="M324 -25q-34 0 -64 12t-52 33.5t-34.5 50t-12.5 61.5t12.5 61.5t34.5 50t52 33.5t64 12t64 -12t52 -33.5t34.5 -50t12.5 -61.5t-12.5 -61.5t-34.5 -50t-52 -33.5t-64 -12zM474 1443l-24 -968h-252l-24 968h300z" />
    <glyph glyph-name="quotedbl" unicode="&#x22;" horiz-adv-x="929" 
d="M571 868v575h250v-575h-250zM108 868v575h250v-575h-250z" />
    <glyph glyph-name="numbersign" unicode="#" horiz-adv-x="1271" 
d="M476 582h262l61 297h-263zM1003 861l-53 -260h210l-40 -216h-212l-77 -385h-222l77 385h-234l-78 -385h-220l76 385h-206l41 216h208l52 260h-199l41 214h201l75 369h220l-73 -369h234l74 369h222l-74 -369h217l-40 -214h-220z" />
    <glyph glyph-name="dollar" unicode="$" horiz-adv-x="1326" 
d="M413 1046q0 -51 47.5 -95t139.5 -64v345q-82 -4 -134.5 -52.5t-52.5 -133.5zM949 396q0 76 -50.5 121t-157.5 66v-366q99 6 153.5 54.5t54.5 124.5zM600 -137v128q-237 14 -371.5 126t-134.5 295h286q9 -120 90.5 -154.5t129.5 -39.5v390l-106 25q-182 42 -276 144
t-94 259q0 280 181.5 349t294.5 78v137h141v-138q208 -18 334 -131.5t130 -287.5h-278q-3 112 -74.5 147t-111.5 41v-373l107 -21q384 -84 384 -406q0 -191 -127.5 -305t-363.5 -134v-129h-141z" />
    <glyph glyph-name="percent" unicode="%" horiz-adv-x="1621" 
d="M147 0l1054 1443h256l-1053 -1443h-257zM479 1163q0 145 -105 145q-49 0 -77 -52t-28 -144t27.5 -146t77.5 -54t77.5 53t27.5 198zM374 737q-150 0 -239.5 101t-89.5 273t88.5 272t240.5 100t240.5 -100t88.5 -272t-89.5 -273t-239.5 -101zM1352 405q0 145 -105 145
q-49 0 -77 -52t-28 -144t28 -146t78 -54t77 53t27 198zM1247 -21q-150 0 -239.5 101t-89.5 273t88.5 272t240.5 100t240.5 -100t88.5 -272t-89.5 -273t-239.5 -101z" />
    <glyph glyph-name="ampersand" unicode="&#x26;" horiz-adv-x="1437" 
d="M605 893q184 96 184 211t-61.5 139.5t-114.5 24.5t-97.5 -44.5t-44.5 -114.5t48.5 -125t85.5 -91zM341 401q0 -97 72 -156t190 -59t179.5 38.5t82.5 61.5l-331 358q-193 -97 -193 -243zM1309 717q0 -269 -122 -436l269 -281h-327l-111 120q-81 -69 -197.5 -107.5
t-240.5 -38.5q-239 0 -375.5 110t-136.5 294q0 123 64.5 215.5t202.5 168.5q6 3 16 8.5t20.5 11t18.5 10t10 5.5q-97 99 -138 174.5t-41 151.5t31 137.5t85.5 106.5t129.5 70t207 25t245 -92t113 -238q0 -112 -70.5 -202.5t-221.5 -172.5l274 -296q52 94 52 273v76h243v-93z
" />
    <glyph glyph-name="quotesingle" unicode="'" horiz-adv-x="466" 
d="M108 868v575h250v-575h-250z" />
    <glyph glyph-name="parenleft" unicode="(" horiz-adv-x="710" 
d="M133 665.5q0 216.5 72.5 410.5t207.5 367h269q-98 -114 -173 -340.5t-75 -500.5q0 -382 98 -588t147 -291h-276q-185 230 -227.5 478t-42.5 464.5z" />
    <glyph glyph-name="parenright" unicode=")" horiz-adv-x="710" 
d="M201.5 1101q-74.5 228 -172.5 342h268q138 -176 209.5 -369t71.5 -474q0 -538 -272 -877h-275q113 196 179 404.5t66 477.5q0 268 -74.5 496z" />
    <glyph glyph-name="asterisk" unicode="*" horiz-adv-x="994" 
d="M558 979l39 -289h-200l39 289l-231 -179l-99 173l271 111l-271 110l99 174l233 -182l-41 293h200l-40 -293l232 182l99 -174l-270 -110l270 -111l-99 -173z" />
    <glyph glyph-name="plus" unicode="+" horiz-adv-x="1326" 
d="M794 14h-262v437h-408v255h408v432h262v-432h408v-255h-408v-437z" />
    <glyph glyph-name="comma" unicode="," horiz-adv-x="578" 
d="M89 -271l83 541h274l-136 -541h-221z" />
    <glyph glyph-name="hyphen" unicode="-" horiz-adv-x="905" 
d="M124 451v255h657v-255h-657z" />
    <glyph glyph-name="period" unicode="." horiz-adv-x="569" 
d="M170 35.5q-46 47.5 -46 97.5t12.5 79t34 51t51 34.5t80 12.5t97.5 -47t47 -114t-47 -114t-115 -47t-114 47.5z" />
    <glyph glyph-name="slash" unicode="/" horiz-adv-x="687" 
d="M0 -293l415 1737h272l-420 -1737h-267z" />
    <glyph glyph-name="zero" unicode="0" horiz-adv-x="1333" 
d="M666 210q131 0 204 134.5t73 379.5q0 369 -106 439.5t-202 70.5t-170.5 -134t-74.5 -376q0 -373 106 -443.5t170 -70.5zM667 -32q-136 0 -244.5 52.5t-184 150.5t-115.5 238t-40 315t40.5 314t116 236.5t184 149.5t243.5 52t243 -52t183.5 -149t116 -236t40.5 -314
t-40 -315t-115.5 -238.5t-183.5 -151t-244 -52.5z" />
    <glyph glyph-name="one" unicode="1" horiz-adv-x="983" 
d="M463 1166h-6l-368 -254v272l373 259h300v-1443h-299v1166z" />
    <glyph glyph-name="two" unicode="2" horiz-adv-x="1235" 
d="M85 1009q0 206 149 336t380 130t374 -118t143 -295t-109.5 -297.5t-169.5 -179.5l-352 -339v-6h651v-240h-1049v203l544 524q110 110 150.5 177.5t40.5 124.5q0 99 -65 155t-167 56t-171 -65.5t-69 -165.5v-5h-280v5z" />
    <glyph glyph-name="three" unicode="3" horiz-adv-x="1290" 
d="M453 848h175q104 0 167.5 55.5t63.5 144.5t-60 142t-173 53q-160 0 -199 -81t-42 -128h-278q8 201 153 321t375 120q229 0 369 -105.5t140 -279.5q0 -132 -82 -222.5t-216 -114.5v-6q162 -14 258 -106.5t96 -241.5q0 -193 -158 -312t-406 -119t-397.5 122.5t-159.5 322.5
h289q7 -92 77.5 -147t187.5 -55t188.5 58t71.5 153q0 96 -69.5 152t-192.5 56h-178v218z" />
    <glyph glyph-name="four" unicode="4" horiz-adv-x="1327" 
d="M337 490h459v739h-6q-249 -366 -329 -506t-124 -225v-8zM1077 1443v-944h188v-242h-188v-257h-287v257h-718v257q168 322 579 929h426z" />
    <glyph glyph-name="five" unicode="5" horiz-adv-x="1280" 
d="M851.5 281.5q74.5 74.5 74.5 193.5t-74 195t-173 76q-190 0 -271 -133h-270l71 830h918v-240h-681l-33 -395h6q45 73 127.5 115.5t189.5 42.5q211 0 344.5 -137t133.5 -357t-155 -362t-398 -142q-235 0 -387.5 125t-158.5 320h279q12 -92 86 -149t185 -57
q112 0 186.5 74.5z" />
    <glyph glyph-name="six" unicode="6" horiz-adv-x="1317" 
d="M944 470q0 110 -74.5 183t-186.5 73q-113 0 -189 -72.5t-76 -182t75 -186.5t187 -77t188 76t76 186zM84 710q0 357 162 561.5t443 204.5q206 0 353 -111t177 -288h-297q-34 112 -114 136t-138 24t-118 -35.5t-123.5 -138.5t-57.5 -345h6q69 166 192 200.5t209 34.5
t173 -36t187 -135t100 -314t-156 -358t-416 -143q-138 0 -261.5 68t-199.5 198q-121 186 -121 477z" />
    <glyph glyph-name="seven" unicode="7" horiz-adv-x="1172" 
d="M798 1203h-734v240h1032v-243l-602 -1200h-317l621 1197v6z" />
    <glyph glyph-name="eight" unicode="8" horiz-adv-x="1336" 
d="M668 858q50 0 92 15t72 41.5t47 63t17 79.5t-17 80t-47 63.5t-72 41.5t-92 15t-92 -15t-72 -42t-47 -63.5t-17 -79.5t17 -79.5t47 -63t72 -41.5t92 -15zM668 188q60 0 109.5 17t85 47t55 71t19.5 90t-19.5 90t-55 71t-85 47t-109.5 17t-109.5 -17t-85 -47t-55.5 -71
t-20 -90t20 -90t55.5 -71t85 -47t109.5 -17zM83 391q0 142 94.5 244t244.5 126v6q-196 47 -238.5 157t-42.5 181t39 141t108.5 121t166.5 79.5t271 28.5t321 -108t147 -274q0 -118 -76.5 -207t-203.5 -119v-6q154 -26 246.5 -128t92.5 -243q0 -188 -163.5 -305t-421.5 -117
q-261 0 -423 117.5t-162 305.5z" />
    <glyph glyph-name="nine" unicode="9" horiz-adv-x="1321" 
d="M826 1158.5q-75 76.5 -187 76.5q-111 0 -188 -75t-77 -185t75 -183.5t188 -73.5t188.5 73.5t75.5 182t-75 185zM542 491q-86 0 -173.5 36t-188.5 135.5t-101 313.5t157 357t399 143q156 0 281 -68t200 -196q121 -186 121 -478q0 -358 -161 -562t-445 -204
q-206 0 -354.5 111.5t-178.5 288.5h298q34 -113 115 -137t141 -24t118.5 34.5t121 137t56.5 348.5h-6q-63 -167 -188.5 -201.5t-211.5 -34.5z" />
    <glyph glyph-name="colon" unicode=":" horiz-adv-x="569" 
d="M170 750.5q-46 47.5 -46 97.5t12.5 79t34 51t51 34.5t80 12.5t97.5 -47t47 -114t-47 -114t-115 -47t-114 47.5zM170 35.5q-46 47.5 -46 97.5t12.5 79t34 51t51 34.5t80 12.5t97.5 -47t47 -114t-47 -114t-115 -47t-114 47.5z" />
    <glyph glyph-name="semicolon" unicode=";" horiz-adv-x="569" 
d="M55 -271l82 541h276l-137 -541h-221zM170 750.5q-46 47.5 -46 97.5t12.5 79t34 51t51 34.5t80 12.5t97.5 -47t47 -114t-47 -114t-115 -47t-114 47.5z" />
    <glyph glyph-name="less" unicode="&#x3c;" horiz-adv-x="1326" 
d="M483 587v-10l657 -309v-291l-953 489v225l953 506v-291z" />
    <glyph glyph-name="equal" unicode="=" horiz-adv-x="1326" 
d="M139 687v251h1048v-251h-1048zM139 220v251h1048v-251h-1048z" />
    <glyph glyph-name="greater" unicode="&#x3e;" horiz-adv-x="1326" 
d="M187 1197l953 -505v-226l-953 -488v291l656 308v10l-656 320v290z" />
    <glyph glyph-name="question" unicode="?" horiz-adv-x="1093" 
d="M502 -25q-34 0 -63.5 12t-51.5 33.5t-35 50t-13 61.5t13 61.5t35 50t51.5 33.5t63.5 12t64 -12t52 -33.5t35 -50t13 -61.5t-13 -61.5t-35 -50t-52 -33.5t-64 -12zM883.5 1349q131.5 -107 131.5 -280q0 -114 -54 -195t-156 -141t-138 -107t-36 -120v-53h-265l-2 58
q-14 169 57 233t121 94t82.5 54.5t52 50t27.5 53.5t8 82.5t-53 100t-139 45.5q-85 0 -137.5 -50.5t-57.5 -135.5h-271q4 189 132 303.5t347 114.5t350.5 -107z" />
    <glyph glyph-name="at" unicode="@" horiz-adv-x="1810" 
d="M257.5 64q-177.5 168 -177.5 545t235.5 608.5t601.5 231.5t591 -205t225 -538q0 -239 -105.5 -378.5t-287.5 -139.5q-94 0 -159 42t-82 115h-14q-64 -154 -230 -154q-167 0 -262.5 116.5t-95.5 302.5t93.5 299.5t243.5 113.5q81 0 144.5 -38t92.5 -104h14v120h203v-535
q0 -113 95 -113q75 0 120.5 90t45.5 237q0 284 -172.5 447t-459.5 163t-470 -189t-183 -496q0 -306 189.5 -484t503.5 -178q181 0 273 35v-160q-128 -37 -303 -37t-333.5 57.5t-336 225.5zM894 841q-80 0 -125 -61.5t-45 -171.5t44.5 -171.5t124.5 -61.5t127 62.5t47 170.5
t-46.5 170.5t-126.5 62.5z" />
    <glyph glyph-name="A" unicode="A" horiz-adv-x="1413" 
d="M513 576h377l-185 591h-7zM955 350h-507l-110 -350h-310l501 1443h355l502 -1443h-321z" />
    <glyph glyph-name="B" unicode="B" horiz-adv-x="1319" 
d="M691 225q131 0 199.5 54t68.5 157q0 208 -275 208h-262v-419h269zM422 843h226q121 0 187 50.5t66 140.5t-58 137t-164 47h-257v-375zM120 0v1443h637q204 0 322.5 -97.5t118.5 -262.5q0 -117 -77.5 -206t-193.5 -107v-8q149 -12 244.5 -109.5t95.5 -239.5
q0 -191 -134.5 -302t-364.5 -111h-648z" />
    <glyph glyph-name="C" unicode="C" horiz-adv-x="1459" 
d="M211.5 225q-136.5 148 -136.5 496t184 547.5t499 199.5q261 0 438.5 -150.5t195.5 -392.5h-294q-22 134 -115 213.5t-225 79.5q-172 0 -273.5 -134t-101.5 -362t101 -362.5t275 -134.5q205 0 266.5 106t73.5 170h294q-26 -241 -197.5 -383.5t-449.5 -142.5
q-146 0 -272 51t-262.5 199z" />
    <glyph glyph-name="D" unicode="D" horiz-adv-x="1438" 
d="M422 250h218q204 0 310 120.5t106 355.5q0 344 -158 406t-258 62h-218v-944zM676 1443q326 0 507 -187t181 -530t-181.5 -534.5t-506.5 -191.5h-556v1443h556z" />
    <glyph glyph-name="E" unicode="E" horiz-adv-x="1174" 
d="M1076 0h-956v1443h956v-249h-654v-348h617v-232h-617v-364h654v-250z" />
    <glyph glyph-name="F" unicode="F" horiz-adv-x="1123" 
d="M120 0v1443h945v-249h-643v-387h587v-239h-587v-568h-302z" />
    <glyph glyph-name="G" unicode="G" horiz-adv-x="1489" 
d="M1094 977q-72 241 -344 241q-75 0 -146 -33t-146 -129.5t-75 -327.5t105.5 -366.5t286.5 -135.5q149 0 242.5 83t97.5 217l1 23h-314v220h608v-163q0 -295 -170 -463t-482 -168q-311 0 -497 199.5t-186 547.5t184.5 547t503.5 199q253 0 427.5 -136.5t206.5 -354.5h-303z
" />
    <glyph glyph-name="H" unicode="H" horiz-adv-x="1494" 
d="M1072 0v608h-650v-608h-302v1443h302v-586h650v586h302v-1443h-302z" />
    <glyph glyph-name="I" unicode="I" horiz-adv-x="542" 
d="M120 0v1443h302v-1443h-302z" />
    <glyph glyph-name="J" unicode="J" horiz-adv-x="1143" 
d="M516 231q95 0 144.5 57t49.5 166v989h302v-991q0 -230 -130 -356t-357 -126t-360.5 124t-133.5 331h293q3 -136 76 -165t116 -29z" />
    <glyph glyph-name="K" unicode="K" horiz-adv-x="1353" 
d="M120 0v1443h302v-658h9l542 658h336l-534 -640l571 -803h-361l-428 603l-135 -162v-441h-302z" />
    <glyph glyph-name="L" unicode="L" horiz-adv-x="1112" 
d="M1053 0h-933v1443h302v-1193h631v-250z" />
    <glyph glyph-name="M" unicode="M" horiz-adv-x="1768" 
d="M1648 0h-269v974h-8l-392 -960h-190l-392 960h-8v-974h-269v1443h350l410 -1023h8l410 1023h350v-1443z" />
    <glyph glyph-name="N" unicode="N" horiz-adv-x="1463" 
d="M120 0v1443h252l674 -940h8v940h289v-1443h-250l-675 945h-9v-945h-289z" />
    <glyph glyph-name="O" unicode="O" horiz-adv-x="1541" 
d="M383 721q0 -227 105 -360t283 -133t282.5 133.5t104.5 359.5t-104 360.5t-284 134.5q-177 0 -282 -134t-105 -361zM1279.5 1267q187.5 -201 187.5 -545.5t-187.5 -545.5t-508.5 -201t-508.5 201t-187.5 545.5t187.5 545.5t508.5 201t508.5 -201z" />
    <glyph glyph-name="P" unicode="P" horiz-adv-x="1280" 
d="M422 691h219q131 0 202.5 66.5t71.5 190.5t-71 190t-202 66h-220v-513zM722 1443q222 0 361 -135.5t139 -358t-143.5 -358.5t-371.5 -136h-285v-455h-302v1443h602z" />
    <glyph glyph-name="Q" unicode="Q" horiz-adv-x="1541" 
d="M1052 389q106 123 106 341t-104.5 353.5t-282.5 135.5t-283 -135.5t-105 -362.5t105.5 -361.5t282.5 -134.5q53 0 103 14l-158 236h273zM1466 721q0 -390 -230 -581l183 -276h-293l-103 151q-113 -40 -263 -40t-278.5 51.5t-267.5 199.5t-139 494t187.5 547t507.5 201
t508 -201t188 -546z" />
    <glyph glyph-name="R" unicode="R" horiz-adv-x="1316" 
d="M422 0h-302v1443h596q247 0 384.5 -123t137.5 -338t-100 -300t-162 -109l304 -573h-342l-269 528h-247v-528zM422 747h265q115 0 178 61t63 167t-66 169t-178 63h-262v-460z" />
    <glyph glyph-name="S" unicode="S" horiz-adv-x="1293" 
d="M850.5 265.5q75.5 51.5 75.5 126.5t-56.5 118t-186.5 72l-188 41q-397 85 -397 403q0 198 154.5 320t401.5 122t395.5 -118.5t152.5 -315.5h-283q-8 90 -80.5 143t-185.5 53t-182 -48.5t-69 -122.5t55.5 -115t180.5 -69l175 -37q321 -68 368 -196t47 -222t-41 -178
t-158 -175.5t-382 -91.5t-420 117t-161 319h291q10 -87 93.5 -142t204 -55t196 51.5z" />
    <glyph glyph-name="T" unicode="T" horiz-adv-x="1242" 
d="M470 0v1194h-422v249h1147v-249h-423v-1194h-302z" />
    <glyph glyph-name="U" unicode="U" horiz-adv-x="1449" 
d="M422 540q0 -216 115 -261t187 -45q143 0 223 83t80 223v903h302v-933q0 -240 -164.5 -387.5t-440.5 -147.5t-440 147.5t-164 387.5v933h302v-903z" />
    <glyph glyph-name="V" unicode="V" horiz-adv-x="1389" 
d="M513 0l-485 1443h338l330 -1132h7l330 1132h329l-485 -1443h-364z" />
    <glyph glyph-name="W" unicode="W" horiz-adv-x="1977" 
d="M710 0h-285l-382 1443h313l227 -1045h8l270 1045h255l270 -1045h8l228 1045h313l-383 -1443h-285l-274 986h-9z" />
    <glyph glyph-name="X" unicode="X" horiz-adv-x="1404" 
d="M501 723v8l-455 712h355l306 -520h8l309 520h337l-472 -718v-7l466 -718h-344l-316 505h-8l-318 -505h-326z" />
    <glyph glyph-name="Y" unicode="Y" horiz-adv-x="1362" 
d="M530 0v539l-502 904h329l323 -616h7l324 616h324l-503 -904v-539h-302z" />
    <glyph glyph-name="Z" unicode="Z" horiz-adv-x="1292" 
d="M822 1194h-716v249h1077v-196l-730 -990v-7h750v-250h-1114v197l733 989v8z" />
    <glyph glyph-name="bracketleft" unicode="[" horiz-adv-x="755" 
d="M722 1444v-215h-294v-1255h307v-214h-587v1684h574z" />
    <glyph glyph-name="backslash" unicode="\" horiz-adv-x="687" 
d="M0 1444h272l415 -1738h-266z" />
    <glyph glyph-name="bracketright" unicode="]" horiz-adv-x="755" 
d="M608 -240h-587v214h307v1255h-294v215h574v-1684z" />
    <glyph glyph-name="asciicircum" unicode="^" horiz-adv-x="978" 
d="M291 823h-256l326 611h259l324 -611h-263l-184 377h-17z" />
    <glyph glyph-name="underscore" unicode="_" horiz-adv-x="857" 
d="M-46 -325v218h949v-218h-949z" />
    <glyph glyph-name="grave" unicode="`" horiz-adv-x="1010" 
d="M520 1263l-263 310h273l221 -310h-231z" />
    <glyph glyph-name="a" unicode="a" horiz-adv-x="1147" 
d="M412 -13q-146 0 -252 92t-106 240q0 149 111 232t323 96l275 17v73q0 80 -50.5 122t-136.5 42t-137.5 -38t-62.5 -98h-267q6 158 137 256.5t340 98.5t336.5 -100.5t127.5 -264.5v-755h-282v170h-6q-70 -131 -177 -157t-173 -26zM506 200q117 0 187 57.5t70 146.5v81
l-231 -16q-187 -12 -187 -105t47.5 -128.5t113.5 -35.5z" />
    <glyph glyph-name="b" unicode="b" horiz-adv-x="1252" 
d="M466 312q69 -89 182 -89q112 0 179.5 89t67.5 238.5t-67.5 238.5t-180 89t-181.5 -90t-69 -238.5t69 -237.5zM738 -13q-112 0 -202 52.5t-136 148.5h-6v-188h-287v1512h292v-599h6q46 96 134 148.5t199 52.5t194.5 -39t141.5 -111.5t89 -177t31 -235.5t-31 -235.5
t-89 -177.5t-141 -112t-195 -39z" />
    <glyph glyph-name="c" unicode="c" horiz-adv-x="1142" 
d="M595 890q-108 0 -174.5 -90t-66.5 -249q0 -246 94.5 -292.5t169.5 -46.5t133 48.5t72 139.5h272q-12 -192 -147 -305.5t-367 -113.5t-377.5 153t-145.5 415t146 416.5t377 154.5q232 0 367.5 -118.5t145.5 -306.5h-272q-19 136 -97 165.5t-130 29.5z" />
    <glyph glyph-name="d" unicode="d" horiz-adv-x="1249" 
d="M577.5 878q-85.5 0 -153 -89t-67.5 -239q0 -151 67.5 -239t181.5 -88t181.5 89t67.5 278.5t-96 238.5t-181.5 49zM149 179.5q-91 113.5 -91 371.5q0 259 123 411t329 152q120 0 207.5 -54.5t129.5 -146.5h6v599h292v-1512h-288v188h-5q-89 -201 -364 -201
q-82 0 -165 39.5t-174 153z" />
    <glyph glyph-name="e" unicode="e" horiz-adv-x="1164" 
d="M201.5 964.5q143.5 155.5 383.5 155.5t380.5 -148t140.5 -399v-90h-760v-18q0 -119 70 -192.5t170 -73.5q197 0 242 137h269q-24 -159 -160.5 -257t-351.5 -98q-239 0 -383 151.5t-144 414t143.5 418zM423.5 835.5q-66.5 -66.5 -74.5 -171.5h475q-4 107 -68 172.5
t-165 65.5t-167.5 -66.5z" />
    <glyph glyph-name="f" unicode="f" horiz-adv-x="734" 
d="M576 1292q-111 0 -113 -110v-81h206v-221h-200v-880h-292v880h-149v221h149v98q0 159 82.5 229t273.5 70q75 0 135 -10v-203q-38 7 -92 7z" />
    <glyph glyph-name="g" unicode="g" horiz-adv-x="1244" 
d="M847 200q-87 -193 -361 -193q-80 0 -163 38t-174 147.5t-91 365.5t122 406t316 150t264 -77.5t92 -123.5h5v188h288v-1076q0 -197 -148 -312.5t-388 -115.5q-226 0 -364.5 88.5t-150.5 236.5h288q21 -83 102 -101t130 -18q105 0 172 53.5t67 146.5v197h-6zM604 233
q57 0 103 22t79 63.5t50.5 100.5t17.5 133t-17.5 134.5t-50.5 103t-79 65.5t-103 23t-102.5 -23t-77.5 -65t-49.5 -102t-17.5 -135t17 -134.5t49.5 -100.5t78 -63t102.5 -22z" />
    <glyph glyph-name="h" unicode="h" horiz-adv-x="1247" 
d="M756 1117q183 0 290 -110.5t107 -302.5v-704h-292v643q0 109 -59 170t-165 61t-172 -69.5t-66 -179.5v-625h-292v1512h287v-608h6q95 213 356 213z" />
    <glyph glyph-name="i" unicode="i" horiz-adv-x="500" 
d="M250 1221q-32 0 -60.5 11.5t-50 32t-34 48.5t-12.5 76.5t46 92.5t95 44t77.5 -11.5t50 -32t34 -48t12.5 -60.5t-12.5 -61t-34 -48.5t-50.5 -32t-61 -11.5zM104 1101h292v-1101h-292v1101z" />
    <glyph glyph-name="j" unicode="j" horiz-adv-x="500" 
d="M250 1221q-32 0 -60.5 11.5t-50 32t-34 48.5t-12.5 76.5t46 92.5t95 44t77.5 -11.5t50 -32t34 -48t12.5 -60.5t-12.5 -61t-34 -48.5t-50.5 -32t-61 -11.5zM5 -376h-33q-33 0 -45 3v216q5 -1 8 -1h29q76 0 108 29.5t32 98.5v1131h292v-1138q0 -339 -391 -339z" />
    <glyph glyph-name="k" unicode="k" horiz-adv-x="1126" 
d="M399 0h-292v1512h292v-856h4l381 445h332l-424 -473l444 -628h-336l-322 452l-79 -85v-367z" />
    <glyph glyph-name="l" unicode="l" horiz-adv-x="505" 
d="M107 1512h292v-1512h-292v1512z" />
    <glyph glyph-name="m" unicode="m" horiz-adv-x="1811" 
d="M99 1101h282v-200h6q56 154 157.5 185t156.5 31q119 0 199 -58t108 -167h6q58 159 170 192t182 33q152 0 251.5 -101.5t99.5 -267.5v-748h-292v675q0 97 -47 148.5t-137 51.5q-133 0 -162.5 -81t-29.5 -128v-666h-282v686q0 89 -48 139t-133 50q-133 0 -164 -83t-31 -130
v-662h-292v1101z" />
    <glyph glyph-name="n" unicode="n" horiz-adv-x="1227" 
d="M741 1117q184 0 288 -109.5t104 -301.5v-706h-292v645q0 110 -56 169.5t-161 59.5t-169 -68.5t-64 -177.5v-628h-292v1101h282v-197h6q97 213 354 213z" />
    <glyph glyph-name="o" unicode="o" horiz-adv-x="1201" 
d="M601 206q116 0 181 90t65 255q0 248 -94.5 296.5t-152.5 48.5q-115 0 -180.5 -91.5t-65.5 -255.5q0 -163 65.5 -253t181.5 -90zM58 549q0 264 147 417.5t396 153.5t396 -152.5t147 -417.5t-146 -417t-397 -152t-397 152t-146 416z" />
    <glyph glyph-name="p" unicode="p" horiz-adv-x="1244" 
d="M888 551q0 148 -68.5 237.5t-180.5 89.5t-180.5 -90.5t-68.5 -237.5t68 -237t180 -90q114 0 182 90t68 238zM758 1114q82 0 165.5 -39t142 -111.5t90 -177t31.5 -301.5t-121 -347.5t-327 -150.5q-120 0 -208.5 52t-133.5 146h-6v-531h-292v1447h288v-188h6
q96 201 365 201z" />
    <glyph glyph-name="q" unicode="q" horiz-adv-x="1244" 
d="M632.5 223q85.5 0 153.5 89t68 237t-68.5 238.5t-181.5 90.5t-180 -88.5t-67 -238.5q0 -232 95 -280t180.5 -48zM847 185q-91 -198 -363 -198q-82 0 -164 39.5t-140.5 113t-90 178t-31.5 234.5t31.5 234t90.5 177t143.5 112t196.5 39t200.5 -54.5t131.5 -146.5h5v188h288
v-1447h-292v531h-6z" />
    <glyph glyph-name="r" unicode="r" horiz-adv-x="759" 
d="M626 862q-112 0 -173.5 -65t-61.5 -181v-616h-292v1101h282v-197h6q28 103 96 156.5t166 53.5q47 0 82 -11v-259q-40 18 -105 18z" />
    <glyph glyph-name="s" unicode="s" horiz-adv-x="1078" 
d="M80 777q0 154 125.5 248.5t332.5 94.5t331.5 -95.5t128.5 -253.5h-270q-5 66 -55.5 104t-132.5 38t-130 -32t-48 -86q0 -81 147 -115l207 -45q244 -56 276.5 -147.5t32.5 -161.5t-35.5 -135.5t-134 -137.5t-315.5 -72t-346 96t-141 256h285q11 -70 64.5 -107.5
t143.5 -37.5t139.5 32t49.5 80t-31.5 73t-106.5 43l-203 46q-314 70 -314 315z" />
    <glyph glyph-name="t" unicode="t" horiz-adv-x="741" 
d="M177 297v583h-149v221h149v245h292v-245h204v-221h-204v-535q0 -126 131 -126q38 0 73 5v-216q-55 -12 -146 -12q-184 0 -267 69.5t-83 231.5z" />
    <glyph glyph-name="u" unicode="u" horiz-adv-x="1227" 
d="M1128 0h-282v199h-6q-42 -104 -131 -159.5t-197 -55.5q-201 0 -309.5 111t-108.5 300v706h292v-645q0 -112 58.5 -170.5t161.5 -58.5t166.5 68t63.5 179v627h292v-1101z" />
    <glyph glyph-name="v" unicode="v" horiz-adv-x="1106" 
d="M718 0h-328l-382 1101h312l234 -840h6l233 840h305z" />
    <glyph glyph-name="w" unicode="w" horiz-adv-x="1654" 
d="M1341 0h-310l-203 784h-6l-201 -784h-307l-294 1101h294l170 -822h6l199 822h280l200 -822h6l171 822h288z" />
    <glyph glyph-name="x" unicode="x" horiz-adv-x="1104" 
d="M542 385l-211 -385h-308l348 549l-345 552h329l202 -375h6l201 375h317l-346 -545l344 -556h-319l-212 385h-6z" />
    <glyph glyph-name="y" unicode="y" horiz-adv-x="1136" 
d="M146 -175h48q163 0 195 126l10 42l-386 1108h320l238 -864h6l239 864h308l-381 -1123q-70 -209 -183.5 -294.5t-320.5 -85.5q-95 0 -111 4v226q12 -3 18 -3z" />
    <glyph glyph-name="z" unicode="z" horiz-adv-x="1059" 
d="M631 877h-545v224h883v-186l-521 -685v-6h534v-224h-904v168l553 704v5z" />
    <glyph glyph-name="braceleft" unicode="{" horiz-adv-x="837" 
d="M568 347v-266q0 -117 47 -162t168 -45h44v-212h-104q-228 0 -330.5 90.5t-102.5 291.5v225q0 117 -36.5 162t-131.5 45v269q95 0 131.5 45.5t36.5 163.5v191q0 198 102 285.5t331 87.5h104v-212h-44q-122 0 -168.5 -44.5t-46.5 -162.5v-242q0 -110 -49.5 -166t-157.5 -66
v-30q207 -18 207 -248z" />
    <glyph glyph-name="bar" unicode="|" horiz-adv-x="603" 
d="M165 -293v1736h273v-1736h-273z" />
    <glyph glyph-name="braceright" unicode="}" horiz-adv-x="837" 
d="M269 347q0 230 209 248v30q-109 10 -159 66.5t-50 165.5v242q0 118 -46.5 162.5t-167.5 44.5h-45v212h105q230 0 331 -87.5t101 -285.5v-191q0 -118 37 -163.5t132 -45.5v-269q-94 0 -131.5 -44.5t-37.5 -162.5v-225q0 -201 -102.5 -291.5t-329.5 -90.5h-105v212h45
q121 0 167.5 44.5t46.5 162.5v266z" />
    <glyph glyph-name="asciitilde" unicode="~" horiz-adv-x="1199" 
d="M787 741q112 0 116 178h228q8 -195 -77.5 -309.5t-243.5 -114.5q-128 0 -257 129q-45 45 -75.5 63.5t-64.5 18.5q-111 0 -116 -178h-228q-10 193 76.5 308.5t230.5 115.5t274 -130q79 -81 137 -81z" />
    <glyph glyph-name="nonbreakingspace" unicode="&#xa0;" horiz-adv-x="440" 
 />
    <glyph glyph-name="exclamdown" unicode="&#xa1;" horiz-adv-x="648" 
d="M324 833q-34 0 -64 12t-52 33t-34.5 49.5t-12.5 61.5t12.5 62t34.5 50t52 33t64 12t64 -12t52 -33t34.5 -50t12.5 -62t-12.5 -61.5t-34.5 -49.5t-52 -33t-64 -12zM198 645h252l24 -969h-300z" />
    <glyph glyph-name="cent" unicode="&#xa2;" horiz-adv-x="1326" 
d="M688 358q216 0 252 184h272q-14 -162 -127.5 -271.5t-288.5 -135.5v-182h-242v187q-203 38 -321 188.5t-118 373.5t119.5 373t319.5 186v187h242v-183q174 -26 289 -139t127 -274h-272q-28 135 -116 163t-142 28q-117 0 -195.5 -92.5t-78.5 -248.5t78.5 -250t201.5 -94z
" />
    <glyph glyph-name="sterling" unicode="&#xa3;" horiz-adv-x="1326" 
d="M692 564q0 -91 -50.5 -176.5t-125.5 -131.5v-8h714v-248h-1124v232q134 20 218.5 110.5t84.5 215.5q0 32 -7 76h-292v207h224q-59 151 -59 245q0 187 146.5 290.5t411.5 103.5q200 0 330 -50v-236q-122 51 -277 51t-231.5 -53.5t-76.5 -139.5t45 -211h414v-207h-349
q4 -28 4 -70z" />
    <glyph glyph-name="currency" unicode="&#xa4;" horiz-adv-x="1351" 
d="M1126 649q0 -122 -60 -225l149 -149l-166 -166l-150 150q-101 -60 -222 -60t-225 60l-150 -150l-166 166l150 150q-60 103 -60 224t60 224l-150 150l166 166l149 -149q106 60 226 60t223 -60l149 149l166 -166l-149 -149q60 -103 60 -225zM442 649q0 -48 18.5 -90.5
t50.5 -75t74.5 -51t90.5 -18.5t90.5 18.5t74.5 51t50.5 75t18.5 90.5t-18.5 91t-50.5 75t-74.5 51t-90.5 19t-90.5 -19t-74.5 -51t-50.5 -75t-18.5 -91z" />
    <glyph glyph-name="yen" unicode="&#xa5;" horiz-adv-x="1326" 
d="M815 212v-212h-302v212h-271v166h271v136h-271v166h195l-427 763h327l323 -613h9l320 613h327l-425 -763h195v-166h-271v-136h271v-166h-271z" />
    <glyph glyph-name="brokenbar" unicode="&#xa6;" horiz-adv-x="604" 
d="M166 -293v670h273v-670h-273zM166 774v669h273v-669h-273z" />
    <glyph glyph-name="section" unicode="&#xa7;" horiz-adv-x="994" 
d="M715 319q223 -83 223 -255q0 -162 -122.5 -255t-316.5 -93q-190 0 -310.5 91.5t-128.5 240.5h253q8 -56 59 -91.5t109 -35.5q96 0 144.5 35.5t48.5 87.5q0 51 -35 80.5t-114 53.5l-175 58q-158 51 -229.5 122t-71.5 178q0 143 82.5 197.5t132.5 69.5v18q-205 94 -205 265
q0 159 119.5 251.5t311.5 92.5t308.5 -88.5t128.5 -237.5h-251q-8 55 -57 88.5t-125 33.5t-123 -35.5t-47 -86.5t34 -80t113 -55l171 -58q237 -80 270.5 -162.5t33.5 -132.5q0 -99 -64 -175t-167 -104v-18zM693 568q0 38 -36.5 74t-104.5 55l-109 37q-58 -8 -99 -50.5
t-41 -91.5q0 -101 142 -143l109 -36q58 8 88 38.5t40.5 54.5t10.5 62z" />
    <glyph glyph-name="dieresis" unicode="&#xa8;" horiz-adv-x="1010" 
d="M715 1259q-29 0 -53.5 10.5t-42.5 28t-28.5 41.5t-10.5 51t10.5 51t28.5 41.5t42.5 28t53.5 10.5t53.5 -10.5t42.5 -28t28.5 -41.5t10.5 -51t-10.5 -51t-28.5 -41.5t-42.5 -28t-53.5 -10.5zM296 1259q-29 0 -53.5 10.5t-42.5 28t-28.5 41.5t-10.5 51t10.5 51t28.5 41.5
t42.5 28t53.5 10.5t53.5 -10.5t42.5 -28t28.5 -41.5t10.5 -51t-10.5 -51t-28.5 -41.5t-42.5 -28t-53.5 -10.5z" />
    <glyph glyph-name="copyright" unicode="&#xa9;" horiz-adv-x="1697" 
d="M857 889q-76 0 -124.5 -62.5t-48.5 -176.5t48.5 -176t123.5 -62q147 0 172 122h188q-14 -129 -107.5 -205.5t-257.5 -76.5t-266.5 108t-102.5 290q0 183 102.5 291t265.5 108q162 0 257 -80t109 -209h-188q-11 57 -53 93t-118 36zM870 25q108 0 222.5 48.5t247.5 180.5
t133 396t-180.5 445t-464.5 181q-108 0 -222.5 -48t-248 -182t-133.5 -396t181 -443.5t465 -181.5zM850 -139q-110 0 -211.5 28t-234.5 104.5t-238.5 257.5t-105.5 399q0 217 105 397.5t285.5 286t454.5 105.5t461 -187t229 -339.5t42 -262.5t-28 -211.5t-79 -189
t-122.5 -159.5t-159 -122.5t-188 -78.5t-210.5 -28z" />
    <glyph glyph-name="ordfeminine" unicode="&#xaa;" horiz-adv-x="964" 
d="M493 1268q-116 0 -132 -78h-245q8 128 112 201t277 73q172 0 273.5 -80.5t101.5 -222.5v-598h-250v107h-15q-34 -58 -99.5 -91t-139.5 -33q-136 0 -214 73t-78 196q0 248 347 270l193 11v70q1 48 -34 75t-97 27zM339 832q0 -46 33.5 -73.5t80.5 -27.5q82 0 127.5 41.5
t45.5 106.5v67l-155 -12q-132 -10 -132 -102z" />
    <glyph glyph-name="guillemotleft" unicode="&#xab;" horiz-adv-x="1356" 
d="M386 562l346 -411h-275l-344 411v8l348 411h271l-346 -409v-10zM897 562l346 -411h-275l-344 411v8l348 411h271l-346 -409v-10z" />
    <glyph glyph-name="logicalnot" unicode="&#xac;" horiz-adv-x="1326" 
d="M1185 66h-255v394h-789v248h1044v-642z" />
    <glyph glyph-name="registered" unicode="&#xae;" horiz-adv-x="1133" 
d="M577 1037q66 -1 66 55t-64 56h-88v-111h86zM372 799v443h232q114 0 139.5 -55t25.5 -96t-25 -77t-68 -47l116 -168h-143l-96 151h-62v-151h-119zM567 656q74 0 139 28t113 76t75.5 112.5t27.5 138.5t-27.5 139t-75.5 113t-113 76t-139 28t-139 -28t-113 -76t-76 -113
t-28 -139t28 -138.5t76 -112.5t113 -76t139 -28zM567 529q-101 0 -189.5 38t-154.5 103t-104.5 153t-38.5 188t38 188t104 153.5t155 103.5t190 38t189.5 -38t154.5 -103t104 -153.5t38 -188.5t-38 -188t-104 -153t-154.5 -103t-189.5 -38z" />
    <glyph glyph-name="macron" unicode="&#xaf;" horiz-adv-x="1000" 
d="M835 1298h-669v143h669v-143z" />
    <glyph glyph-name="degree" unicode="&#xb0;" horiz-adv-x="719" 
d="M453.5 1022q38.5 40 38.5 81q0 71 -38.5 109.5t-79.5 38.5q-67 0 -107 -38.5t-40 -80.5t10.5 -66.5t40 -54t83.5 -29.5t92.5 40zM359 815q-64 0 -119 23.5t-95.5 64t-63.5 95.5t-23 119t23 119t63.5 95.5t95.5 63.5t119 23t119.5 -23t96 -63.5t63.5 -95.5t23 -119
t-23.5 -119t-64 -95.5t-95.5 -64t-119 -23.5z" />
    <glyph glyph-name="plusminus" unicode="&#xb1;" horiz-adv-x="1326" 
d="M787 412h-248v239h-375v216h375v240h248v-240h375v-216h-375v-239zM164 75v218h996v-218h-996z" />
    <glyph glyph-name="two.sups" unicode="&#xb2;" horiz-adv-x="668" 
d="M392 1582q0 69 -53.5 69t-75.5 -22t-22 -55v-5h-210v5q0 112 81.5 178.5t212.5 66.5q132 0 211 -58t79 -154q0 -57 -28 -104t-100 -107l-146 -125v-4h282v-172h-578v153l290 248q57 52 57 86z" />
    <glyph glyph-name="three.sups" unicode="&#xb3;" horiz-adv-x="696" 
d="M341 1252q37 0 59.5 18t22.5 46t-22 45.5t-62 17.5h-84v148h87q35 0 56 17.5t21 45.5t-20.5 45.5t-58.5 17.5t-60.5 -21t-24.5 -55h-205q-2 110 79 176t212 66t210.5 -53.5t79.5 -145.5t-57 -121.5t-90 -35.5v-5q80 -9 125 -53.5t45 -104.5q0 -109 -84 -167.5t-223 -58.5
t-221.5 67t-88.5 177h219q4 -66 85 -66z" />
    <glyph glyph-name="acute" unicode="&#xb4;" horiz-adv-x="1010" 
d="M259 1263l221 310h273l-263 -310h-231z" />
    <glyph glyph-name="paragraph" unicode="&#xb6;" horiz-adv-x="1473" 
d="M1083 1443h280v-1698h-280v1698zM634 -255v710h-20q-224 0 -374 141t-150 353t147 353t378 141h299v-1698h-280z" />
    <glyph glyph-name="periodcentered" unicode="&#xb7;" horiz-adv-x="632" 
d="M202 515.5q-46 47.5 -46 97.5t12.5 79t34 51t51 34.5t80 12.5t97.5 -47t47 -114t-47 -114t-115 -47t-114 47.5z" />
    <glyph glyph-name="cedilla" unicode="&#xb8;" horiz-adv-x="1010" 
d="M447 -339q107 0 107 55q0 31 -28.5 43.5t-96.5 12.5h-56v101l63 139l145 -12l-49 -116q88 0 136.5 -41t48.5 -123t-63.5 -131t-163.5 -49t-154 15v120q40 -14 111 -14z" />
    <glyph glyph-name="one.sups" unicode="&#xb9;" horiz-adv-x="551" 
d="M230 1606h-4l-172 -112v190l174 114h230v-703h-228v511z" />
    <glyph glyph-name="ordmasculine" unicode="&#xba;" horiz-adv-x="1039" 
d="M194 659q-117 123 -117 340t118.5 341t324.5 124q205 0 323.5 -124t118.5 -342t-117 -340t-325.5 -122t-325.5 123zM346 998q0 -124 45 -191t129 -67t128.5 68t44.5 192t-45.5 191.5t-127.5 67.5t-128 -68.5t-46 -192.5z" />
    <glyph glyph-name="guillemotright" unicode="&#xbb;" horiz-adv-x="1356" 
d="M624 981h271l348 -411v-8l-344 -411h-275l346 411v10zM113 981h271l348 -411v-8l-344 -411h-275l346 411v10z" />
    <glyph glyph-name="onequarter" unicode="&#xbc;" horiz-adv-x="1625" 
d="M113 0l1054 1443h256l-1053 -1443h-257zM240 1254h-4l-172 -112v190l174 114h230v-703h-228v511zM1133 261h163v294h-4q-92 -157 -98 -170l-61 -120v-4zM1507 703v-432h80v-175h-80v-96h-218v96h-344v190q87 170 244 417h318z" />
    <glyph glyph-name="onehalf" unicode="&#xbd;" horiz-adv-x="1622" 
d="M113 0l1054 1443h256l-1053 -1443h-257zM240 1254h-4l-172 -112v190l174 114h230v-703h-228v511zM1355 487q0 69 -53.5 69t-75.5 -22t-22 -55v-5h-210v5q0 112 81.5 178.5t212.5 66.5q132 0 211 -58t79 -154q0 -57 -28 -104t-100 -107l-146 -125v-4h282v-172h-578v153
l290 248q57 52 57 86z" />
    <glyph glyph-name="threequarters" unicode="&#xbe;" horiz-adv-x="1715" 
d="M218 0l1054 1443h256l-1053 -1443h-257zM1223 261h163v294h-4q-92 -157 -98 -170l-61 -120v-4zM1597 703v-432h80v-175h-80v-96h-218v96h-344v190q87 170 244 417h318zM423 964q0 28 -22 45.5t-62 17.5h-84v148h87q35 0 56 17.5t21 45.5t-20.5 45.5t-58.5 17.5t-60.5 -21
t-24.5 -55h-205q-2 110 79 176t212 66t210.5 -53.5t79.5 -145.5t-57 -121.5t-90 -35.5v-5q80 -9 125 -53.5t45 -104.5q0 -109 -84 -167.5t-223 -58.5t-221.5 67t-88.5 177h219q4 -66 85 -66q37 0 59.5 18t22.5 46z" />
    <glyph glyph-name="questiondown" unicode="&#xbf;" horiz-adv-x="1093" 
d="M585 833q-34 0 -64 12t-52 33t-35 49.5t-13 61.5t13 62t35 50t52 33t64 12t63.5 -12t51.5 -33t35 -50t13 -62t-13 -61.5t-35 -49.5t-51.5 -33t-63.5 -12zM79 50q0 113 54 194t156 141t138 107t36 120v53h264l2 -58q14 -169 -57 -233t-121 -94q-100 -59 -135 -105t-35 -99
q0 -89 52.5 -135.5t138.5 -46.5t138.5 50.5t57.5 135.5h272q-4 -189 -132 -303.5t-350 -114.5q-216 0 -347.5 107t-131.5 281z" />
    <glyph glyph-name="Agrave" unicode="&#xc0;" horiz-adv-x="1413" 
d="M319 1868h273l232 -310h-227zM513 576h377l-185 591h-7zM955 350h-507l-110 -350h-310l501 1443h355l502 -1443h-321z" />
    <glyph glyph-name="Aacute" unicode="&#xc1;" horiz-adv-x="1413" 
d="M588 1553l232 310h273l-277 -310h-228zM513 576h377l-185 591h-7zM955 350h-507l-110 -350h-310l501 1443h355l502 -1443h-321z" />
    <glyph glyph-name="Acircumflex" unicode="&#xc2;" horiz-adv-x="1413" 
d="M821 1861l274 -318h-222l-163 197h-6l-163 -197h-222l274 318h228zM513 576h377l-185 591h-7zM955 350h-507l-110 -350h-310l501 1443h355l502 -1443h-321z" />
    <glyph glyph-name="Atilde" unicode="&#xc3;" horiz-adv-x="1413" 
d="M838 1694q63 0 65 122h158q0 -125 -60.5 -200t-148.5 -75t-157.5 68t-105.5 68q-67 0 -69 -119h-158q0 124 59.5 197.5t147.5 73.5t141 -46.5t77 -67.5t51 -21zM513 576h377l-185 591h-7zM955 350h-507l-110 -350h-310l501 1443h355l502 -1443h-321z" />
    <glyph glyph-name="Adieresis" unicode="&#xc4;" horiz-adv-x="1413" 
d="M917 1561q-29 0 -53.5 10.5t-42.5 28t-28.5 41.5t-10.5 51t10.5 51t28.5 41.5t42.5 28t53.5 10.5t53.5 -10.5t42.5 -28t28.5 -41.5t10.5 -51t-10.5 -51t-28.5 -41.5t-42.5 -28t-53.5 -10.5zM498 1561q-29 0 -53.5 10.5t-42.5 28t-28.5 41.5t-10.5 51t10.5 51t28.5 41.5
t42.5 28t53.5 10.5t53.5 -10.5t42.5 -28t28.5 -41.5t10.5 -51t-10.5 -51t-28.5 -41.5t-42.5 -28t-53.5 -10.5zM513 576h377l-185 591h-7zM955 350h-507l-110 -350h-310l501 1443h355l502 -1443h-321z" />
    <glyph glyph-name="Aring" unicode="&#xc5;" horiz-adv-x="1413" 
d="M707 1630q21 0 39.5 8t32.5 21.5t22 31.5t8 39t-8 39t-22 32t-32.5 22t-39.5 8t-39.5 -8t-32.5 -22t-22 -32t-8 -39t8 -39t22 -31.5t32.5 -21.5t39.5 -8zM707 1513q-45 0 -85 17t-70.5 46.5t-48 69t-17.5 84.5t17.5 84.5t48 69t70.5 46.5t85 17t85.5 -17t70.5 -46.5
t47.5 -69t17.5 -84.5t-17.5 -84.5t-47.5 -69t-70.5 -46.5t-85.5 -17zM513 576h377l-185 591h-7zM955 350h-507l-110 -350h-310l501 1443h355l502 -1443h-321z" />
    <glyph glyph-name="AE" unicode="&#xc6;" horiz-adv-x="2039" 
d="M966 373h-479l-158 -373h-301l613 1443h1270v-249h-669v-353h632v-232h-632v-360h669v-249h-945v373zM966 599v612h-136l-255 -612h391z" />
    <glyph glyph-name="Ccedilla" unicode="&#xc7;" horiz-adv-x="1459" 
d="M703 -339q107 0 107 55q0 31 -28.5 43.5t-96.5 12.5h-56v101l48 106q-281 26 -441.5 221.5t-160.5 531.5t184 536t499 200q261 0 438.5 -150.5t195.5 -392.5h-294q-22 134 -115 213.5t-225 79.5q-172 0 -273.5 -134t-101.5 -362t101 -362.5t275 -134.5q205 0 266.5 106
t73.5 170h294q-24 -224 -176 -364.5t-389 -158.5l-40 -94q88 0 136.5 -41t48.5 -123t-63.5 -131t-163.5 -49t-154 15v120q40 -14 111 -14z" />
    <glyph glyph-name="Egrave" unicode="&#xc8;" horiz-adv-x="1174" 
d="M1076 0h-956v1443h956v-249h-654v-348h617v-232h-617v-364h654v-250zM210 1868h273l232 -310h-227z" />
    <glyph glyph-name="Eacute" unicode="&#xc9;" horiz-adv-x="1174" 
d="M1076 0h-956v1443h956v-249h-654v-348h617v-232h-617v-364h654v-250zM479 1553l232 310h273l-277 -310h-228z" />
    <glyph glyph-name="Ecircumflex" unicode="&#xca;" horiz-adv-x="1174" 
d="M1076 0h-956v1443h956v-249h-654v-348h617v-232h-617v-364h654v-250zM712 1861l274 -318h-222l-163 197h-6l-163 -197h-222l274 318h228z" />
    <glyph glyph-name="Edieresis" unicode="&#xcb;" horiz-adv-x="1174" 
d="M1076 0h-956v1443h956v-249h-654v-348h617v-232h-617v-364h654v-250zM808 1561q-29 0 -53.5 10.5t-42.5 28t-28.5 41.5t-10.5 51t10.5 51t28.5 41.5t42.5 28t53.5 10.5t53.5 -10.5t42.5 -28t28.5 -41.5t10.5 -51t-10.5 -51t-28.5 -41.5t-42.5 -28t-53.5 -10.5zM389 1561
q-29 0 -53.5 10.5t-42.5 28t-28.5 41.5t-10.5 51t10.5 51t28.5 41.5t42.5 28t53.5 10.5t53.5 -10.5t42.5 -28t28.5 -41.5t10.5 -51t-10.5 -51t-28.5 -41.5t-42.5 -28t-53.5 -10.5z" />
    <glyph glyph-name="Igrave" unicode="&#xcc;" horiz-adv-x="542" 
d="M-117 1868h273l232 -310h-227zM120 0v1443h302v-1443h-302z" />
    <glyph glyph-name="Iacute" unicode="&#xcd;" horiz-adv-x="542" 
d="M152 1553l232 310h273l-277 -310h-228zM120 0v1443h302v-1443h-302z" />
    <glyph glyph-name="Icircumflex" unicode="&#xce;" horiz-adv-x="542" 
d="M385 1861l274 -318h-222l-163 197h-6l-163 -197h-222l274 318h228zM120 0v1443h302v-1443h-302z" />
    <glyph glyph-name="Idieresis" unicode="&#xcf;" horiz-adv-x="542" 
d="M481 1561q-29 0 -53.5 10.5t-42.5 28t-28.5 41.5t-10.5 51t10.5 51t28.5 41.5t42.5 28t53.5 10.5t53.5 -10.5t42.5 -28t28.5 -41.5t10.5 -51t-10.5 -51t-28.5 -41.5t-42.5 -28t-53.5 -10.5zM62 1561q-29 0 -53.5 10.5t-42.5 28t-28.5 41.5t-10.5 51t10.5 51t28.5 41.5
t42.5 28t53.5 10.5t53.5 -10.5t42.5 -28t28.5 -41.5t10.5 -51t-10.5 -51t-28.5 -41.5t-42.5 -28t-53.5 -10.5zM120 0v1443h302v-1443h-302z" />
    <glyph glyph-name="Eth" unicode="&#xd0;" horiz-adv-x="1479" 
d="M676 1443q326 0 507 -187t181 -530t-181.5 -534.5t-506.5 -191.5h-556v622h-87v221h87v600h556zM640 250q204 0 310 120.5t106 355.5q0 344 -158 406t-258 62h-218v-351h265v-221h-265v-372h218z" />
    <glyph glyph-name="Ntilde" unicode="&#xd1;" horiz-adv-x="1463" 
d="M120 0v1443h252l674 -940h8v940h289v-1443h-250l-675 945h-9v-945h-289zM863 1694q63 0 65 122h158q0 -125 -60.5 -200t-148.5 -75t-157.5 68t-105.5 68q-67 0 -69 -119h-158q0 124 59.5 197.5t147.5 73.5t141 -46.5t77 -67.5t51 -21z" />
    <glyph glyph-name="Ograve" unicode="&#xd2;" horiz-adv-x="1541" 
d="M383 721q0 -227 105 -360t283 -133t282.5 133.5t104.5 359.5t-104 360.5t-284 134.5q-177 0 -282 -134t-105 -361zM1279.5 1267q187.5 -201 187.5 -545.5t-187.5 -545.5t-508.5 -201t-508.5 201t-187.5 545.5t187.5 545.5t508.5 201t508.5 -201zM383 1868h273l232 -310
h-227z" />
    <glyph glyph-name="Oacute" unicode="&#xd3;" horiz-adv-x="1541" 
d="M383 721q0 -227 105 -360t283 -133t282.5 133.5t104.5 359.5t-104 360.5t-284 134.5q-177 0 -282 -134t-105 -361zM1279.5 1267q187.5 -201 187.5 -545.5t-187.5 -545.5t-508.5 -201t-508.5 201t-187.5 545.5t187.5 545.5t508.5 201t508.5 -201zM652 1553l232 310h273
l-277 -310h-228z" />
    <glyph glyph-name="Ocircumflex" unicode="&#xd4;" horiz-adv-x="1541" 
d="M383 721q0 -227 105 -360t283 -133t282.5 133.5t104.5 359.5t-104 360.5t-284 134.5q-177 0 -282 -134t-105 -361zM1279.5 1267q187.5 -201 187.5 -545.5t-187.5 -545.5t-508.5 -201t-508.5 201t-187.5 545.5t187.5 545.5t508.5 201t508.5 -201zM885 1861l274 -318h-222
l-163 197h-6l-163 -197h-222l274 318h228z" />
    <glyph glyph-name="Otilde" unicode="&#xd5;" horiz-adv-x="1541" 
d="M902 1694q63 0 65 122h158q0 -125 -60.5 -200t-148.5 -75t-157.5 68t-105.5 68q-67 0 -69 -119h-158q0 124 59.5 197.5t147.5 73.5t141 -46.5t77 -67.5t51 -21zM383 721q0 -227 105 -360t283 -133t282.5 133.5t104.5 359.5t-104 360.5t-284 134.5q-177 0 -282 -134
t-105 -361zM1279.5 1267q187.5 -201 187.5 -545.5t-187.5 -545.5t-508.5 -201t-508.5 201t-187.5 545.5t187.5 545.5t508.5 201t508.5 -201z" />
    <glyph glyph-name="Odieresis" unicode="&#xd6;" horiz-adv-x="1541" 
d="M383 721q0 -227 105 -360t283 -133t282.5 133.5t104.5 359.5t-104 360.5t-284 134.5q-177 0 -282 -134t-105 -361zM1279.5 1267q187.5 -201 187.5 -545.5t-187.5 -545.5t-508.5 -201t-508.5 201t-187.5 545.5t187.5 545.5t508.5 201t508.5 -201zM981 1561
q-29 0 -53.5 10.5t-42.5 28t-28.5 41.5t-10.5 51t10.5 51t28.5 41.5t42.5 28t53.5 10.5t53.5 -10.5t42.5 -28t28.5 -41.5t10.5 -51t-10.5 -51t-28.5 -41.5t-42.5 -28t-53.5 -10.5zM562 1561q-29 0 -53.5 10.5t-42.5 28t-28.5 41.5t-10.5 51t10.5 51t28.5 41.5t42.5 28
t53.5 10.5t53.5 -10.5t42.5 -28t28.5 -41.5t10.5 -51t-10.5 -51t-28.5 -41.5t-42.5 -28t-53.5 -10.5z" />
    <glyph glyph-name="multiply" unicode="&#xd7;" horiz-adv-x="1327" 
d="M359 105l-175 175l304 304l-304 305l175 175l305 -304l304 304l175 -175l-304 -305l304 -304l-175 -175l-304 304z" />
    <glyph glyph-name="Oslash" unicode="&#xd8;" horiz-adv-x="1541" 
d="M1250 1296q217 -203 217 -561t-187.5 -559t-508.5 -201q-195 0 -347 78l-80 -120l-102 68l80 120q-247 201 -247 600q0 345 187.5 546t508.5 201q220 0 381 -98l90 136l108 -60zM771 1216q-178 0 -283 -134t-105 -359t101 -357l514 773q-93 77 -227 77zM1158 705
q0 210 -77 336l-505 -759q87 -54 185 -54q188 0 292.5 133.5t104.5 343.5z" />
    <glyph glyph-name="Ugrave" unicode="&#xd9;" horiz-adv-x="1449" 
d="M422 540q0 -216 115 -261t187 -45q143 0 223 83t80 223v903h302v-933q0 -240 -164.5 -387.5t-440.5 -147.5t-440 147.5t-164 387.5v933h302v-903zM337 1868h273l232 -310h-227z" />
    <glyph glyph-name="Uacute" unicode="&#xda;" horiz-adv-x="1449" 
d="M422 540q0 -216 115 -261t187 -45q143 0 223 83t80 223v903h302v-933q0 -240 -164.5 -387.5t-440.5 -147.5t-440 147.5t-164 387.5v933h302v-903zM606 1553l232 310h273l-277 -310h-228z" />
    <glyph glyph-name="Ucircumflex" unicode="&#xdb;" horiz-adv-x="1449" 
d="M422 540q0 -216 115 -261t187 -45q143 0 223 83t80 223v903h302v-933q0 -240 -164.5 -387.5t-440.5 -147.5t-440 147.5t-164 387.5v933h302v-903zM839 1861l274 -318h-222l-163 197h-6l-163 -197h-222l274 318h228z" />
    <glyph glyph-name="Udieresis" unicode="&#xdc;" horiz-adv-x="1449" 
d="M422 540q0 -216 115 -261t187 -45q143 0 223 83t80 223v903h302v-933q0 -240 -164.5 -387.5t-440.5 -147.5t-440 147.5t-164 387.5v933h302v-903zM935 1561q-29 0 -53.5 10.5t-42.5 28t-28.5 41.5t-10.5 51t10.5 51t28.5 41.5t42.5 28t53.5 10.5t53.5 -10.5t42.5 -28
t28.5 -41.5t10.5 -51t-10.5 -51t-28.5 -41.5t-42.5 -28t-53.5 -10.5zM516 1561q-29 0 -53.5 10.5t-42.5 28t-28.5 41.5t-10.5 51t10.5 51t28.5 41.5t42.5 28t53.5 10.5t53.5 -10.5t42.5 -28t28.5 -41.5t10.5 -51t-10.5 -51t-28.5 -41.5t-42.5 -28t-53.5 -10.5z" />
    <glyph glyph-name="Yacute" unicode="&#xdd;" horiz-adv-x="1362" 
d="M562 1553l232 310h273l-277 -310h-228zM530 0v539l-502 904h329l323 -616h7l324 616h324l-503 -904v-539h-302z" />
    <glyph glyph-name="Thorn" unicode="&#xde;" horiz-adv-x="1330" 
d="M453 531h226q115 0 183 55t68 164t-68 163.5t-182 54.5h-227v-437zM455 1443v-235h307q209 0 342 -123.5t133 -333.5t-138 -333.5t-352 -123.5h-294v-294h-302v1443h304z" />
    <glyph glyph-name="germandbls" unicode="&#xdf;" horiz-adv-x="1360" 
d="M740 217q96 0 159.5 52.5t63.5 148.5t-72 149.5t-202 53.5h-72v238h50q90 0 141.5 53t51.5 142t-56.5 141t-155.5 52t-154 -57.5t-55 -166.5v-1023h-291v1081q0 184 134.5 293t359.5 109t362.5 -105t137.5 -282t-84 -241t-134 -78v-12q153 -14 244 -113t91 -253
q0 -190 -131 -302t-353 -112q-119 0 -181 16v233q50 -17 146 -17z" />
    <glyph glyph-name="agrave" unicode="&#xe0;" horiz-adv-x="1147" 
d="M466 1263l-263 310h273l221 -310h-231zM412 -13q-146 0 -252 92t-106 240q0 149 111 232t323 96l275 17v73q0 80 -50.5 122t-136.5 42t-137.5 -38t-62.5 -98h-267q6 158 137 256.5t340 98.5t336.5 -100.5t127.5 -264.5v-755h-282v170h-6q-70 -131 -177 -157t-173 -26z
M506 200q117 0 187 57.5t70 146.5v81l-231 -16q-187 -12 -187 -105t47.5 -128.5t113.5 -35.5z" />
    <glyph glyph-name="aacute" unicode="&#xe1;" horiz-adv-x="1147" 
d="M459 1263l221 310h273l-263 -310h-231zM412 -13q-146 0 -252 92t-106 240q0 149 111 232t323 96l275 17v73q0 80 -50.5 122t-136.5 42t-137.5 -38t-62.5 -98h-267q6 158 137 256.5t340 98.5t336.5 -100.5t127.5 -264.5v-755h-282v170h-6q-70 -131 -177 -157t-173 -26z
M506 200q117 0 187 57.5t70 146.5v81l-231 -16q-187 -12 -187 -105t47.5 -128.5t113.5 -35.5z" />
    <glyph glyph-name="acircumflex" unicode="&#xe2;" horiz-adv-x="1147" 
d="M953 1253h-223l-149 189h-7l-148 -189h-224l266 318h219zM412 -13q-146 0 -252 92t-106 240q0 149 111 232t323 96l275 17v73q0 80 -50.5 122t-136.5 42t-137.5 -38t-62.5 -98h-267q6 158 137 256.5t340 98.5t336.5 -100.5t127.5 -264.5v-755h-282v170h-6
q-70 -131 -177 -157t-173 -26zM506 200q117 0 187 57.5t70 146.5v81l-231 -16q-187 -12 -187 -105t47.5 -128.5t113.5 -35.5z" />
    <glyph glyph-name="atilde" unicode="&#xe3;" horiz-adv-x="1147" 
d="M711 1411q63 0 65 122h158q0 -125 -60.5 -200t-148.5 -75t-157.5 68t-105.5 68q-67 0 -69 -119h-158q0 124 59.5 197.5t147.5 73.5t141 -46.5t77 -67.5t51 -21zM412 -13q-146 0 -252 92t-106 240q0 149 111 232t323 96l275 17v73q0 80 -50.5 122t-136.5 42t-137.5 -38
t-62.5 -98h-267q6 158 137 256.5t340 98.5t336.5 -100.5t127.5 -264.5v-755h-282v170h-6q-70 -131 -177 -157t-173 -26zM506 200q117 0 187 57.5t70 146.5v81l-231 -16q-187 -12 -187 -105t47.5 -128.5t113.5 -35.5z" />
    <glyph glyph-name="adieresis" unicode="&#xe4;" horiz-adv-x="1147" 
d="M788 1259q-29 0 -53.5 10.5t-42.5 28t-28.5 41.5t-10.5 51t10.5 51t28.5 41.5t42.5 28t53.5 10.5t53.5 -10.5t42.5 -28t28.5 -41.5t10.5 -51t-10.5 -51t-28.5 -41.5t-42.5 -28t-53.5 -10.5zM369 1259q-29 0 -53.5 10.5t-42.5 28t-28.5 41.5t-10.5 51t10.5 51t28.5 41.5
t42.5 28t53.5 10.5t53.5 -10.5t42.5 -28t28.5 -41.5t10.5 -51t-10.5 -51t-28.5 -41.5t-42.5 -28t-53.5 -10.5zM412 -13q-146 0 -252 92t-106 240q0 149 111 232t323 96l275 17v73q0 80 -50.5 122t-136.5 42t-137.5 -38t-62.5 -98h-267q6 158 137 256.5t340 98.5
t336.5 -100.5t127.5 -264.5v-755h-282v170h-6q-70 -131 -177 -157t-173 -26zM506 200q117 0 187 57.5t70 146.5v81l-231 -16q-187 -12 -187 -105t47.5 -128.5t113.5 -35.5z" />
    <glyph glyph-name="aring" unicode="&#xe5;" horiz-adv-x="1147" 
d="M578 1327q21 0 39.5 8t32.5 21.5t22 31.5t8 39t-8 39t-22 32t-32.5 22t-39.5 8t-39.5 -8t-32.5 -22t-22 -32t-8 -39t8 -39t22 -31.5t32.5 -21.5t39.5 -8zM578 1210q-45 0 -85 17t-70.5 46.5t-48 69t-17.5 84.5t17.5 84.5t48 69t70.5 46.5t85 17t85.5 -17t70.5 -46.5
t47.5 -69t17.5 -84.5t-17.5 -84.5t-47.5 -69t-70.5 -46.5t-85.5 -17zM412 -13q-146 0 -252 92t-106 240q0 149 111 232t323 96l275 17v73q0 80 -50.5 122t-136.5 42t-137.5 -38t-62.5 -98h-267q6 158 137 256.5t340 98.5t336.5 -100.5t127.5 -264.5v-755h-282v170h-6
q-70 -131 -177 -157t-173 -26zM506 200q117 0 187 57.5t70 146.5v81l-231 -16q-187 -12 -187 -105t47.5 -128.5t113.5 -35.5z" />
    <glyph glyph-name="ae" unicode="&#xe6;" horiz-adv-x="1844" 
d="M502 200q118 0 189.5 58.5t71.5 145.5v78l-233 -14q-90 -5 -137.5 -40.5t-47.5 -95.5t46 -96t111 -36zM1111.5 836.5q-65.5 -65.5 -73.5 -172.5h466q-4 109 -65 173.5t-161.5 64.5t-166 -65.5zM931 952q114 168 348 168t370.5 -149t136.5 -398v-89h-751v-19
q0 -119 70 -192.5t169 -73.5q190 0 234 137h269q-24 -161 -158 -258t-333 -97q-139 0 -244.5 55t-159.5 152h-9q-120 -201 -405 -201q-185 0 -299.5 90.5t-114.5 238.5q0 149 110.5 233.5t322.5 96.5l276 15v67q0 77 -54 125t-140 48t-138 -37t-59 -99h-268q8 158 133 256.5
t323 98.5q133 0 225 -45t137 -123h9z" />
    <glyph glyph-name="ccedilla" unicode="&#xe7;" horiz-adv-x="1142" 
d="M541 -339q107 0 107 55q0 31 -28.5 43.5t-96.5 12.5h-56v101l51 112q-212 24 -336 173.5t-124 401.5t146 406t377 154q232 0 367.5 -118.5t145.5 -306.5h-272q-19 136 -97 165.5t-130 29.5q-108 0 -174.5 -90t-66.5 -249q0 -246 94.5 -292.5t169.5 -46.5t133 48.5
t72 139.5h272q-12 -176 -126.5 -287t-300.5 -129l-42 -100q88 0 136.5 -41t48.5 -123t-63.5 -131t-163.5 -49t-154 15v120q40 -14 111 -14z" />
    <glyph glyph-name="egrave" unicode="&#xe8;" horiz-adv-x="1164" 
d="M201.5 964.5q143.5 155.5 383.5 155.5t380.5 -148t140.5 -399v-90h-760v-18q0 -119 70 -192.5t170 -73.5q197 0 242 137h269q-24 -159 -160.5 -257t-351.5 -98q-239 0 -383 151.5t-144 414t143.5 418zM423.5 835.5q-66.5 -66.5 -74.5 -171.5h475q-4 107 -68 172.5
t-165 65.5t-167.5 -66.5zM474 1263l-263 310h273l221 -310h-231z" />
    <glyph glyph-name="eacute" unicode="&#xe9;" horiz-adv-x="1164" 
d="M201.5 964.5q143.5 155.5 383.5 155.5t380.5 -148t140.5 -399v-90h-760v-18q0 -119 70 -192.5t170 -73.5q197 0 242 137h269q-24 -159 -160.5 -257t-351.5 -98q-239 0 -383 151.5t-144 414t143.5 418zM423.5 835.5q-66.5 -66.5 -74.5 -171.5h475q-4 107 -68 172.5
t-165 65.5t-167.5 -66.5zM467 1263l221 310h273l-263 -310h-231z" />
    <glyph glyph-name="ecircumflex" unicode="&#xea;" horiz-adv-x="1164" 
d="M201.5 964.5q143.5 155.5 383.5 155.5t380.5 -148t140.5 -399v-90h-760v-18q0 -119 70 -192.5t170 -73.5q197 0 242 137h269q-24 -159 -160.5 -257t-351.5 -98q-239 0 -383 151.5t-144 414t143.5 418zM423.5 835.5q-66.5 -66.5 -74.5 -171.5h475q-4 107 -68 172.5
t-165 65.5t-167.5 -66.5zM961 1253h-223l-149 189h-7l-148 -189h-224l266 318h219z" />
    <glyph glyph-name="edieresis" unicode="&#xeb;" horiz-adv-x="1164" 
d="M796 1259q-29 0 -53.5 10.5t-42.5 28t-28.5 41.5t-10.5 51t10.5 51t28.5 41.5t42.5 28t53.5 10.5t53.5 -10.5t42.5 -28t28.5 -41.5t10.5 -51t-10.5 -51t-28.5 -41.5t-42.5 -28t-53.5 -10.5zM377 1259q-29 0 -53.5 10.5t-42.5 28t-28.5 41.5t-10.5 51t10.5 51t28.5 41.5
t42.5 28t53.5 10.5t53.5 -10.5t42.5 -28t28.5 -41.5t10.5 -51t-10.5 -51t-28.5 -41.5t-42.5 -28t-53.5 -10.5zM201.5 964.5q143.5 155.5 383.5 155.5t380.5 -148t140.5 -399v-90h-760v-18q0 -119 70 -192.5t170 -73.5q197 0 242 137h269q-24 -159 -160.5 -257t-351.5 -98
q-239 0 -383 151.5t-144 414t143.5 418zM423.5 835.5q-66.5 -66.5 -74.5 -171.5h475q-4 107 -68 172.5t-165 65.5t-167.5 -66.5z" />
    <glyph glyph-name="igrave" unicode="&#xec;" horiz-adv-x="500" 
d="M104 1101h292v-1101h-292v1101zM138 1263l-263 310h273l221 -310h-231z" />
    <glyph glyph-name="iacute" unicode="&#xed;" horiz-adv-x="500" 
d="M104 1101h292v-1101h-292v1101zM131 1263l221 310h273l-263 -310h-231z" />
    <glyph glyph-name="icircumflex" unicode="&#xee;" horiz-adv-x="500" 
d="M104 1101h292v-1101h-292v1101zM625 1253h-223l-149 189h-7l-148 -189h-224l266 318h219z" />
    <glyph glyph-name="idieresis" unicode="&#xef;" horiz-adv-x="500" 
d="M460 1259q-29 0 -53.5 10.5t-42.5 28t-28.5 41.5t-10.5 51t10.5 51t28.5 41.5t42.5 28t53.5 10.5t53.5 -10.5t42.5 -28t28.5 -41.5t10.5 -51t-10.5 -51t-28.5 -41.5t-42.5 -28t-53.5 -10.5zM41 1259q-29 0 -53.5 10.5t-42.5 28t-28.5 41.5t-10.5 51t10.5 51t28.5 41.5
t42.5 28t53.5 10.5t53.5 -10.5t42.5 -28t28.5 -41.5t10.5 -51t-10.5 -51t-28.5 -41.5t-42.5 -28t-53.5 -10.5zM104 1101h292v-1101h-292v1101z" />
    <glyph glyph-name="eth" unicode="&#xf0;" horiz-adv-x="1253" 
d="M379 533q0 -144 66.5 -229.5t182.5 -85.5q115 0 182.5 85t67.5 230q0 144 -68 229.5t-183 85.5t-181.5 -85.5t-66.5 -229.5zM1165 601q0 -284 -148.5 -451.5t-394.5 -167.5t-394 151.5t-148 394.5t130 384.5t337 141.5q130 0 192 -50.5t82 -79.5h17q-45 147 -171 288
l-285 -95l-55 140l228 76q-79 71 -242 184h363q62 -47 119 -104l265 89l57 -141l-202 -66q250 -298 250 -694z" />
    <glyph glyph-name="ntilde" unicode="&#xf1;" horiz-adv-x="1227" 
d="M741 1117q184 0 288 -109.5t104 -301.5v-706h-292v645q0 110 -56 169.5t-161 59.5t-169 -68.5t-64 -177.5v-628h-292v1101h282v-197h6q97 213 354 213zM748 1411q63 0 65 122h158q0 -125 -60.5 -200t-148.5 -75t-157.5 68t-105.5 68q-67 0 -69 -119h-158
q0 124 59.5 197.5t147.5 73.5t141 -46.5t77 -67.5t51 -21z" />
    <glyph glyph-name="ograve" unicode="&#xf2;" horiz-adv-x="1201" 
d="M601 206q116 0 181 90t65 255q0 248 -94.5 296.5t-152.5 48.5q-115 0 -180.5 -91.5t-65.5 -255.5q0 -163 65.5 -253t181.5 -90zM58 549q0 264 147 417.5t396 153.5t396 -152.5t147 -417.5t-146 -417t-397 -152t-397 152t-146 416zM489 1263l-263 310h273l221 -310h-231z
" />
    <glyph glyph-name="oacute" unicode="&#xf3;" horiz-adv-x="1201" 
d="M601 206q116 0 181 90t65 255q0 248 -94.5 296.5t-152.5 48.5q-115 0 -180.5 -91.5t-65.5 -255.5q0 -163 65.5 -253t181.5 -90zM58 549q0 264 147 417.5t396 153.5t396 -152.5t147 -417.5t-146 -417t-397 -152t-397 152t-146 416zM482 1263l221 310h273l-263 -310h-231z
" />
    <glyph glyph-name="ocircumflex" unicode="&#xf4;" horiz-adv-x="1201" 
d="M601 206q116 0 181 90t65 255q0 248 -94.5 296.5t-152.5 48.5q-115 0 -180.5 -91.5t-65.5 -255.5q0 -163 65.5 -253t181.5 -90zM58 549q0 264 147 417.5t396 153.5t396 -152.5t147 -417.5t-146 -417t-397 -152t-397 152t-146 416zM976 1253h-223l-149 189h-7l-148 -189
h-224l266 318h219z" />
    <glyph glyph-name="otilde" unicode="&#xf5;" horiz-adv-x="1201" 
d="M601 206q116 0 181 90t65 255q0 248 -94.5 296.5t-152.5 48.5q-115 0 -180.5 -91.5t-65.5 -255.5q0 -163 65.5 -253t181.5 -90zM58 549q0 264 147 417.5t396 153.5t396 -152.5t147 -417.5t-146 -417t-397 -152t-397 152t-146 416zM734 1411q63 0 65 122h158
q0 -125 -60.5 -200t-148.5 -75t-157.5 68t-105.5 68q-67 0 -69 -119h-158q0 124 59.5 197.5t147.5 73.5t141 -46.5t77 -67.5t51 -21z" />
    <glyph glyph-name="odieresis" unicode="&#xf6;" horiz-adv-x="1201" 
d="M601 206q116 0 181 90t65 255q0 248 -94.5 296.5t-152.5 48.5q-115 0 -180.5 -91.5t-65.5 -255.5q0 -163 65.5 -253t181.5 -90zM58 549q0 264 147 417.5t396 153.5t396 -152.5t147 -417.5t-146 -417t-397 -152t-397 152t-146 416zM811 1259q-29 0 -53.5 10.5t-42.5 28
t-28.5 41.5t-10.5 51t10.5 51t28.5 41.5t42.5 28t53.5 10.5t53.5 -10.5t42.5 -28t28.5 -41.5t10.5 -51t-10.5 -51t-28.5 -41.5t-42.5 -28t-53.5 -10.5zM392 1259q-29 0 -53.5 10.5t-42.5 28t-28.5 41.5t-10.5 51t10.5 51t28.5 41.5t42.5 28t53.5 10.5t53.5 -10.5t42.5 -28
t28.5 -41.5t10.5 -51t-10.5 -51t-28.5 -41.5t-42.5 -28t-53.5 -10.5z" />
    <glyph glyph-name="divide" unicode="&#xf7;" horiz-adv-x="1326" 
d="M124 470v218h1079v-218h-1079zM664 32q-37 0 -68 11.5t-53 32.5t-34 50t-12 64t12 64.5t34 50.5t53 32.5t68 11.5t68 -11.5t53 -32.5t34 -50.5t12 -64.5t-12 -64t-34 -50t-53 -32.5t-68 -11.5zM664 810q-37 0 -68 11.5t-53 32.5t-34 50t-12 64t12 64.5t34 50.5t53 32.5
t68 11.5t68 -11.5t53 -32.5t34 -50.5t12 -64.5t-12 -64t-34 -50t-53 -32.5t-68 -11.5z" />
    <glyph glyph-name="oslash" unicode="&#xf8;" horiz-adv-x="1201" 
d="M962 1001q182 -153 182 -434t-146 -433.5t-397 -152.5q-135 0 -248 48l-62 -99l-104 64l62 98q-191 152 -191 459q0 263 147 416t396 153q143 0 259 -54l64 102l106 -59zM609 896q-123 0 -189 -91.5t-66 -239.5t45 -234l330 526q-54 39 -120 39zM601 206q116 0 181 90
t65 234t-38 227l-326 -520q53 -31 118 -31z" />
    <glyph glyph-name="ugrave" unicode="&#xf9;" horiz-adv-x="1227" 
d="M1128 0h-282v199h-6q-42 -104 -131 -159.5t-197 -55.5q-201 0 -309.5 111t-108.5 300v706h292v-645q0 -112 58.5 -170.5t161.5 -58.5t166.5 68t63.5 179v627h292v-1101zM500 1263l-263 310h273l221 -310h-231z" />
    <glyph glyph-name="uacute" unicode="&#xfa;" horiz-adv-x="1227" 
d="M1128 0h-282v199h-6q-42 -104 -131 -159.5t-197 -55.5q-201 0 -309.5 111t-108.5 300v706h292v-645q0 -112 58.5 -170.5t161.5 -58.5t166.5 68t63.5 179v627h292v-1101zM493 1263l221 310h273l-263 -310h-231z" />
    <glyph glyph-name="ucircumflex" unicode="&#xfb;" horiz-adv-x="1227" 
d="M1128 0h-282v199h-6q-42 -104 -131 -159.5t-197 -55.5q-201 0 -309.5 111t-108.5 300v706h292v-645q0 -112 58.5 -170.5t161.5 -58.5t166.5 68t63.5 179v627h292v-1101zM987 1253h-223l-149 189h-7l-148 -189h-224l266 318h219z" />
    <glyph glyph-name="udieresis" unicode="&#xfc;" horiz-adv-x="1227" 
d="M822 1259q-29 0 -53.5 10.5t-42.5 28t-28.5 41.5t-10.5 51t10.5 51t28.5 41.5t42.5 28t53.5 10.5t53.5 -10.5t42.5 -28t28.5 -41.5t10.5 -51t-10.5 -51t-28.5 -41.5t-42.5 -28t-53.5 -10.5zM403 1259q-29 0 -53.5 10.5t-42.5 28t-28.5 41.5t-10.5 51t10.5 51t28.5 41.5
t42.5 28t53.5 10.5t53.5 -10.5t42.5 -28t28.5 -41.5t10.5 -51t-10.5 -51t-28.5 -41.5t-42.5 -28t-53.5 -10.5zM1128 0h-282v199h-6q-42 -104 -131 -159.5t-197 -55.5q-201 0 -309.5 111t-108.5 300v706h292v-645q0 -112 58.5 -170.5t161.5 -58.5t166.5 68t63.5 179v627h292
v-1101z" />
    <glyph glyph-name="yacute" unicode="&#xfd;" horiz-adv-x="1136" 
d="M450 1263l221 310h273l-263 -310h-231zM146 -175h48q163 0 195 126l10 42l-386 1108h320l238 -864h6l239 864h308l-381 -1123q-70 -209 -183.5 -294.5t-320.5 -85.5q-95 0 -111 4v226q12 -3 18 -3z" />
    <glyph glyph-name="thorn" unicode="&#xfe;" horiz-adv-x="1253" 
d="M645 218q58 0 104.5 23t78.5 65.5t49 104.5t17 140t-17 139.5t-49 104t-78.5 65.5t-104.5 23t-104 -23t-78.5 -66t-50.5 -105t-18 -139t17.5 -138.5t50 -104.5t79 -66t104.5 -23zM741 1119q110 0 192.5 -39t140.5 -112t88.5 -178.5t30.5 -305t-118.5 -351t-326.5 -151.5
q-119 0 -205.5 49t-127.5 137h-17v-514h-291v1853h287v-587h18q45 94 132 146.5t197 52.5z" />
    <glyph glyph-name="ydieresis" unicode="&#xff;" horiz-adv-x="1136" 
d="M779 1259q-29 0 -53.5 10.5t-42.5 28t-28.5 41.5t-10.5 51t10.5 51t28.5 41.5t42.5 28t53.5 10.5t53.5 -10.5t42.5 -28t28.5 -41.5t10.5 -51t-10.5 -51t-28.5 -41.5t-42.5 -28t-53.5 -10.5zM360 1259q-29 0 -53.5 10.5t-42.5 28t-28.5 41.5t-10.5 51t10.5 51t28.5 41.5
t42.5 28t53.5 10.5t53.5 -10.5t42.5 -28t28.5 -41.5t10.5 -51t-10.5 -51t-28.5 -41.5t-42.5 -28t-53.5 -10.5zM146 -175h48q163 0 195 126l10 42l-386 1108h320l238 -864h6l239 864h308l-381 -1123q-70 -209 -183.5 -294.5t-320.5 -85.5q-95 0 -111 4v226q12 -3 18 -3z" />
    <glyph glyph-name="Amacron" unicode="&#x100;" horiz-adv-x="1413" 
d="M1053 1624h-692v143h692v-143zM513 576h377l-185 591h-7zM955 350h-507l-110 -350h-310l501 1443h355l502 -1443h-321z" />
    <glyph glyph-name="amacron" unicode="&#x101;" horiz-adv-x="1147" 
d="M913 1298h-669v143h669v-143zM412 -13q-146 0 -252 92t-106 240q0 149 111 232t323 96l275 17v73q0 80 -50.5 122t-136.5 42t-137.5 -38t-62.5 -98h-267q6 158 137 256.5t340 98.5t336.5 -100.5t127.5 -264.5v-755h-282v170h-6q-70 -131 -177 -157t-173 -26zM506 200
q117 0 187 57.5t70 146.5v81l-231 -16q-187 -12 -187 -105t47.5 -128.5t113.5 -35.5z" />
    <glyph glyph-name="Abreve" unicode="&#x102;" horiz-adv-x="1413" 
d="M726 1688q58 0 106 48t50 124h178q-2 -138 -97.5 -227.5t-255.5 -89.5t-255.5 89.5t-97.5 227.5h178q3 -118 69.5 -145t124.5 -27zM513 576h377l-185 591h-7zM955 350h-507l-110 -350h-310l501 1443h355l502 -1443h-321z" />
    <glyph glyph-name="abreve" unicode="&#x103;" horiz-adv-x="1147" 
d="M595.5 1395q58.5 0 108.5 48.5t52 126.5h180q-2 -140 -99 -231t-260 -91t-259.5 91t-98.5 231h179q3 -119 71 -147t126.5 -28zM412 -13q-146 0 -252 92t-106 240q0 149 111 232t323 96l275 17v73q0 80 -50.5 122t-136.5 42t-137.5 -38t-62.5 -98h-267q6 158 137 256.5
t340 98.5t336.5 -100.5t127.5 -264.5v-755h-282v170h-6q-70 -131 -177 -157t-173 -26zM506 200q117 0 187 57.5t70 146.5v81l-231 -16q-187 -12 -187 -105t47.5 -128.5t113.5 -35.5z" />
    <glyph glyph-name="Aogonek" unicode="&#x104;" horiz-adv-x="1413" 
d="M513 576h377l-182 584h-12zM1246 -453q-122 0 -191.5 63.5t-69.5 162.5q0 146 151 238h-74l-107 339h-507l-110 -350h-310l501 1443h355l499 -1436h-53q-145 -72 -145 -184q0 -49 32.5 -79t69.5 -30t75 5v-155q-50 -17 -116 -17z" />
    <glyph glyph-name="aogonek" unicode="&#x105;" horiz-adv-x="1147" 
d="M506 200q118 0 187.5 58t69.5 146v81l-231 -16q-187 -12 -187 -137q0 -60 47.5 -96t113.5 -36zM978 -286q38 0 72 5v-155q-50 -17 -114 -17q-120 0 -188.5 61.5t-68.5 159.5q0 150 160 244h-71v158h-6q-67 -129 -174.5 -156t-175.5 -27t-136.5 24.5t-145 92.5t-76.5 215
t110 231t324 97l275 17v73q0 78 -50.5 121t-135.5 43t-137.5 -37t-63.5 -99h-267q6 159 137.5 257t339.5 98t336 -100t128 -265v-745h-29q-145 -73 -145 -187q0 -50 32 -79.5t70 -29.5z" />
    <glyph glyph-name="Cacute" unicode="&#x106;" horiz-adv-x="1459" 
d="M211.5 225q-136.5 148 -136.5 496t184 547.5t499 199.5q261 0 438.5 -150.5t195.5 -392.5h-294q-22 134 -115 213.5t-225 79.5q-172 0 -273.5 -134t-101.5 -362t101 -362.5t275 -134.5q205 0 266.5 106t73.5 170h294q-26 -241 -197.5 -383.5t-449.5 -142.5
q-146 0 -272 51t-262.5 199zM626 1554l232 310h273l-277 -310h-228z" />
    <glyph glyph-name="cacute" unicode="&#x107;" horiz-adv-x="1142" 
d="M463 1263l221 310h273l-263 -310h-231zM595 890q-108 0 -174.5 -90t-66.5 -249q0 -246 94.5 -292.5t169.5 -46.5t133 48.5t72 139.5h272q-12 -192 -147 -305.5t-367 -113.5t-377.5 153t-145.5 415t146 416.5t377 154.5q232 0 367.5 -118.5t145.5 -306.5h-272
q-19 136 -97 165.5t-130 29.5z" />
    <glyph glyph-name="Ccircumflex" unicode="&#x108;" horiz-adv-x="1459" 
d="M859 1862l274 -318h-222l-163 197h-6l-163 -197h-222l274 318h228zM211.5 225q-136.5 148 -136.5 496t184 547.5t499 199.5q261 0 438.5 -150.5t195.5 -392.5h-294q-22 134 -115 213.5t-225 79.5q-172 0 -273.5 -134t-101.5 -362t101 -362.5t275 -134.5q205 0 266.5 106
t73.5 170h294q-26 -241 -197.5 -383.5t-449.5 -142.5q-146 0 -272 51t-262.5 199z" />
    <glyph glyph-name="ccircumflex" unicode="&#x109;" horiz-adv-x="1142" 
d="M595 890q-108 0 -174.5 -90t-66.5 -249q0 -246 94.5 -292.5t169.5 -46.5t133 48.5t72 139.5h272q-12 -192 -147 -305.5t-367 -113.5t-377.5 153t-145.5 415t146 416.5t377 154.5q232 0 367.5 -118.5t145.5 -306.5h-272q-19 136 -97 165.5t-130 29.5zM957 1253h-223
l-149 189h-7l-148 -189h-224l266 318h219z" />
    <glyph glyph-name="Cdotaccent" unicode="&#x10a;" horiz-adv-x="1459" 
d="M211.5 225q-136.5 148 -136.5 496t184 547.5t499 199.5q261 0 438.5 -150.5t195.5 -392.5h-294q-22 134 -115 213.5t-225 79.5q-172 0 -273.5 -134t-101.5 -362t101 -362.5t275 -134.5q205 0 266.5 106t73.5 170h294q-26 -241 -197.5 -383.5t-449.5 -142.5
q-146 0 -272 51t-262.5 199zM744 1562q-32 0 -58.5 11.5t-46.5 32t-31.5 47.5t-11.5 73.5t43 89.5t90 43t74.5 -11.5t47.5 -31.5t31.5 -47t11.5 -58t-11.5 -58t-31.5 -47.5t-47.5 -32t-59.5 -11.5z" />
    <glyph glyph-name="cdotaccent" unicode="&#x10b;" horiz-adv-x="1142" 
d="M474 1516q44 44 91 44q77 0 121.5 -43t44.5 -105t-43.5 -105.5t-107.5 -43.5t-107 44.5t-43 104.5t44 104zM595 890q-108 0 -174.5 -90t-66.5 -249q0 -246 94.5 -292.5t169.5 -46.5t133 48.5t72 139.5h272q-12 -192 -147 -305.5t-367 -113.5t-377.5 153t-145.5 415
t146 416.5t377 154.5q232 0 367.5 -118.5t145.5 -306.5h-272q-19 136 -97 165.5t-130 29.5z" />
    <glyph glyph-name="Ccaron" unicode="&#x10c;" horiz-adv-x="1459" 
d="M357 1862h222l163 -197h6l163 197h222l-274 -318h-228zM211.5 225q-136.5 148 -136.5 496t184 547.5t499 199.5q261 0 438.5 -150.5t195.5 -392.5h-294q-22 134 -115 213.5t-225 79.5q-172 0 -273.5 -134t-101.5 -362t101 -362.5t275 -134.5q205 0 266.5 106t73.5 170
h294q-26 -241 -197.5 -383.5t-449.5 -142.5q-146 0 -272 51t-262.5 199z" />
    <glyph glyph-name="ccaron" unicode="&#x10d;" horiz-adv-x="1142" 
d="M595 890q-108 0 -174.5 -90t-66.5 -249q0 -246 94.5 -292.5t169.5 -46.5t133 48.5t72 139.5h272q-12 -192 -147 -305.5t-367 -113.5t-377.5 153t-145.5 415t146 416.5t377 154.5q232 0 367.5 -118.5t145.5 -306.5h-272q-19 136 -97 165.5t-130 29.5zM472 1253l-266 318
h224l148 -188h7l149 188h223l-266 -318h-219z" />
    <glyph glyph-name="Dcaron" unicode="&#x10e;" horiz-adv-x="1438" 
d="M422 250h218q204 0 310 120.5t106 355.5q0 344 -158 406t-258 62h-218v-944zM676 1443q326 0 507 -187t181 -530t-181.5 -534.5t-506.5 -191.5h-556v1443h556zM256 1861h222l163 -197h6l163 197h222l-274 -318h-228z" />
    <glyph glyph-name="dcaron" unicode="&#x10f;" horiz-adv-x="1449" 
d="M577.5 878q-85.5 0 -153 -89t-67.5 -239q0 -151 67.5 -239t181.5 -88t181.5 89t67.5 278.5t-96 238.5t-181.5 49zM149 179.5q-91 113.5 -91 371.5q0 259 123 411t329 152q120 0 207.5 -54.5t129.5 -146.5h6v599h292v-1512h-288v188h-5q-89 -201 -364 -201
q-82 0 -165 39.5t-174 153zM1297 1004v503h217l-40 -503h-177z" />
    <glyph glyph-name="Dcroat" unicode="&#x110;" horiz-adv-x="1517" 
d="M729 1443q326 0 507 -187t181 -530t-181.5 -534.5t-506.5 -191.5h-556v622h-88v221h88v600h556zM693 250q204 0 310 120.5t106 355.5q0 344 -158 406t-258 62h-218v-351h265v-221h-265v-372h218z" />
    <glyph glyph-name="dcroat" unicode="&#x111;" horiz-adv-x="1295" 
d="M1260 1262h-94v-1262h-287v173h-18q-45 -90 -132 -140.5t-197 -50.5t-192.5 39.5t-140 113t-88.5 179.5t-31 303t120.5 349.5t328.5 152.5q114 0 200 -51.5t129 -142.5h17v337h-223v150h223v144h291v-144h94v-150zM628 218q58 0 104.5 23t79 66t49.5 104.5t17 138.5
t-17.5 138.5t-49.5 105t-78.5 66.5t-104.5 23t-104 -23t-78.5 -65.5t-49.5 -104t-17 -139.5t17 -140t49 -105t78.5 -65.5t104.5 -22.5z" />
    <glyph glyph-name="Emacron" unicode="&#x112;" horiz-adv-x="1174" 
d="M944 1624h-692v143h692v-143zM1076 0h-956v1443h956v-249h-654v-348h617v-232h-617v-364h654v-250z" />
    <glyph glyph-name="emacron" unicode="&#x113;" horiz-adv-x="1164" 
d="M921 1298h-669v143h669v-143zM201.5 964.5q143.5 155.5 383.5 155.5t380.5 -148t140.5 -399v-90h-760v-18q0 -119 70 -192.5t170 -73.5q197 0 242 137h269q-24 -159 -160.5 -257t-351.5 -98q-239 0 -383 151.5t-144 414t143.5 418zM423.5 835.5q-66.5 -66.5 -74.5 -171.5
h475q-4 107 -68 172.5t-165 65.5t-167.5 -66.5z" />
    <glyph glyph-name="Ebreve" unicode="&#x114;" horiz-adv-x="1174" 
d="M617 1688q58 0 106 48t50 124h178q-2 -138 -97.5 -227.5t-255.5 -89.5t-255.5 89.5t-97.5 227.5h178q3 -118 69.5 -145t124.5 -27zM1076 0h-956v1443h956v-249h-654v-348h617v-232h-617v-364h654v-250z" />
    <glyph glyph-name="ebreve" unicode="&#x115;" horiz-adv-x="1164" 
d="M603.5 1395q58.5 0 108.5 48.5t52 126.5h180q-2 -140 -99 -231t-260 -91t-259.5 91t-98.5 231h179q3 -119 71 -147t126.5 -28zM201.5 964.5q143.5 155.5 383.5 155.5t380.5 -148t140.5 -399v-90h-760v-18q0 -119 70 -192.5t170 -73.5q197 0 242 137h269
q-24 -159 -160.5 -257t-351.5 -98q-239 0 -383 151.5t-144 414t143.5 418zM423.5 835.5q-66.5 -66.5 -74.5 -171.5h475q-4 107 -68 172.5t-165 65.5t-167.5 -66.5z" />
    <glyph glyph-name="Edotaccent" unicode="&#x116;" horiz-adv-x="1174" 
d="M1076 0h-956v1443h956v-249h-654v-348h617v-232h-617v-364h654v-250zM598 1561q-32 0 -59 11.5t-47 32t-31.5 47.5t-11.5 73.5t43 89.5t90 43t74.5 -11.5t47.5 -31.5t31.5 -47t11.5 -58t-11.5 -58t-31.5 -47.5t-47 -32t-59 -11.5z" />
    <glyph glyph-name="edotaccent" unicode="&#x117;" horiz-adv-x="1164" 
d="M201.5 964.5q143.5 155.5 383.5 155.5t380.5 -148t140.5 -399v-90h-760v-18q0 -119 70 -192.5t170 -73.5q197 0 242 137h269q-24 -159 -160.5 -257t-351.5 -98q-239 0 -383 151.5t-144 414t143.5 418zM423.5 835.5q-66.5 -66.5 -74.5 -171.5h475q-4 107 -68 172.5
t-165 65.5t-167.5 -66.5zM478 1516q44 44 91 44q77 0 121.5 -43t44.5 -105t-43.5 -105.5t-107.5 -43.5t-107 44.5t-43 104.5t44 104z" />
    <glyph glyph-name="Eogonek" unicode="&#x118;" horiz-adv-x="1174" 
d="M685 -237q0 144 145 237h-710v1443h956v-249h-654v-348h617v-232h-617v-364h654v-221q-189 -86 -189 -213q0 -46 31.5 -74t81.5 -28t76 8v-154q-46 -21 -121 -21q-132 0 -201 59t-69 157z" />
    <glyph glyph-name="eogonek" unicode="&#x119;" horiz-adv-x="1164" 
d="M423.5 835.5q-66.5 -66.5 -74.5 -171.5h475q-4 107 -68 172.5t-165 65.5t-167.5 -66.5zM514 -243q0 129 122 224v2q-7 -2 -10 -2h-28q-252 0 -396 151.5t-144 414t143.5 418t383.5 155.5t380.5 -148t140.5 -399v-90h-760v-18q0 -119 70 -192.5t171 -73.5q196 0 241 137
h269q-16 -123 -93 -195t-117 -103q-90 -70 -133 -119.5t-43 -98.5t31.5 -77t77.5 -28t78 9v-158q-46 -22 -120 -22q-128 0 -196 58.5t-68 154.5z" />
    <glyph glyph-name="Ecaron" unicode="&#x11a;" horiz-adv-x="1174" 
d="M1076 0h-956v1443h956v-249h-654v-348h617v-232h-617v-364h654v-250zM210 1861h222l163 -197h6l163 197h222l-274 -318h-228z" />
    <glyph glyph-name="ecaron" unicode="&#x11b;" horiz-adv-x="1164" 
d="M201.5 964.5q143.5 155.5 383.5 155.5t380.5 -148t140.5 -399v-90h-760v-18q0 -119 70 -192.5t170 -73.5q197 0 242 137h269q-24 -159 -160.5 -257t-351.5 -98q-239 0 -383 151.5t-144 414t143.5 418zM423.5 835.5q-66.5 -66.5 -74.5 -171.5h475q-4 107 -68 172.5
t-165 65.5t-167.5 -66.5zM476 1253l-266 318h224l148 -188h7l149 188h223l-266 -318h-219z" />
    <glyph glyph-name="Gcircumflex" unicode="&#x11c;" horiz-adv-x="1489" 
d="M1094 977q-72 241 -344 241q-75 0 -146 -33t-146 -129.5t-75 -327.5t105.5 -366.5t286.5 -135.5q149 0 242.5 83t97.5 217l1 23h-314v220h608v-163q0 -295 -170 -463t-482 -168q-311 0 -497 199.5t-186 547.5t184.5 547t503.5 199q253 0 427.5 -136.5t206.5 -354.5h-303z
M865 1861l274 -318h-222l-163 197h-6l-163 -197h-222l274 318h228z" />
    <glyph glyph-name="gcircumflex" unicode="&#x11d;" horiz-adv-x="1244" 
d="M847 200q-87 -193 -361 -193q-80 0 -163 38t-174 147.5t-91 365.5t122 406t316 150t264 -77.5t92 -123.5h5v188h288v-1076q0 -197 -148 -312.5t-388 -115.5q-226 0 -364.5 88.5t-150.5 236.5h288q21 -83 102 -101t130 -18q105 0 172 53.5t67 146.5v197h-6zM604 233
q57 0 103 22t79 63.5t50.5 100.5t17.5 133t-17.5 134.5t-50.5 103t-79 65.5t-103 23t-102.5 -23t-77.5 -65t-49.5 -102t-17.5 -135t17 -134.5t49.5 -100.5t78 -63t102.5 -22zM984 1253h-223l-149 189h-7l-148 -189h-224l266 318h219z" />
    <glyph glyph-name="Gbreve" unicode="&#x11e;" horiz-adv-x="1489" 
d="M770 1688q58 0 106 48t50 124h178q-2 -138 -97.5 -227.5t-255.5 -89.5t-255.5 89.5t-97.5 227.5h178q3 -118 69.5 -145t124.5 -27zM1094 977q-72 241 -344 241q-75 0 -146 -33t-146 -129.5t-75 -327.5t105.5 -366.5t286.5 -135.5q149 0 242.5 83t97.5 217l1 23h-314v220
h608v-163q0 -295 -170 -463t-482 -168q-311 0 -497 199.5t-186 547.5t184.5 547t503.5 199q253 0 427.5 -136.5t206.5 -354.5h-303z" />
    <glyph glyph-name="gbreve" unicode="&#x11f;" horiz-adv-x="1244" 
d="M847 200q-87 -193 -361 -193q-80 0 -163 38t-174 147.5t-91 365.5t122 406t316 150t264 -77.5t92 -123.5h5v188h288v-1076q0 -197 -148 -312.5t-388 -115.5q-226 0 -364.5 88.5t-150.5 236.5h288q21 -83 102 -101t130 -18q105 0 172 53.5t67 146.5v197h-6zM604 233
q57 0 103 22t79 63.5t50.5 100.5t17.5 133t-17.5 134.5t-50.5 103t-79 65.5t-103 23t-102.5 -23t-77.5 -65t-49.5 -102t-17.5 -135t17 -134.5t49.5 -100.5t78 -63t102.5 -22zM626.5 1395q58.5 0 108.5 48.5t52 126.5h180q-2 -140 -99 -231t-260 -91t-259.5 91t-98.5 231h179
q3 -119 71 -147t126.5 -28z" />
    <glyph glyph-name="Gdotaccent" unicode="&#x120;" horiz-adv-x="1489" 
d="M1094 977q-72 241 -344 241q-75 0 -146 -33t-146 -129.5t-75 -327.5t105.5 -366.5t286.5 -135.5q149 0 242.5 83t97.5 217l1 23h-314v220h608v-163q0 -295 -170 -463t-482 -168q-311 0 -497 199.5t-186 547.5t184.5 547t503.5 199q253 0 427.5 -136.5t206.5 -354.5h-303z
M750 1561q-32 0 -58.5 11.5t-46.5 32t-31.5 47.5t-11.5 73.5t43 89.5t90 43t74.5 -11.5t47.5 -31.5t31.5 -47t11.5 -58t-11.5 -58t-31.5 -47.5t-47.5 -32t-59.5 -11.5z" />
    <glyph glyph-name="gdotaccent" unicode="&#x121;" horiz-adv-x="1244" 
d="M847 200q-87 -193 -361 -193q-80 0 -163 38t-174 147.5t-91 365.5t122 406t316 150t264 -77.5t92 -123.5h5v188h288v-1076q0 -197 -148 -312.5t-388 -115.5q-226 0 -364.5 88.5t-150.5 236.5h288q21 -83 102 -101t130 -18q105 0 172 53.5t67 146.5v197h-6zM604 233
q57 0 103 22t79 63.5t50.5 100.5t17.5 133t-17.5 134.5t-50.5 103t-79 65.5t-103 23t-102.5 -23t-77.5 -65t-49.5 -102t-17.5 -135t17 -134.5t49.5 -100.5t78 -63t102.5 -22zM501 1516q44 44 91 44q77 0 121.5 -43t44.5 -105t-43.5 -105.5t-107.5 -43.5t-107 44.5t-43 104.5
t44 104z" />
    <glyph glyph-name="Gcommaaccent" unicode="&#x122;" horiz-adv-x="1489" 
d="M1094 977q-72 241 -344 241q-75 0 -146 -33t-146 -129.5t-75 -327.5t105.5 -366.5t286.5 -135.5q149 0 242.5 83t97.5 217l1 23h-314v220h608v-163q0 -295 -170 -463t-482 -168q-311 0 -497 199.5t-186 547.5t184.5 547t503.5 199q253 0 427.5 -136.5t206.5 -354.5h-303z
M512 -500l121 345h256l-160 -345h-217z" />
    <glyph glyph-name="gcommaaccent" unicode="&#x123;" horiz-adv-x="1244" 
d="M847 200q-87 -193 -361 -193q-80 0 -163 38t-174 147.5t-91 365.5t122 406t316 150t264 -77.5t92 -123.5h5v188h288v-1076q0 -197 -148 -312.5t-388 -115.5q-226 0 -364.5 88.5t-150.5 236.5h288q21 -83 102 -101t130 -18q105 0 172 53.5t67 146.5v197h-6zM604 233
q57 0 103 22t79 63.5t50.5 100.5t17.5 133t-17.5 134.5t-50.5 103t-79 65.5t-103 23t-102.5 -23t-77.5 -65t-49.5 -102t-17.5 -135t17 -134.5t49.5 -100.5t78 -63t102.5 -22zM371 -882l121 345h256l-160 -345h-217z" />
    <glyph glyph-name="Hcircumflex" unicode="&#x124;" horiz-adv-x="1494" 
d="M861 1861l274 -318h-222l-163 197h-6l-163 -197h-222l274 318h228zM1072 0v608h-650v-608h-302v1443h302v-586h650v586h302v-1443h-302z" />
    <glyph glyph-name="hcircumflex" unicode="&#x125;" horiz-adv-x="1247" 
d="M366 1930l274 -318h-222l-163 197h-6l-163 -197h-222l274 318h228zM756 1117q183 0 290 -110.5t107 -302.5v-704h-292v643q0 109 -59 170t-165 61t-172 -69.5t-66 -179.5v-625h-292v1512h287v-608h6q95 213 356 213z" />
    <glyph glyph-name="Hbar" unicode="&#x126;" horiz-adv-x="1536" 
d="M1501 1052h-106v-1052h-302v608h-650v-608h-302v1052h-105v211h105v180h302v-180h650v180h302v-180h106v-211zM1093 1052h-650v-195h650v195z" />
    <glyph glyph-name="hbar" unicode="&#x127;" horiz-adv-x="1291" 
d="M762 1117q197 0 305 -110t108 -303v-704h-292v643q0 167 -86 199.5t-138 32.5q-105 0 -172 -69t-67 -181v-625h-292v1242h-90v150h90v165h287v-165h231v-150h-231v-323h12q44 95 136.5 146.5t198.5 51.5z" />
    <glyph glyph-name="Itilde" unicode="&#x128;" horiz-adv-x="542" 
d="M402 1694q63 0 65 122h158q0 -125 -60.5 -200t-148.5 -75t-157.5 68t-105.5 68q-67 0 -69 -119h-158q0 124 59.5 197.5t147.5 73.5t141 -46.5t77 -67.5t51 -21zM120 0v1443h302v-1443h-302z" />
    <glyph glyph-name="itilde" unicode="&#x129;" horiz-adv-x="500" 
d="M383 1411q63 0 65 122h158q0 -125 -60.5 -200t-148.5 -75t-157.5 68t-105.5 68q-67 0 -69 -119h-158q0 124 59.5 197.5t147.5 73.5t141 -46.5t77 -67.5t51 -21zM104 1101h292v-1101h-292v1101z" />
    <glyph glyph-name="Imacron" unicode="&#x12a;" horiz-adv-x="542" 
d="M617 1624h-692v143h692v-143zM120 0v1443h302v-1443h-302z" />
    <glyph glyph-name="imacron" unicode="&#x12b;" horiz-adv-x="500" 
d="M585 1298h-669v143h669v-143zM104 1101h292v-1101h-292v1101z" />
    <glyph glyph-name="Ibreve" unicode="&#x12c;" horiz-adv-x="542" 
d="M290 1688q58 0 106 48t50 124h178q-2 -138 -97.5 -227.5t-255.5 -89.5t-255.5 89.5t-97.5 227.5h178q3 -118 69.5 -145t124.5 -27zM120 0v1443h302v-1443h-302z" />
    <glyph glyph-name="ibreve" unicode="&#x12d;" horiz-adv-x="500" 
d="M267.5 1395q58.5 0 108.5 48.5t52 126.5h180q-2 -140 -99 -231t-260 -91t-259.5 91t-98.5 231h179q3 -119 71 -147t126.5 -28zM104 1101h292v-1101h-292v1101z" />
    <glyph glyph-name="Iogonek" unicode="&#x12e;" horiz-adv-x="542" 
d="M323 -286q37 0 72 5v-155q-51 -17 -114 -17q-118 0 -187 61.5t-69 149.5t36.5 146t117.5 108h-59v1431h302v-1436h-54q-146 -74 -146 -184q0 -50 32 -79.5t69 -29.5z" />
    <glyph glyph-name="iogonek" unicode="&#x12f;" horiz-adv-x="500" 
d="M329 -286q43 0 66 5v-155q-49 -17 -113 -17q-119 0 -188 61.5t-69 159.5q0 153 156 244h-77v1089h292v-1091h-29q-145 -73 -145 -187q0 -50 32 -79.5t75 -29.5zM250 1221q-32 0 -60.5 11.5t-50 32t-34 48.5t-12.5 76.5t46 92.5t95 44t77.5 -11.5t50 -32t34 -48
t12.5 -60.5t-12.5 -61t-34 -48.5t-50.5 -32t-61 -11.5z" />
    <glyph glyph-name="Idotaccent" unicode="&#x130;" horiz-adv-x="542" 
d="M270 1561q-32 0 -58.5 11.5t-46.5 32t-31.5 47.5t-11.5 73.5t43 89.5t90 43t74.5 -11.5t47.5 -31.5t31.5 -47t11.5 -58t-11.5 -58t-31.5 -47.5t-47.5 -32t-59.5 -11.5zM120 0v1443h302v-1443h-302z" />
    <glyph glyph-name="dotlessi" unicode="&#x131;" horiz-adv-x="500" 
d="M104 1101h292v-1101h-292v1101z" />
    <glyph glyph-name="u0132" unicode="&#x132;" horiz-adv-x="1685" 
d="M1058 231q95 0 144.5 57t49.5 166v989h302v-991q0 -230 -130 -356t-357 -126t-360.5 124t-133.5 331h293q3 -136 76 -165t116 -29zM120 0v1443h302v-1443h-302z" />
    <glyph glyph-name="u0133" unicode="&#x133;" horiz-adv-x="1000" 
d="M750 1221q-32 0 -60.5 11.5t-50 32t-34 48.5t-12.5 76.5t46 92.5t95 44t77.5 -11.5t50 -32t34 -48t12.5 -60.5t-12.5 -61t-34 -48.5t-50.5 -32t-61 -11.5zM505 -376h-33q-33 0 -45 3v216q5 -1 8 -1h29q76 0 108 29.5t32 98.5v1131h292v-1138q0 -339 -391 -339zM250 1221
q-32 0 -60.5 11.5t-50 32t-34 48.5t-12.5 76.5t46 92.5t95 44t77.5 -11.5t50 -32t34 -48t12.5 -60.5t-12.5 -61t-34 -48.5t-50.5 -32t-61 -11.5zM104 1101h292v-1101h-292v1101z" />
    <glyph glyph-name="Jcircumflex" unicode="&#x134;" horiz-adv-x="1143" 
d="M979 1861l274 -318h-222l-163 197h-6l-163 -197h-222l274 318h228zM516 231q95 0 144.5 57t49.5 166v989h302v-991q0 -230 -130 -356t-357 -126t-360.5 124t-133.5 331h293q3 -136 76 -165t116 -29z" />
    <glyph glyph-name="jcircumflex" unicode="&#x135;" horiz-adv-x="499" 
d="M625 1253h-223l-149 189h-7l-148 -189h-224l266 318h219zM5 -376h-33q-33 0 -45 3v216q5 -1 8 -1h28q77 0 109 29.5t32 98.5v1131h291v-1138q0 -339 -390 -339z" />
    <glyph glyph-name="Kcommaaccent" unicode="&#x136;" horiz-adv-x="1353" 
d="M427 -500l121 345h256l-160 -345h-217zM120 0v1443h302v-658h9l542 658h336l-534 -640l571 -803h-361l-428 603l-135 -162v-441h-302z" />
    <glyph glyph-name="kcommaaccent" unicode="&#x137;" horiz-adv-x="1126" 
d="M346 -500l121 345h256l-160 -345h-217zM399 0h-292v1512h292v-856h4l381 445h332l-424 -473l444 -628h-336l-322 452l-79 -85v-367z" />
    <glyph glyph-name="Lacute" unicode="&#x139;" horiz-adv-x="1112" 
d="M1053 0h-933v1443h302v-1193h631v-250zM152 1553l232 310h273l-277 -310h-228z" />
    <glyph glyph-name="lacute" unicode="&#x13a;" horiz-adv-x="505" 
d="M107 1512h292v-1512h-292v1512zM134 1622l232 310h273l-277 -310h-228z" />
    <glyph glyph-name="Lcommaaccent" unicode="&#x13b;" horiz-adv-x="1112" 
d="M1053 0h-933v1443h302v-1193h631v-250zM338 -500l121 345h256l-160 -345h-217z" />
    <glyph glyph-name="lcommaaccent" unicode="&#x13c;" horiz-adv-x="505" 
d="M107 1512h292v-1512h-292v1512zM14 -500l121 345h256l-160 -345h-217z" />
    <glyph glyph-name="Lcaron" unicode="&#x13d;" horiz-adv-x="1112" 
d="M1053 0h-933v1443h302v-1193h631v-250zM675 940v503h246l-50 -503h-196z" />
    <glyph glyph-name="lcaron" unicode="&#x13e;" horiz-adv-x="714" 
d="M107 1512h292v-1512h-292v1512zM552 1004v503h216l-40 -503h-176z" />
    <glyph glyph-name="Lslash" unicode="&#x141;" horiz-adv-x="1128" 
d="M1069 250v-250h-933v638l-97 -49v199l97 49v606h302v-454l293 148v-200l-293 -147v-540h631z" />
    <glyph glyph-name="lslash" unicode="&#x142;" horiz-adv-x="549" 
d="M399 0h-292v658l-99 -52v200l99 51v655h292v-503l138 72v-199l-138 -72v-810z" />
    <glyph glyph-name="Nacute" unicode="&#x143;" horiz-adv-x="1463" 
d="M120 0v1443h252l674 -940h8v940h289v-1443h-250l-675 945h-9v-945h-289zM613 1553l232 310h273l-277 -310h-228z" />
    <glyph glyph-name="nacute" unicode="&#x144;" horiz-adv-x="1227" 
d="M741 1117q184 0 288 -109.5t104 -301.5v-706h-292v645q0 110 -56 169.5t-161 59.5t-169 -68.5t-64 -177.5v-628h-292v1101h282v-197h6q97 213 354 213zM496 1263l221 310h273l-263 -310h-231z" />
    <glyph glyph-name="Ncommaaccent" unicode="&#x145;" horiz-adv-x="1463" 
d="M120 0v1443h252l674 -940h8v940h289v-1443h-250l-675 945h-9v-945h-289zM493 -500l121 345h256l-160 -345h-217z" />
    <glyph glyph-name="ncommaaccent" unicode="&#x146;" horiz-adv-x="1227" 
d="M741 1117q184 0 288 -109.5t104 -301.5v-706h-292v645q0 110 -56 169.5t-161 59.5t-169 -68.5t-64 -177.5v-628h-292v1101h282v-197h6q97 213 354 213zM376 -500l121 345h256l-160 -345h-217z" />
    <glyph glyph-name="Ncaron" unicode="&#x147;" horiz-adv-x="1463" 
d="M120 0v1443h252l674 -940h8v940h289v-1443h-250l-675 945h-9v-945h-289zM344 1861h222l163 -197h6l163 197h222l-274 -318h-228z" />
    <glyph glyph-name="ncaron" unicode="&#x148;" horiz-adv-x="1227" 
d="M741 1117q184 0 288 -109.5t104 -301.5v-706h-292v645q0 110 -56 169.5t-161 59.5t-169 -68.5t-64 -177.5v-628h-292v1101h282v-197h6q97 213 354 213zM505 1253l-266 318h224l148 -188h7l149 188h223l-266 -318h-219z" />
    <glyph glyph-name="Omacron" unicode="&#x14c;" horiz-adv-x="1541" 
d="M1117 1624h-692v143h692v-143zM383 721q0 -227 105 -360t283 -133t282.5 133.5t104.5 359.5t-104 360.5t-284 134.5q-177 0 -282 -134t-105 -361zM1279.5 1267q187.5 -201 187.5 -545.5t-187.5 -545.5t-508.5 -201t-508.5 201t-187.5 545.5t187.5 545.5t508.5 201
t508.5 -201z" />
    <glyph glyph-name="omacron" unicode="&#x14d;" horiz-adv-x="1201" 
d="M601 206q116 0 181 90t65 255q0 248 -94.5 296.5t-152.5 48.5q-115 0 -180.5 -91.5t-65.5 -255.5q0 -163 65.5 -253t181.5 -90zM58 549q0 264 147 417.5t396 153.5t396 -152.5t147 -417.5t-146 -417t-397 -152t-397 152t-146 416zM936 1298h-669v143h669v-143z" />
    <glyph glyph-name="Obreve" unicode="&#x14e;" horiz-adv-x="1541" 
d="M790 1688q58 0 106 48t50 124h178q-2 -138 -97.5 -227.5t-255.5 -89.5t-255.5 89.5t-97.5 227.5h178q3 -118 69.5 -145t124.5 -27zM383 721q0 -227 105 -360t283 -133t282.5 133.5t104.5 359.5t-104 360.5t-284 134.5q-177 0 -282 -134t-105 -361zM1279.5 1267
q187.5 -201 187.5 -545.5t-187.5 -545.5t-508.5 -201t-508.5 201t-187.5 545.5t187.5 545.5t508.5 201t508.5 -201z" />
    <glyph glyph-name="obreve" unicode="&#x14f;" horiz-adv-x="1201" 
d="M601 206q116 0 181 90t65 255q0 248 -94.5 296.5t-152.5 48.5q-115 0 -180.5 -91.5t-65.5 -255.5q0 -163 65.5 -253t181.5 -90zM58 549q0 264 147 417.5t396 153.5t396 -152.5t147 -417.5t-146 -417t-397 -152t-397 152t-146 416zM618.5 1395q58.5 0 108.5 48.5t52 126.5
h180q-2 -140 -99 -231t-260 -91t-259.5 91t-98.5 231h179q3 -119 71 -147t126.5 -28z" />
    <glyph glyph-name="Ohungarumlaut" unicode="&#x150;" horiz-adv-x="1541" 
d="M383 721q0 -227 105 -360t283 -133t282.5 133.5t104.5 359.5t-104 360.5t-284 134.5q-177 0 -282 -134t-105 -361zM1279.5 1267q187.5 -201 187.5 -545.5t-187.5 -545.5t-508.5 -201t-508.5 201t-187.5 545.5t187.5 545.5t508.5 201t508.5 -201zM459 1553l231 310h269
l-278 -310h-222zM854 1553l232 310h268l-278 -310h-222z" />
    <glyph glyph-name="ohungarumlaut" unicode="&#x151;" horiz-adv-x="1201" 
d="M601 206q116 0 181 90t65 255q0 248 -94.5 296.5t-152.5 48.5q-115 0 -180.5 -91.5t-65.5 -255.5q0 -163 65.5 -253t181.5 -90zM58 549q0 264 147 417.5t396 153.5t396 -152.5t147 -417.5t-146 -417t-397 -152t-397 152t-146 416zM495 1573h251l-233 -310h-208zM865 1573
h252l-233 -310h-208z" />
    <glyph glyph-name="OE" unicode="&#x152;" horiz-adv-x="2216" 
d="M80 721q0 337 181 545.5t474 208.5q243 0 339.5 -103.5t128.5 -167.5v239h916v-249h-644v-348h606v-232h-606v-364h644v-250h-916v236q-54 -120 -182.5 -194t-289.5 -74q-290 0 -470.5 207.5t-180.5 545.5zM494 1084q-106 -135 -106 -363t106 -362t285 -134t285 134.5
t106 361.5t-106.5 362.5t-285 135.5t-284.5 -135z" />
    <glyph glyph-name="oe" unicode="&#x153;" horiz-adv-x="1944" 
d="M347 549q0 -160 65 -248.5t180 -88.5t179.5 89.5t64.5 248.5t-65 249.5t-179.5 90.5t-179.5 -90.5t-65 -250.5zM1209.5 836.5q-66.5 -66.5 -72.5 -172.5h465q-4 108 -66 173.5t-161 65.5t-165.5 -66.5zM1000 923q120 197 414 197q88 0 179.5 -39t192.5 -149.5t101 -358.5
v-90h-750v-27q0 -116 70.5 -186.5t168.5 -70.5q194 0 233 127h269q-24 -153 -157.5 -249t-319.5 -96q-134 0 -239 51.5t-162 144.5h-14q-133 -196 -386 -196t-397.5 154t-144.5 413q0 260 144.5 416t397.5 156t386 -197h14z" />
    <glyph glyph-name="Racute" unicode="&#x154;" horiz-adv-x="1316" 
d="M422 0h-302v1443h596q247 0 384.5 -123t137.5 -338t-100 -300t-162 -109l304 -573h-342l-269 528h-247v-528zM422 747h265q115 0 178 61t63 167t-66 169t-178 63h-262v-460zM497 1553l232 310h273l-277 -310h-228z" />
    <glyph glyph-name="racute" unicode="&#x155;" horiz-adv-x="759" 
d="M626 862q-112 0 -173.5 -65t-61.5 -181v-616h-292v1101h282v-197h6q28 103 96 156.5t166 53.5q47 0 82 -11v-259q-40 18 -105 18zM284 1263l221 310h273l-263 -310h-231z" />
    <glyph glyph-name="Rcommaaccent" unicode="&#x156;" horiz-adv-x="1316" 
d="M377 -500l121 345h256l-160 -345h-217zM422 0h-302v1443h596q247 0 384.5 -123t137.5 -338t-100 -300t-162 -109l304 -573h-342l-269 528h-247v-528zM422 747h265q115 0 178 61t63 167t-66 169t-178 63h-262v-460z" />
    <glyph glyph-name="rcommaaccent" unicode="&#x157;" horiz-adv-x="759" 
d="M8 -500l121 345h256l-160 -345h-217zM626 862q-112 0 -173.5 -65t-61.5 -181v-616h-292v1101h282v-197h6q28 103 96 156.5t166 53.5q47 0 82 -11v-259q-40 18 -105 18z" />
    <glyph glyph-name="Rcaron" unicode="&#x158;" horiz-adv-x="1316" 
d="M228 1861h222l163 -197h6l163 197h222l-274 -318h-228zM422 0h-302v1443h596q247 0 384.5 -123t137.5 -338t-100 -300t-162 -109l304 -573h-342l-269 528h-247v-528zM422 747h265q115 0 178 61t63 167t-66 169t-178 63h-262v-460z" />
    <glyph glyph-name="rcaron" unicode="&#x159;" horiz-adv-x="759" 
d="M626 862q-112 0 -173.5 -65t-61.5 -181v-616h-292v1101h282v-197h6q28 103 96 156.5t166 53.5q47 0 82 -11v-259q-40 18 -105 18zM293 1253l-266 318h224l148 -188h7l149 188h223l-266 -318h-219z" />
    <glyph glyph-name="Sacute" unicode="&#x15a;" horiz-adv-x="1293" 
d="M850.5 265.5q75.5 51.5 75.5 126.5t-56.5 118t-186.5 72l-188 41q-397 85 -397 403q0 198 154.5 320t401.5 122t395.5 -118.5t152.5 -315.5h-283q-8 90 -80.5 143t-185.5 53t-182 -48.5t-69 -122.5t55.5 -115t180.5 -69l175 -37q321 -68 368 -196t47 -222t-41 -178
t-158 -175.5t-382 -91.5t-420 117t-161 319h291q10 -87 93.5 -142t204 -55t196 51.5zM535 1553l232 310h273l-277 -310h-228z" />
    <glyph glyph-name="sacute" unicode="&#x15b;" horiz-adv-x="1078" 
d="M424 1263l221 310h273l-263 -310h-231zM80 777q0 154 125.5 248.5t332.5 94.5t331.5 -95.5t128.5 -253.5h-270q-5 66 -55.5 104t-132.5 38t-130 -32t-48 -86q0 -81 147 -115l207 -45q244 -56 276.5 -147.5t32.5 -161.5t-35.5 -135.5t-134 -137.5t-315.5 -72t-346 96
t-141 256h285q11 -70 64.5 -107.5t143.5 -37.5t139.5 32t49.5 80t-31.5 73t-106.5 43l-203 46q-314 70 -314 315z" />
    <glyph glyph-name="Scircumflex" unicode="&#x15c;" horiz-adv-x="1293" 
d="M768 1861l274 -318h-222l-163 197h-6l-163 -197h-222l274 318h228zM850.5 265.5q75.5 51.5 75.5 126.5t-56.5 118t-186.5 72l-188 41q-397 85 -397 403q0 198 154.5 320t401.5 122t395.5 -118.5t152.5 -315.5h-283q-8 90 -80.5 143t-185.5 53t-182 -48.5t-69 -122.5
t55.5 -115t180.5 -69l175 -37q321 -68 368 -196t47 -222t-41 -178t-158 -175.5t-382 -91.5t-420 117t-161 319h291q10 -87 93.5 -142t204 -55t196 51.5z" />
    <glyph glyph-name="scircumflex" unicode="&#x15d;" horiz-adv-x="1078" 
d="M80 777q0 154 125.5 248.5t332.5 94.5t331.5 -95.5t128.5 -253.5h-270q-5 66 -55.5 104t-132.5 38t-130 -32t-48 -86q0 -81 147 -115l207 -45q244 -56 276.5 -147.5t32.5 -161.5t-35.5 -135.5t-134 -137.5t-315.5 -72t-346 96t-141 256h285q11 -70 64.5 -107.5
t143.5 -37.5t139.5 32t49.5 80t-31.5 73t-106.5 43l-203 46q-314 70 -314 315zM918 1253h-223l-149 189h-7l-148 -189h-224l266 318h219z" />
    <glyph glyph-name="Scedilla" unicode="&#x15e;" horiz-adv-x="1293" 
d="M604 -339q107 0 107 55q0 31 -28.5 43.5t-96.5 12.5h-56v101l47 104q-231 14 -368 129.5t-143 304.5h291q10 -87 93.5 -142t204 -55t196 51.5t75.5 126.5t-56.5 118t-186.5 72l-188 41q-397 85 -397 403q0 198 154.5 320t401.5 122t395.5 -118.5t152.5 -315.5h-283
q-8 90 -80.5 143t-185.5 53t-182 -48.5t-69 -122.5t55.5 -115t180.5 -69l175 -37q321 -68 368 -196t47 -217q0 -186 -133.5 -306t-365.5 -140l-40 -95q88 0 136.5 -41t48.5 -123t-63.5 -131t-163.5 -49t-154 15v120q40 -14 111 -14z" />
    <glyph glyph-name="scedilla" unicode="&#x15f;" horiz-adv-x="1078" 
d="M495 -339q107 0 107 55q0 31 -28.5 43.5t-96.5 12.5h-56v101l50 111q-184 14 -296 108t-122 241h285q11 -70 64.5 -107.5t143.5 -37.5t139.5 32t49.5 80t-31.5 73t-106.5 43l-203 46q-314 70 -314 315q0 154 125.5 248.5t332.5 94.5t331.5 -95.5t128.5 -253.5h-270
q-5 66 -55.5 104t-132.5 38t-130 -32t-48 -86q0 -81 147 -115l207 -45q244 -56 276.5 -147.5t32.5 -157.5q0 -137 -109.5 -232t-292.5 -113l-43 -101q88 0 136.5 -41t48.5 -123t-63.5 -131t-163.5 -49t-154 15v120q40 -14 111 -14z" />
    <glyph glyph-name="Scaron" unicode="&#x160;" horiz-adv-x="1293" 
d="M266 1861h222l163 -197h6l163 197h222l-274 -318h-228zM850.5 265.5q75.5 51.5 75.5 126.5t-56.5 118t-186.5 72l-188 41q-397 85 -397 403q0 198 154.5 320t401.5 122t395.5 -118.5t152.5 -315.5h-283q-8 90 -80.5 143t-185.5 53t-182 -48.5t-69 -122.5t55.5 -115
t180.5 -69l175 -37q321 -68 368 -196t47 -222t-41 -178t-158 -175.5t-382 -91.5t-420 117t-161 319h291q10 -87 93.5 -142t204 -55t196 51.5z" />
    <glyph glyph-name="scaron" unicode="&#x161;" horiz-adv-x="1078" 
d="M80 777q0 154 125.5 248.5t332.5 94.5t331.5 -95.5t128.5 -253.5h-270q-5 66 -55.5 104t-132.5 38t-130 -32t-48 -86q0 -81 147 -115l207 -45q244 -56 276.5 -147.5t32.5 -161.5t-35.5 -135.5t-134 -137.5t-315.5 -72t-346 96t-141 256h285q11 -70 64.5 -107.5
t143.5 -37.5t139.5 32t49.5 80t-31.5 73t-106.5 43l-203 46q-314 70 -314 315zM433 1253l-266 318h224l148 -188h7l149 188h223l-266 -318h-219z" />
    <glyph glyph-name="Tcedilla" unicode="&#x162;" horiz-adv-x="1242" 
d="M579 -339q107 0 107 55q0 31 -28.5 43.5t-96.5 12.5h-56v101l58 127h-93v1194h-422v249h1147v-249h-423v-1194h-59l-49 -116q88 0 136.5 -41t48.5 -123t-63.5 -131t-163.5 -49t-154 15v120q40 -14 111 -14z" />
    <glyph glyph-name="tcedilla" unicode="&#x163;" horiz-adv-x="741" 
d="M392 -339q107 0 107 55q0 31 -28.5 43.5t-96.5 12.5h-56v101l62 137q-108 24 -155.5 93t-47.5 194v583h-149v221h149v245h292v-245h204v-221h-204v-535q0 -126 131 -126q38 0 73 5v-216q-55 -12 -141 -12h-8l-47 -112q88 0 136.5 -41t48.5 -123t-63.5 -131t-163.5 -49
t-154 15v120q40 -14 111 -14z" />
    <glyph glyph-name="Tcaron" unicode="&#x164;" horiz-adv-x="1242" 
d="M470 0v1194h-422v249h1147v-249h-423v-1194h-302zM233 1861h222l163 -197h6l163 197h222l-274 -318h-228z" />
    <glyph glyph-name="tcaron" unicode="&#x165;" horiz-adv-x="835" 
d="M177 297v583h-149v221h149v245h292v-245h204v-221h-204v-535q0 -126 131 -126q38 0 73 5v-216q-55 -12 -146 -12q-184 0 -267 69.5t-83 231.5zM618 1241v503h217l-40 -503h-177z" />
    <glyph glyph-name="Tbar" unicode="&#x166;" horiz-adv-x="1298" 
d="M782 1194v-394h301v-211h-301v-589h-302v589h-265v211h265v394h-422v249h1147v-249h-423z" />
    <glyph glyph-name="tbar" unicode="&#x167;" horiz-adv-x="792" 
d="M177 297v196h-139v160h139v227h-149v221h149v245h292v-245h204v-221h-204v-227h232v-160h-232v-148q0 -126 131 -126q38 0 73 5v-216q-55 -12 -146 -12q-184 0 -267 69.5t-83 231.5z" />
    <glyph glyph-name="Utilde" unicode="&#x168;" horiz-adv-x="1449" 
d="M856 1694q63 0 65 122h158q0 -125 -60.5 -200t-148.5 -75t-157.5 68t-105.5 68q-67 0 -69 -119h-158q0 124 59.5 197.5t147.5 73.5t141 -46.5t77 -67.5t51 -21zM422 540q0 -216 115 -261t187 -45q143 0 223 83t80 223v903h302v-933q0 -240 -164.5 -387.5t-440.5 -147.5
t-440 147.5t-164 387.5v933h302v-903z" />
    <glyph glyph-name="utilde" unicode="&#x169;" horiz-adv-x="1227" 
d="M745 1411q63 0 65 122h158q0 -125 -60.5 -200t-148.5 -75t-157.5 68t-105.5 68q-67 0 -69 -119h-158q0 124 59.5 197.5t147.5 73.5t141 -46.5t77 -67.5t51 -21zM1128 0h-282v199h-6q-42 -104 -131 -159.5t-197 -55.5q-201 0 -309.5 111t-108.5 300v706h292v-645
q0 -112 58.5 -170.5t161.5 -58.5t166.5 68t63.5 179v627h292v-1101z" />
    <glyph glyph-name="Umacron" unicode="&#x16a;" horiz-adv-x="1449" 
d="M1071 1624h-692v143h692v-143zM422 540q0 -216 115 -261t187 -45q143 0 223 83t80 223v903h302v-933q0 -240 -164.5 -387.5t-440.5 -147.5t-440 147.5t-164 387.5v933h302v-903z" />
    <glyph glyph-name="umacron" unicode="&#x16b;" horiz-adv-x="1227" 
d="M947 1298h-669v143h669v-143zM1128 0h-282v199h-6q-42 -104 -131 -159.5t-197 -55.5q-201 0 -309.5 111t-108.5 300v706h292v-645q0 -112 58.5 -170.5t161.5 -58.5t166.5 68t63.5 179v627h292v-1101z" />
    <glyph glyph-name="Ubreve" unicode="&#x16c;" horiz-adv-x="1449" 
d="M744 1688q58 0 106 48t50 124h178q-2 -138 -97.5 -227.5t-255.5 -89.5t-255.5 89.5t-97.5 227.5h178q3 -118 69.5 -145t124.5 -27zM422 540q0 -216 115 -261t187 -45q143 0 223 83t80 223v903h302v-933q0 -240 -164.5 -387.5t-440.5 -147.5t-440 147.5t-164 387.5v933
h302v-903z" />
    <glyph glyph-name="ubreve" unicode="&#x16d;" horiz-adv-x="1227" 
d="M629.5 1395q58.5 0 108.5 48.5t52 126.5h180q-2 -140 -99 -231t-260 -91t-259.5 91t-98.5 231h179q3 -119 71 -147t126.5 -28zM1128 0h-282v199h-6q-42 -104 -131 -159.5t-197 -55.5q-201 0 -309.5 111t-108.5 300v706h292v-645q0 -112 58.5 -170.5t161.5 -58.5t166.5 68
t63.5 179v627h292v-1101z" />
    <glyph glyph-name="Uring" unicode="&#x16e;" horiz-adv-x="1449" 
d="M422 540q0 -216 115 -261t187 -45q143 0 223 83t80 223v903h302v-933q0 -240 -164.5 -387.5t-440.5 -147.5t-440 147.5t-164 387.5v933h302v-903zM725 1630q21 0 39.5 8t32.5 21.5t22 31.5t8 39t-8 39t-22 32t-32.5 22t-39.5 8t-39.5 -8t-32.5 -22t-22 -32t-8 -39t8 -39
t22 -31.5t32.5 -21.5t39.5 -8zM725 1513q-45 0 -85 17t-70.5 46.5t-48 69t-17.5 84.5t17.5 84.5t48 69t70.5 46.5t85 17t85.5 -17t70.5 -46.5t47.5 -69t17.5 -84.5t-17.5 -84.5t-47.5 -69t-70.5 -46.5t-85.5 -17z" />
    <glyph glyph-name="uring" unicode="&#x16f;" horiz-adv-x="1227" 
d="M612 1327q21 0 39.5 8t32.5 21.5t22 31.5t8 39t-8 39t-22 32t-32.5 22t-39.5 8t-39.5 -8t-32.5 -22t-22 -32t-8 -39t8 -39t22 -31.5t32.5 -21.5t39.5 -8zM612 1210q-45 0 -85 17t-70.5 46.5t-48 69t-17.5 84.5t17.5 84.5t48 69t70.5 46.5t85 17t85.5 -17t70.5 -46.5
t47.5 -69t17.5 -84.5t-17.5 -84.5t-47.5 -69t-70.5 -46.5t-85.5 -17zM1128 0h-282v199h-6q-42 -104 -131 -159.5t-197 -55.5q-201 0 -309.5 111t-108.5 300v706h292v-645q0 -112 58.5 -170.5t161.5 -58.5t166.5 68t63.5 179v627h292v-1101z" />
    <glyph glyph-name="Uhungarumlaut" unicode="&#x170;" horiz-adv-x="1449" 
d="M413 1553l231 310h269l-278 -310h-222zM808 1553l232 310h268l-278 -310h-222zM422 540q0 -216 115 -261t187 -45q143 0 223 83t80 223v903h302v-933q0 -240 -164.5 -387.5t-440.5 -147.5t-440 147.5t-164 387.5v933h302v-903z" />
    <glyph glyph-name="uhungarumlaut" unicode="&#x171;" horiz-adv-x="1227" 
d="M1128 0h-282v199h-6q-42 -104 -131 -159.5t-197 -55.5q-201 0 -309.5 111t-108.5 300v706h292v-645q0 -112 58.5 -170.5t161.5 -58.5t166.5 68t63.5 179v627h292v-1101zM506 1573h251l-233 -310h-208zM876 1573h252l-233 -310h-208z" />
    <glyph glyph-name="Uogonek" unicode="&#x172;" horiz-adv-x="1449" 
d="M698 -247q0 134 124 231v2q-35 -11 -135 -11q-99 0 -210.5 38t-234 146t-122.5 351v933h302v-903q0 -142 80 -224t222 -82q141 0 222 82t81 224v903h302v-933q0 -218 -97 -318.5t-168 -154.5t-120 -102t-49 -107q0 -58 33 -87t76 -29t78 7v-155q-56 -20 -123 -20
q-124 0 -192.5 58.5t-68.5 150.5z" />
    <glyph glyph-name="uogonek" unicode="&#x173;" horiz-adv-x="1227" 
d="M1056 -286q37 0 72 5v-155q-49 -17 -113 -17q-119 0 -188 61.5t-69 159.5q0 150 160 244h-72v187h-6q-42 -104 -131 -159.5t-197 -55.5q-200 0 -309 112t-109 299v706h292v-645q0 -109 57.5 -169t161.5 -60t167.5 68t63.5 179v627h292v-1091h-29q-144 -73 -144 -187
q0 -50 32 -79.5t69 -29.5z" />
    <glyph glyph-name="Wcircumflex" unicode="&#x174;" horiz-adv-x="1977" 
d="M710 0h-285l-382 1443h313l227 -1045h8l270 1045h255l270 -1045h8l228 1045h313l-383 -1443h-285l-274 986h-9zM1103 1861l274 -318h-222l-163 197h-6l-163 -197h-222l274 318h228z" />
    <glyph glyph-name="wcircumflex" unicode="&#x175;" horiz-adv-x="1654" 
d="M1341 0h-310l-203 784h-6l-201 -784h-307l-294 1101h294l170 -822h6l199 822h280l200 -822h6l171 822h288zM1202 1253h-223l-149 189h-7l-148 -189h-224l266 318h219z" />
    <glyph glyph-name="Ycircumflex" unicode="&#x176;" horiz-adv-x="1362" 
d="M795 1861l274 -318h-222l-163 197h-6l-163 -197h-222l274 318h228zM530 0v539l-502 904h329l323 -616h7l324 616h324l-503 -904v-539h-302z" />
    <glyph glyph-name="ycircumflex" unicode="&#x177;" horiz-adv-x="1136" 
d="M944 1253h-223l-149 189h-7l-148 -189h-224l266 318h219zM146 -175h48q163 0 195 126l10 42l-386 1108h320l238 -864h6l239 864h308l-381 -1123q-70 -209 -183.5 -294.5t-320.5 -85.5q-95 0 -111 4v226q12 -3 18 -3z" />
    <glyph glyph-name="Ydieresis" unicode="&#x178;" horiz-adv-x="1362" 
d="M891 1561q-29 0 -53.5 10.5t-42.5 28t-28.5 41.5t-10.5 51t10.5 51t28.5 41.5t42.5 28t53.5 10.5t53.5 -10.5t42.5 -28t28.5 -41.5t10.5 -51t-10.5 -51t-28.5 -41.5t-42.5 -28t-53.5 -10.5zM472 1561q-29 0 -53.5 10.5t-42.5 28t-28.5 41.5t-10.5 51t10.5 51t28.5 41.5
t42.5 28t53.5 10.5t53.5 -10.5t42.5 -28t28.5 -41.5t10.5 -51t-10.5 -51t-28.5 -41.5t-42.5 -28t-53.5 -10.5zM530 0v539l-502 904h329l323 -616h7l324 616h324l-503 -904v-539h-302z" />
    <glyph glyph-name="Zacute" unicode="&#x179;" horiz-adv-x="1292" 
d="M822 1194h-716v249h1077v-196l-730 -990v-7h750v-250h-1114v197l733 989v8zM527 1553l232 310h273l-277 -310h-228z" />
    <glyph glyph-name="zacute" unicode="&#x17a;" horiz-adv-x="1059" 
d="M631 877h-545v224h883v-186l-521 -685v-6h534v-224h-904v168l553 704v5zM411 1263l221 310h273l-263 -310h-231z" />
    <glyph glyph-name="Zdotaccent" unicode="&#x17b;" horiz-adv-x="1292" 
d="M822 1194h-716v249h1077v-196l-730 -990v-7h750v-250h-1114v197l733 989v8zM646 1561q-32 0 -59 11.5t-47 32t-31.5 47.5t-11.5 73.5t43 89.5t90 43t74.5 -11.5t47.5 -31.5t31.5 -47t11.5 -58t-11.5 -58t-31.5 -47.5t-47 -32t-59 -11.5z" />
    <glyph glyph-name="zdotaccent" unicode="&#x17c;" horiz-adv-x="1059" 
d="M631 877h-545v224h883v-186l-521 -685v-6h534v-224h-904v168l553 704v5zM422 1516q44 44 91 44q77 0 121.5 -43t44.5 -105t-43.5 -105.5t-107.5 -43.5t-107 44.5t-43 104.5t44 104z" />
    <glyph glyph-name="Zcaron" unicode="&#x17d;" horiz-adv-x="1292" 
d="M258 1861h222l163 -197h6l163 197h222l-274 -318h-228zM822 1194h-716v249h1077v-196l-730 -990v-7h750v-250h-1114v197l733 989v8z" />
    <glyph glyph-name="zcaron" unicode="&#x17e;" horiz-adv-x="1059" 
d="M631 877h-545v224h883v-186l-521 -685v-6h534v-224h-904v168l553 704v5zM420 1253l-266 318h224l148 -188h7l149 188h223l-266 -318h-219z" />
    <glyph glyph-name="florin" unicode="&#x192;" horiz-adv-x="1326" 
d="M1087 1226q-99 0 -154.5 -48t-71.5 -150l-24 -156h350v-210h-382l-43 -278q-33 -211 -152 -309.5t-327 -98.5q-136 0 -216 40v239q77 -43 153 -43t148.5 22.5t96.5 182.5l38 245h-318v210h350l29 187q32 205 152 303t341 98q126 0 203 -36v-234q-74 36 -173 36z" />
    <glyph glyph-name="Ohorn" unicode="&#x1a0;" horiz-adv-x="1593" 
d="M1467 717q0 -340 -189 -541t-508 -201t-507 201.5t-188 544.5t186.5 545t502.5 202q124 0 204 -27.5t169.5 -71t139.5 -43.5q93 0 93 128v181h231v-270q0 -157 -65 -189.5t-106 -32.5t-59 10l-4 -5q100 -185 100 -431zM383 721q0 -227 105 -360t283 -133t282.5 133.5
t104.5 359.5t-104 360.5t-284 134.5q-177 0 -282 -134t-105 -361z" />
    <glyph glyph-name="ohorn" unicode="&#x1a1;" horiz-adv-x="1326" 
d="M1144 541q0 -258 -145.5 -409t-398.5 -151q-252 0 -397 152.5t-145 413.5t144.5 417t386.5 156q160 0 267 -62.5t135.5 -74.5t64.5 -12q80 0 79 129v144h222v-201q0 -187 -89 -227t-119 -40q-29 0 -35 1t-8 -1.5t-3 -2.5q41 -106 41 -232zM847 509.5q0 122.5 -17 186.5
t-48.5 108.5t-77 68t-132 23.5t-152.5 -91.5t-66 -253.5t65 -253.5t181.5 -91.5t181.5 90.5t65 213z" />
    <glyph glyph-name="Uhorn" unicode="&#x1af;" horiz-adv-x="1657" 
d="M1602 1201q-102 -39 -172 -39t-101 22v-674q0 -243 -165 -389t-439 -146t-439.5 146t-165.5 389v933h302v-903q0 -141 80.5 -223t221.5 -82t222 81t81 224v903h304v-54q42 -21 80 -17t54 32.5t16 91.5v147h223v-204q0 -199 -102 -238z" />
    <glyph glyph-name="uhorn" unicode="&#x1b0;" horiz-adv-x="1465" 
d="M1260 830q-105 0 -132 19v-849h-282v199h-6q-42 -104 -131 -159.5t-197 -55.5q-200 0 -309 112t-109 299v706h292v-645q0 -109 57 -169t161 -60t168 68t64 179v627h292v-50q48 -17 78 -9q37 4 52.5 30.5t15.5 89.5v147h222v-200q0 -135 -65.5 -207t-170.5 -72z" />
    <glyph glyph-name="u01C4" unicode="&#x1c4;" horiz-adv-x="2730" 
d="M1696 1861h222l163 -197h6l163 197h222l-274 -318h-228zM2260 1194h-716v249h1077v-196l-730 -990v-7h750v-250h-1114v197l733 989v8zM422 250h218q204 0 310 120.5t106 355.5q0 344 -158 406t-258 62h-218v-944zM676 1443q326 0 507 -187t181 -530t-181.5 -534.5
t-506.5 -191.5h-556v1443h556z" />
    <glyph glyph-name="u01C5" unicode="&#x1c5;" horiz-adv-x="2497" 
d="M2069 877h-545v224h883v-186l-521 -685v-6h534v-224h-904v168l553 704v5zM1858 1253l-266 318h224l148 -188h7l149 188h223l-266 -318h-219zM422 250h218q204 0 310 120.5t106 355.5q0 344 -158 406t-258 62h-218v-944zM676 1443q326 0 507 -187t181 -530t-181.5 -534.5
t-506.5 -191.5h-556v1443h556z" />
    <glyph glyph-name="u01C6" unicode="&#x1c6;" horiz-adv-x="2308" 
d="M1880 877h-545v224h883v-186l-521 -685v-6h534v-224h-904v168l553 704v5zM1669 1253l-266 318h224l148 -188h7l149 188h223l-266 -318h-219zM577.5 878q-85.5 0 -153 -89t-67.5 -239q0 -151 67.5 -239t181.5 -88t181.5 89t67.5 278.5t-96 238.5t-181.5 49zM149 179.5
q-91 113.5 -91 371.5q0 259 123 411t329 152q120 0 207.5 -54.5t129.5 -146.5h6v599h292v-1512h-288v188h-5q-89 -201 -364 -201q-82 0 -165 39.5t-174 153z" />
    <glyph glyph-name="u01C7" unicode="&#x1c7;" horiz-adv-x="2255" 
d="M1053 0h-933v1443h302v-1193h631v-250zM1628 231q95 0 144.5 57t49.5 166v989h302v-991q0 -230 -130 -356t-357 -126t-360.5 124t-133.5 331h293q3 -136 76 -165t116 -29z" />
    <glyph glyph-name="u01C8" unicode="&#x1c8;" horiz-adv-x="1612" 
d="M1053 0h-933v1443h302v-1193h631v-250zM1362 1221q-32 0 -60.5 11.5t-50 32t-34 48.5t-12.5 76.5t46 92.5t95 44t77.5 -11.5t50 -32t34 -48t12.5 -60.5t-12.5 -61t-34 -48.5t-50.5 -32t-61 -11.5zM1117 -376h-33q-33 0 -45 3v216q5 -1 8 -1h29q76 0 108 29.5t32 98.5
v1131h292v-1138q0 -339 -391 -339z" />
    <glyph glyph-name="u01C9" unicode="&#x1c9;" horiz-adv-x="1005" 
d="M107 1512h292v-1512h-292v1512zM756 1221q-32 0 -61 11.5t-50.5 32t-34 48.5t-12.5 76.5t46 92.5t95 44t77.5 -11.5t50 -32t34 -48t12.5 -60.5t-12.5 -61t-34 -48.5t-50 -32t-60.5 -11.5zM510 -376h-33q-33 0 -45 3v216q5 -1 8 -1h29q76 0 108 29.5t32 98.5v1131h292
v-1138q0 -339 -391 -339z" />
    <glyph glyph-name="u01CA" unicode="&#x1ca;" horiz-adv-x="2606" 
d="M120 0v1443h252l674 -940h8v940h289v-1443h-250l-675 945h-9v-945h-289zM1979 231q95 0 144.5 57t49.5 166v989h302v-991q0 -230 -130 -356t-357 -126t-360.5 124t-133.5 331h293q3 -136 76 -165t116 -29z" />
    <glyph glyph-name="u01CB" unicode="&#x1cb;" horiz-adv-x="1963" 
d="M120 0v1443h252l674 -940h8v940h289v-1443h-250l-675 945h-9v-945h-289zM1714 1221q-32 0 -61 11.5t-50.5 32t-34 48.5t-12.5 76.5t46 92.5t95 44t77.5 -11.5t50 -32t34 -48t12.5 -60.5t-12.5 -61t-34 -48.5t-50 -32t-60.5 -11.5zM1468 -376h-33q-33 0 -45 3v216
q5 -1 8 -1h29q76 0 108 29.5t32 98.5v1131h292v-1138q0 -339 -391 -339z" />
    <glyph glyph-name="u01CC" unicode="&#x1cc;" horiz-adv-x="1727" 
d="M741 1117q184 0 288 -109.5t104 -301.5v-706h-292v645q0 110 -56 169.5t-161 59.5t-169 -68.5t-64 -177.5v-628h-292v1101h282v-197h6q97 213 354 213zM1478 1221q-32 0 -61 11.5t-50.5 32t-34 48.5t-12.5 76.5t46 92.5t95 44t77.5 -11.5t50 -32t34 -48t12.5 -60.5
t-12.5 -61t-34 -48.5t-50 -32t-60.5 -11.5zM1232 -376h-33q-33 0 -45 3v216q5 -1 8 -1h29q76 0 108 29.5t32 98.5v1131h292v-1138q0 -339 -391 -339z" />
    <glyph glyph-name="Acaron" unicode="&#x1cd;" horiz-adv-x="1413" 
d="M319 1861h222l163 -197h6l163 197h222l-274 -318h-228zM513 576h377l-185 591h-7zM955 350h-507l-110 -350h-310l501 1443h355l502 -1443h-321z" />
    <glyph glyph-name="acaron" unicode="&#x1ce;" horiz-adv-x="1147" 
d="M468 1253l-266 318h224l148 -188h7l149 188h223l-266 -318h-219zM412 -13q-146 0 -252 92t-106 240q0 149 111 232t323 96l275 17v73q0 80 -50.5 122t-136.5 42t-137.5 -38t-62.5 -98h-267q6 158 137 256.5t340 98.5t336.5 -100.5t127.5 -264.5v-755h-282v170h-6
q-70 -131 -177 -157t-173 -26zM506 200q117 0 187 57.5t70 146.5v81l-231 -16q-187 -12 -187 -105t47.5 -128.5t113.5 -35.5z" />
    <glyph glyph-name="Icaron" unicode="&#x1cf;" horiz-adv-x="542" 
d="M-117 1861h222l163 -197h6l163 197h222l-274 -318h-228zM120 0v1443h302v-1443h-302z" />
    <glyph glyph-name="icaron" unicode="&#x1d0;" horiz-adv-x="500" 
d="M104 1101h292v-1101h-292v1101zM140 1253l-266 318h224l148 -188h7l149 188h223l-266 -318h-219z" />
    <glyph glyph-name="Ocaron" unicode="&#x1d1;" horiz-adv-x="1541" 
d="M383 721q0 -227 105 -360t283 -133t282.5 133.5t104.5 359.5t-104 360.5t-284 134.5q-177 0 -282 -134t-105 -361zM1279.5 1267q187.5 -201 187.5 -545.5t-187.5 -545.5t-508.5 -201t-508.5 201t-187.5 545.5t187.5 545.5t508.5 201t508.5 -201zM383 1861h222l163 -197h6
l163 197h222l-274 -318h-228z" />
    <glyph glyph-name="ocaron" unicode="&#x1d2;" horiz-adv-x="1201" 
d="M601 206q116 0 181 90t65 255q0 248 -94.5 296.5t-152.5 48.5q-115 0 -180.5 -91.5t-65.5 -255.5q0 -163 65.5 -253t181.5 -90zM58 549q0 264 147 417.5t396 153.5t396 -152.5t147 -417.5t-146 -417t-397 -152t-397 152t-146 416zM491 1253l-266 318h224l148 -188h7
l149 188h223l-266 -318h-219z" />
    <glyph glyph-name="Ucaron" unicode="&#x1d3;" horiz-adv-x="1449" 
d="M422 540q0 -216 115 -261t187 -45q143 0 223 83t80 223v903h302v-933q0 -240 -164.5 -387.5t-440.5 -147.5t-440 147.5t-164 387.5v933h302v-903zM337 1861h222l163 -197h6l163 197h222l-274 -318h-228z" />
    <glyph glyph-name="ucaron" unicode="&#x1d4;" horiz-adv-x="1227" 
d="M1128 0h-282v199h-6q-42 -104 -131 -159.5t-197 -55.5q-201 0 -309.5 111t-108.5 300v706h292v-645q0 -112 58.5 -170.5t161.5 -58.5t166.5 68t63.5 179v627h292v-1101zM502 1253l-266 318h224l148 -188h7l149 188h223l-266 -318h-219z" />
    <glyph glyph-name="Udieresismacron" unicode="&#x1d5;" horiz-adv-x="1449" 
d="M930 1813q54 0 91 -36t37 -75q0 -64 -37 -101t-78 -37q-68 0 -105 37t-37 75t10 61t37.5 49.5t81.5 26.5zM1071 2073v-143h-692v143h692zM611.5 1777q37.5 -36 37.5 -75q0 -64 -37 -101t-78 -37q-67 0 -104.5 36t-37.5 75t9.5 62t37.5 49.5t82 26.5q53 0 90.5 -36z
M422 540q0 -216 115 -261t187 -45q143 0 223 83t80 223v903h302v-933q0 -240 -164.5 -387.5t-440.5 -147.5t-440 147.5t-164 387.5v933h302v-903z" />
    <glyph glyph-name="udieresismacron" unicode="&#x1d6;" horiz-adv-x="1227" 
d="M947 1659h-669v143h669v-143zM815 1258q-27 0 -50.5 10t-40.5 26.5t-27 39t-10 48.5t10 48.5t27 39.5t40.5 26.5t50.5 9.5t50.5 -9.5t41 -26.5t27 -39.5t9.5 -48.5t-9.5 -48.5t-27 -39t-41 -26.5t-50.5 -10zM409 1258q-27 0 -50.5 10t-41 26.5t-27 39t-9.5 48.5t9.5 48.5
t27 39.5t41 26.5t50.5 9.5t50.5 -9.5t41 -26.5t27 -39.5t9.5 -48.5t-9.5 -48.5t-27 -39t-41 -26.5t-50.5 -10zM1128 0h-282v199h-6q-42 -104 -131 -159.5t-197 -55.5q-201 0 -309.5 111t-108.5 300v706h292v-645q0 -112 58.5 -170.5t161.5 -58.5t166.5 68t63.5 179v627h292
v-1101z" />
    <glyph glyph-name="Udieresisacute" unicode="&#x1d7;" horiz-adv-x="1449" 
d="M422 540q0 -216 115 -261t187 -45q143 0 223 83t80 223v903h302v-933q0 -240 -164.5 -387.5t-440.5 -147.5t-440 147.5t-164 387.5v933h302v-903zM930 1564q-54 0 -91.5 37t-37.5 75q0 65 37.5 101t77.5 36q67 0 104.5 -36t37.5 -75t-10 -61.5t-37 -49.5t-81 -27z
M429.5 1600q-37.5 36 -37.5 75q0 67 37.5 102.5t78.5 35.5q67 0 104 -36t37 -75t-10 -61.5t-37 -49.5t-81 -27t-91.5 36zM807 2130h254l-237 -243h-211z" />
    <glyph glyph-name="udieresisacute" unicode="&#x1d8;" horiz-adv-x="1227" 
d="M1128 0h-282v199h-6q-42 -104 -131 -159.5t-197 -55.5q-201 0 -309.5 111t-108.5 300v706h292v-645q0 -112 58.5 -170.5t161.5 -58.5t166.5 68t63.5 179v627h292v-1101zM822 1259q-29 0 -53.5 10.5t-42.5 28t-28.5 41.5t-10.5 51t10.5 51t28.5 41.5t42.5 28t53.5 10.5
t53.5 -10.5t42.5 -28t28.5 -41.5t10.5 -51t-10.5 -51t-28.5 -41.5t-42.5 -28t-53.5 -10.5zM403 1259q-29 0 -53.5 10.5t-42.5 28t-28.5 41.5t-10.5 51t10.5 51t28.5 41.5t42.5 28t53.5 10.5t53.5 -10.5t42.5 -28t28.5 -41.5t10.5 -51t-10.5 -51t-28.5 -41.5t-42.5 -28
t-53.5 -10.5zM685 1891h255l-218 -269h-219z" />
    <glyph glyph-name="Udieresiscaron" unicode="&#x1d9;" horiz-adv-x="1449" 
d="M422 540q0 -216 115 -261t187 -45q143 0 223 83t80 223v903h302v-933q0 -240 -164.5 -387.5t-440.5 -147.5t-440 147.5t-164 387.5v933h302v-903zM930 1813q54 0 91 -36t37 -75q0 -64 -37 -101t-78 -37q-68 0 -105 37t-37 75t10 61t37.5 49.5t81.5 26.5zM611.5 1777
q37.5 -36 37.5 -75q0 -64 -37 -101t-78 -37q-67 0 -104.5 36t-37.5 75t9.5 62t37.5 49.5t82 26.5q53 0 90.5 -36zM358 2142h225l133 -136h18l133 136h225l-257 -254h-220z" />
    <glyph glyph-name="udieresiscaron" unicode="&#x1da;" horiz-adv-x="1227" 
d="M1128 0h-282v199h-6q-42 -104 -131 -159.5t-197 -55.5q-201 0 -309.5 111t-108.5 300v706h292v-645q0 -112 58.5 -170.5t161.5 -58.5t166.5 68t63.5 179v627h292v-1101zM491 1603l-258 297h222l153 -180h8l153 180h222l-258 -297h-242zM816 1258q-28 0 -52 10t-41.5 27.5
t-27.5 40.5t-10 62.5t38 76t79 36.5t65 -10t41.5 -27t27.5 -40t10 -49t-10 -49t-27.5 -40.5t-41 -27.5t-51.5 -10zM409 1258q-28 0 -52 10t-41.5 27.5t-27.5 40.5t-10 49t10 49t27.5 40t41.5 27t52 10t51.5 -10t41 -27t27.5 -40t10 -49t-10 -49t-27.5 -40.5t-41 -27.5
t-51.5 -10z" />
    <glyph glyph-name="Udieresisgrave" unicode="&#x1db;" horiz-adv-x="1449" 
d="M422 540q0 -216 115 -261t187 -45q143 0 223 83t80 223v903h302v-933q0 -240 -164.5 -387.5t-440.5 -147.5t-440 147.5t-164 387.5v933h302v-903zM930 1564q-54 0 -91.5 37t-37.5 75q0 65 37.5 101t77.5 36q67 0 104.5 -36t37.5 -75t-10 -61.5t-37 -49.5t-81 -27z
M429.5 1600q-37.5 36 -37.5 75q0 67 37.5 102.5t78.5 35.5q67 0 104 -36t37 -75t-10 -61.5t-37 -49.5t-81 -27t-91.5 36zM626 1887l-237 243h254l194 -243h-211z" />
    <glyph glyph-name="udieresisgrave" unicode="&#x1dc;" horiz-adv-x="1227" 
d="M1128 0h-282v199h-6q-42 -104 -131 -159.5t-197 -55.5q-201 0 -309.5 111t-108.5 300v706h292v-645q0 -112 58.5 -170.5t161.5 -58.5t166.5 68t63.5 179v627h292v-1101zM822 1259q-29 0 -53.5 10.5t-42.5 28t-28.5 41.5t-10.5 51t10.5 51t28.5 41.5t42.5 28t53.5 10.5
t53.5 -10.5t42.5 -28t28.5 -41.5t10.5 -51t-10.5 -51t-28.5 -41.5t-42.5 -28t-53.5 -10.5zM403 1259q-29 0 -53.5 10.5t-42.5 28t-28.5 41.5t-10.5 51t10.5 51t28.5 41.5t42.5 28t53.5 10.5t53.5 -10.5t42.5 -28t28.5 -41.5t10.5 -51t-10.5 -51t-28.5 -41.5t-42.5 -28
t-53.5 -10.5zM509 1634l-221 266h265l173 -266h-217z" />
    <glyph glyph-name="Adieresismacron" unicode="&#x1de;" horiz-adv-x="1413" 
d="M912 1813q54 0 91 -36t37 -75q0 -64 -37 -101t-78 -37q-68 0 -105 37t-37 75t10 61t37.5 49.5t81.5 26.5zM1053 2073v-143h-692v143h692zM593.5 1777q37.5 -36 37.5 -75q0 -64 -37 -101t-78 -37q-67 0 -104.5 36t-37.5 75t9.5 62t37.5 49.5t82 26.5q53 0 90.5 -36z
M513 576h377l-185 591h-7zM955 350h-507l-110 -350h-310l501 1443h355l502 -1443h-321z" />
    <glyph glyph-name="adieresismacron" unicode="&#x1df;" horiz-adv-x="1147" 
d="M913 1659h-669v143h669v-143zM781 1258q-27 0 -50.5 10t-40.5 26.5t-27 39t-10 48.5t10 48.5t27 39.5t40.5 26.5t50.5 9.5t50.5 -9.5t41 -26.5t27 -39.5t9.5 -48.5t-9.5 -48.5t-27 -39t-41 -26.5t-50.5 -10zM375 1258q-27 0 -50.5 10t-41 26.5t-27 39t-9.5 48.5t9.5 48.5
t27 39.5t41 26.5t50.5 9.5t50.5 -9.5t41 -26.5t27 -39.5t9.5 -48.5t-9.5 -48.5t-27 -39t-41 -26.5t-50.5 -10zM412 -13q-146 0 -252 92t-106 240q0 149 111 232t323 96l275 17v73q0 80 -50.5 122t-136.5 42t-137.5 -38t-62.5 -98h-267q6 158 137 256.5t340 98.5
t336.5 -100.5t127.5 -264.5v-755h-282v170h-6q-70 -131 -177 -157t-173 -26zM506 200q117 0 187 57.5t70 146.5v81l-231 -16q-187 -12 -187 -105t47.5 -128.5t113.5 -35.5z" />
    <glyph glyph-name="Adotmacron" unicode="&#x1e0;" horiz-adv-x="1413" 
d="M1053 1930h-692v143h692v-143zM707 1555q-58 0 -98 38.5t-40 80.5t10.5 66t29 42t43.5 28.5t69 10.5t84 -38.5t40 -80.5q0 -41 -10.5 -65.5t-40 -53t-87.5 -28.5zM513 576h377l-185 591h-7zM955 350h-507l-110 -350h-310l501 1443h355l502 -1443h-321z" />
    <glyph glyph-name="adotmacron" unicode="&#x1e1;" horiz-adv-x="1147" 
d="M913 1664h-669v143h669v-143zM578 1252q-31 0 -58.5 11.5t-47.5 31.5t-32 47t-12 57t12 57t32 47.5t47.5 32t58.5 11.5t58.5 -11.5t47.5 -32t32 -47.5t12 -57t-12 -57t-32 -47t-47.5 -31.5t-58.5 -11.5zM412 -13q-146 0 -252 92t-106 240q0 149 111 232t323 96l275 17v73
q0 80 -50.5 122t-136.5 42t-137.5 -38t-62.5 -98h-267q6 158 137 256.5t340 98.5t336.5 -100.5t127.5 -264.5v-755h-282v170h-6q-70 -131 -177 -157t-173 -26zM506 200q117 0 187 57.5t70 146.5v81l-231 -16q-187 -12 -187 -105t47.5 -128.5t113.5 -35.5z" />
    <glyph glyph-name="AEmacron" unicode="&#x1e2;" horiz-adv-x="2039" 
d="M1794 1624h-692v143h692v-143zM966 373h-479l-158 -373h-301l613 1443h1270v-249h-669v-353h632v-232h-632v-360h669v-249h-945v373zM966 599v612h-136l-255 -612h391z" />
    <glyph glyph-name="aemacron" unicode="&#x1e3;" horiz-adv-x="1844" 
d="M1254 1298h-669v143h669v-143zM502 200q118 0 189.5 58.5t71.5 145.5v78l-233 -14q-90 -5 -137.5 -40.5t-47.5 -95.5t46 -96t111 -36zM1111.5 836.5q-65.5 -65.5 -73.5 -172.5h466q-4 109 -65 173.5t-161.5 64.5t-166 -65.5zM931 952q114 168 348 168t370.5 -149
t136.5 -398v-89h-751v-19q0 -119 70 -192.5t169 -73.5q190 0 234 137h269q-24 -161 -158 -258t-333 -97q-139 0 -244.5 55t-159.5 152h-9q-120 -201 -405 -201q-185 0 -299.5 90.5t-114.5 238.5q0 149 110.5 233.5t322.5 96.5l276 15v67q0 77 -54 125t-140 48t-138 -37
t-59 -99h-268q8 158 133 256.5t323 98.5q133 0 225 -45t137 -123h9z" />
    <glyph glyph-name="Gcaron" unicode="&#x1e6;" horiz-adv-x="1489" 
d="M1094 977q-72 241 -344 241q-75 0 -146 -33t-146 -129.5t-75 -327.5t105.5 -366.5t286.5 -135.5q149 0 242.5 83t97.5 217l1 23h-314v220h608v-163q0 -295 -170 -463t-482 -168q-311 0 -497 199.5t-186 547.5t184.5 547t503.5 199q253 0 427.5 -136.5t206.5 -354.5h-303z
M363 1861h222l163 -197h6l163 197h222l-274 -318h-228z" />
    <glyph glyph-name="gcaron" unicode="&#x1e7;" horiz-adv-x="1244" 
d="M847 200q-87 -193 -361 -193q-80 0 -163 38t-174 147.5t-91 365.5t122 406t316 150t264 -77.5t92 -123.5h5v188h288v-1076q0 -197 -148 -312.5t-388 -115.5q-226 0 -364.5 88.5t-150.5 236.5h288q21 -83 102 -101t130 -18q105 0 172 53.5t67 146.5v197h-6zM604 233
q57 0 103 22t79 63.5t50.5 100.5t17.5 133t-17.5 134.5t-50.5 103t-79 65.5t-103 23t-102.5 -23t-77.5 -65t-49.5 -102t-17.5 -135t17 -134.5t49.5 -100.5t78 -63t102.5 -22zM499 1253l-266 318h224l148 -188h7l149 188h223l-266 -318h-219z" />
    <glyph glyph-name="Kcaron" unicode="&#x1e8;" horiz-adv-x="1353" 
d="M278 1861h222l163 -197h6l163 197h222l-274 -318h-228zM120 0v1443h302v-658h9l542 658h336l-534 -640l571 -803h-361l-428 603l-135 -162v-441h-302z" />
    <glyph glyph-name="kcaron" unicode="&#x1e9;" horiz-adv-x="1126" 
d="M-136 1930h222l163 -197h6l163 197h222l-274 -318h-228zM399 0h-292v1512h292v-856h4l381 445h332l-424 -473l444 -628h-336l-322 452l-79 -85v-367z" />
    <glyph glyph-name="Oogonek" unicode="&#x1ea;" horiz-adv-x="1541" 
d="M487.5 1082.5q-104.5 -133.5 -104.5 -361.5t104.5 -360.5t282.5 -132.5t283 132.5t105 360.5t-104.5 361.5t-283 133.5t-283 -133.5zM742 -246q0 142 122 229v3q-40 -11 -93 -11q-324 0 -510 200t-186 546t187 546.5t509 200.5t508.5 -201t186.5 -539t-123.5 -477.5
t-204 -196.5t-140 -109.5t-59.5 -127.5q0 -48 31.5 -76.5t79.5 -28.5t76 8v-156q-48 -20 -118 -20q-128 0 -197 57.5t-69 152.5z" />
    <glyph glyph-name="oogonek" unicode="&#x1eb;" horiz-adv-x="1201" 
d="M847 509.5q0 122.5 -17 186.5t-48.5 108.5t-77 68t-132 23.5t-152.5 -91.5t-66 -253.5t65 -253.5t181.5 -91.5t181.5 90.5t65 213zM812 -456q-125 0 -193.5 62.5t-68.5 171.5q0 110 120 203v2q-9 -2 -12 -2h-57q-253 0 -398 152.5t-145 415.5q0 264 146 417.5t397 153.5
t397 -153.5t146 -396.5t-76 -342.5t-132 -148.5q-107 -94 -148 -150.5t-41 -109.5q0 -52 31.5 -80t81.5 -28t80 9v-154q-58 -22 -128 -22z" />
    <glyph glyph-name="Oogonekmacron" unicode="&#x1ec;" horiz-adv-x="1541" 
d="M1117 1624h-692v143h692v-143zM487.5 1082.5q-104.5 -133.5 -104.5 -361.5t104.5 -360.5t282.5 -132.5t283 132.5t105 360.5t-104.5 361.5t-283 133.5t-283 -133.5zM742 -246q0 142 122 229v3q-40 -11 -93 -11q-324 0 -510 200t-186 546t187 546.5t509 200.5t508.5 -201
t186.5 -539t-123.5 -477.5t-204 -196.5t-140 -109.5t-59.5 -127.5q0 -48 31.5 -76.5t79.5 -28.5t76 8v-156q-48 -20 -118 -20q-128 0 -197 57.5t-69 152.5z" />
    <glyph glyph-name="oogonekmacron" unicode="&#x1ed;" horiz-adv-x="1201" 
d="M847 509.5q0 122.5 -17 186.5t-48.5 108.5t-77 68t-132 23.5t-152.5 -91.5t-66 -253.5t65 -253.5t181.5 -91.5t181.5 90.5t65 213zM812 -456q-125 0 -193.5 62.5t-68.5 171.5q0 110 120 203v2q-9 -2 -12 -2h-57q-253 0 -398 152.5t-145 415.5q0 264 146 417.5t397 153.5
t397 -153.5t146 -396.5t-76 -342.5t-132 -148.5q-107 -94 -148 -150.5t-41 -109.5q0 -52 31.5 -80t81.5 -28t80 9v-154q-58 -22 -128 -22zM936 1298h-669v143h669v-143z" />
    <glyph glyph-name="u01F1" unicode="&#x1f1;" horiz-adv-x="2730" 
d="M422 250h218q204 0 310 120.5t106 355.5q0 344 -158 406t-258 62h-218v-944zM676 1443q326 0 507 -187t181 -530t-181.5 -534.5t-506.5 -191.5h-556v1443h556zM2260 1194h-716v249h1077v-196l-730 -990v-7h750v-250h-1114v197l733 989v8z" />
    <glyph glyph-name="u01F2" unicode="&#x1f2;" horiz-adv-x="2497" 
d="M422 250h218q204 0 310 120.5t106 355.5q0 344 -158 406t-258 62h-218v-944zM676 1443q326 0 507 -187t181 -530t-181.5 -534.5t-506.5 -191.5h-556v1443h556zM2069 877h-545v224h883v-186l-521 -685v-6h534v-224h-904v168l553 704v5z" />
    <glyph glyph-name="u01F3" unicode="&#x1f3;" horiz-adv-x="2308" 
d="M577.5 878q-85.5 0 -153 -89t-67.5 -239q0 -151 67.5 -239t181.5 -88t181.5 89t67.5 278.5t-96 238.5t-181.5 49zM149 179.5q-91 113.5 -91 371.5q0 259 123 411t329 152q120 0 207.5 -54.5t129.5 -146.5h6v599h292v-1512h-288v188h-5q-89 -201 -364 -201
q-82 0 -165 39.5t-174 153zM1880 877h-545v224h883v-186l-521 -685v-6h534v-224h-904v168l553 704v5z" />
    <glyph glyph-name="Gacute" unicode="&#x1f4;" horiz-adv-x="1489" 
d="M1094 977q-72 241 -344 241q-75 0 -146 -33t-146 -129.5t-75 -327.5t105.5 -366.5t286.5 -135.5q149 0 242.5 83t97.5 217l1 23h-314v220h608v-163q0 -295 -170 -463t-482 -168q-311 0 -497 199.5t-186 547.5t184.5 547t503.5 199q253 0 427.5 -136.5t206.5 -354.5h-303z
M632 1553l232 310h273l-277 -310h-228z" />
    <glyph glyph-name="gacute" unicode="&#x1f5;" horiz-adv-x="1244" 
d="M847 200q-87 -193 -361 -193q-80 0 -163 38t-174 147.5t-91 365.5t122 406t316 150t264 -77.5t92 -123.5h5v188h288v-1076q0 -197 -148 -312.5t-388 -115.5q-226 0 -364.5 88.5t-150.5 236.5h288q21 -83 102 -101t130 -18q105 0 172 53.5t67 146.5v197h-6zM604 233
q57 0 103 22t79 63.5t50.5 100.5t17.5 133t-17.5 134.5t-50.5 103t-79 65.5t-103 23t-102.5 -23t-77.5 -65t-49.5 -102t-17.5 -135t17 -134.5t49.5 -100.5t78 -63t102.5 -22zM490 1263l221 310h273l-263 -310h-231z" />
    <glyph glyph-name="Ngrave" unicode="&#x1f8;" horiz-adv-x="1463" 
d="M120 0v1443h252l674 -940h8v940h289v-1443h-250l-675 945h-9v-945h-289zM344 1868h273l232 -310h-227z" />
    <glyph glyph-name="ngrave" unicode="&#x1f9;" horiz-adv-x="1227" 
d="M741 1117q184 0 288 -109.5t104 -301.5v-706h-292v645q0 110 -56 169.5t-161 59.5t-169 -68.5t-64 -177.5v-628h-292v1101h282v-197h6q97 213 354 213zM503 1263l-263 310h273l221 -310h-231z" />
    <glyph glyph-name="Aringacute" unicode="&#x1fa;" horiz-adv-x="1413" 
d="M978 2148l-170 -193h-197l118 193h249zM707 1606q40 0 67 27t27 67t-27 66t-67 26t-67 -26t-27 -66t27 -67t67 -27zM707 1497q-44 0 -82 15.5t-65.5 42.5t-43.5 64t-16 80t16 80t43.5 64t65.5 42.5t82 15.5t81.5 -15.5t65.5 -42.5t43.5 -64t15.5 -80t-15.5 -80t-43.5 -64
t-65.5 -42.5t-81.5 -15.5zM513 576h377l-185 591h-7zM955 350h-507l-110 -350h-310l501 1443h355l502 -1443h-321z" />
    <glyph glyph-name="aringacute" unicode="&#x1fb;" horiz-adv-x="1147" 
d="M620 1925h236l-174 -213h-195zM482 1424q0 -42 28 -69.5t70 -27.5t69.5 27.5t27.5 69.5t-27.5 69t-69.5 27t-70 -27t-28 -69zM580 1210q-92 0 -155.5 61t-63.5 152.5t63.5 152.5t155.5 61t155 -61t63 -152.5t-63 -152.5t-155 -61zM412 -13q-146 0 -252 92t-106 240
q0 149 111 232t323 96l275 17v73q0 80 -50.5 122t-136.5 42t-137.5 -38t-62.5 -98h-267q6 158 137 256.5t340 98.5t336.5 -100.5t127.5 -264.5v-755h-282v170h-6q-70 -131 -177 -157t-173 -26zM506 200q117 0 187 57.5t70 146.5v81l-231 -16q-187 -12 -187 -105t47.5 -128.5
t113.5 -35.5z" />
    <glyph glyph-name="AEacute" unicode="&#x1fc;" horiz-adv-x="2039" 
d="M966 373h-479l-158 -373h-301l613 1443h1270v-249h-669v-353h632v-232h-632v-360h669v-249h-945v373zM966 599v612h-136l-255 -612h391zM1329 1553l232 310h273l-277 -310h-228z" />
    <glyph glyph-name="aeacute" unicode="&#x1fd;" horiz-adv-x="1844" 
d="M502 200q118 0 189.5 58.5t71.5 145.5v78l-233 -14q-90 -5 -137.5 -40.5t-47.5 -95.5t46 -96t111 -36zM1111.5 836.5q-65.5 -65.5 -73.5 -172.5h466q-4 109 -65 173.5t-161.5 64.5t-166 -65.5zM931 952q114 168 348 168t370.5 -149t136.5 -398v-89h-751v-19
q0 -119 70 -192.5t169 -73.5q190 0 234 137h269q-24 -161 -158 -258t-333 -97q-139 0 -244.5 55t-159.5 152h-9q-120 -201 -405 -201q-185 0 -299.5 90.5t-114.5 238.5q0 149 110.5 233.5t322.5 96.5l276 15v67q0 77 -54 125t-140 48t-138 -37t-59 -99h-268q8 158 133 256.5
t323 98.5q133 0 225 -45t137 -123h9zM800 1263l221 310h273l-263 -310h-231z" />
    <glyph glyph-name="Oslashacute" unicode="&#x1fe;" horiz-adv-x="1541" 
d="M1250 1296q217 -203 217 -561t-187.5 -559t-508.5 -201q-195 0 -347 78l-80 -120l-102 68l80 120q-247 201 -247 600q0 345 187.5 546t508.5 201q220 0 381 -98l90 136l108 -60zM771 1216q-178 0 -283 -134t-105 -359t101 -357l514 773q-93 77 -227 77zM1158 705
q0 210 -77 336l-505 -759q87 -54 185 -54q188 0 292.5 133.5t104.5 343.5zM905 1553h-228l232 310h273z" />
    <glyph glyph-name="oslashacute" unicode="&#x1ff;" horiz-adv-x="1201" 
d="M962 1001q182 -153 182 -434t-146 -433.5t-397 -152.5q-135 0 -248 48l-62 -99l-104 64l62 98q-191 152 -191 459q0 263 147 416t396 153q143 0 259 -54l64 102l106 -59zM609 896q-123 0 -189 -91.5t-66 -239.5t45 -234l330 526q-54 39 -120 39zM601 206q116 0 181 90
t65 234t-38 227l-326 -520q53 -31 118 -31zM735 1263h-231l221 310h273z" />
    <glyph glyph-name="Adblgrave" unicode="&#x200;" horiz-adv-x="1413" 
d="M124 1863h268l232 -310h-222zM519 1863h269l231 -310h-222zM513 576h377l-185 591h-7zM955 350h-507l-110 -350h-310l501 1443h355l502 -1443h-321z" />
    <glyph glyph-name="adblgrave" unicode="&#x201;" horiz-adv-x="1147" 
d="M665 1263l-233 310h252l189 -310h-208zM295 1263l-233 310h252l189 -310h-208zM412 -13q-146 0 -252 92t-106 240q0 149 111 232t323 96l275 17v73q0 80 -50.5 122t-136.5 42t-137.5 -38t-62.5 -98h-267q6 158 137 256.5t340 98.5t336.5 -100.5t127.5 -264.5v-755h-282
v170h-6q-70 -131 -177 -157t-173 -26zM506 200q117 0 187 57.5t70 146.5v81l-231 -16q-187 -12 -187 -105t47.5 -128.5t113.5 -35.5z" />
    <glyph glyph-name="Ainvertedbreve" unicode="&#x202;" horiz-adv-x="1413" 
d="M707 1860q160 0 255.5 -90t97.5 -227h-178q-3 118 -69.5 145t-124.5 27t-106 -48t-50 -124h-178q2 137 97.5 227t255.5 90zM513 576h377l-185 591h-7zM955 350h-507l-110 -350h-310l501 1443h355l502 -1443h-321z" />
    <glyph glyph-name="ainvertedbreve" unicode="&#x203;" horiz-adv-x="1147" 
d="M578 1575q163 0 260 -91t99 -231h-180q-3 120 -71 148t-127 28t-108.5 -49.5t-51.5 -126.5h-180q2 140 99 231t260 91zM412 -13q-146 0 -252 92t-106 240q0 149 111 232t323 96l275 17v73q0 80 -50.5 122t-136.5 42t-137.5 -38t-62.5 -98h-267q6 158 137 256.5t340 98.5
t336.5 -100.5t127.5 -264.5v-755h-282v170h-6q-70 -131 -177 -157t-173 -26zM506 200q117 0 187 57.5t70 146.5v81l-231 -16q-187 -12 -187 -105t47.5 -128.5t113.5 -35.5z" />
    <glyph glyph-name="Edblgrave" unicode="&#x204;" horiz-adv-x="1174" 
d="M1076 0h-956v1443h956v-249h-654v-348h617v-232h-617v-364h654v-250zM15 1863h268l232 -310h-222zM410 1863h269l231 -310h-222z" />
    <glyph glyph-name="edblgrave" unicode="&#x205;" horiz-adv-x="1164" 
d="M673 1263l-233 310h252l189 -310h-208zM303 1263l-233 310h252l189 -310h-208zM201.5 964.5q143.5 155.5 383.5 155.5t380.5 -148t140.5 -399v-90h-760v-18q0 -119 70 -192.5t170 -73.5q197 0 242 137h269q-24 -159 -160.5 -257t-351.5 -98q-239 0 -383 151.5t-144 414
t143.5 418zM423.5 835.5q-66.5 -66.5 -74.5 -171.5h475q-4 107 -68 172.5t-165 65.5t-167.5 -66.5z" />
    <glyph glyph-name="Einvertedbreve" unicode="&#x206;" horiz-adv-x="1174" 
d="M579 1715q-58 0 -106 -48t-50 -124h-178q2 137 97.5 227t255.5 90t255.5 -90t97.5 -227h-178q-3 118 -69.5 145t-124.5 27zM1076 0h-956v1443h956v-249h-654v-348h617v-232h-617v-364h654v-250z" />
    <glyph glyph-name="einvertedbreve" unicode="&#x207;" horiz-adv-x="1164" 
d="M586 1575q163 0 260 -91t99 -231h-180q-3 120 -71 148t-127 28t-108.5 -49.5t-51.5 -126.5h-180q2 140 99 231t260 91zM201.5 964.5q143.5 155.5 383.5 155.5t380.5 -148t140.5 -399v-90h-760v-18q0 -119 70 -192.5t170 -73.5q197 0 242 137h269q-24 -159 -160.5 -257
t-351.5 -98q-239 0 -383 151.5t-144 414t143.5 418zM423.5 835.5q-66.5 -66.5 -74.5 -171.5h475q-4 107 -68 172.5t-165 65.5t-167.5 -66.5z" />
    <glyph glyph-name="Idblgrave" unicode="&#x208;" horiz-adv-x="542" 
d="M-312 1863h268l232 -310h-222zM83 1863h269l231 -310h-222zM120 0v1443h302v-1443h-302z" />
    <glyph glyph-name="idblgrave" unicode="&#x209;" horiz-adv-x="500" 
d="M337 1263l-233 310h252l189 -310h-208zM-33 1263l-233 310h252l189 -310h-208zM104 1101h292v-1101h-292v1101z" />
    <glyph glyph-name="Iinvertedbreve" unicode="&#x20a;" horiz-adv-x="542" 
d="M271 1860q160 0 255.5 -90t97.5 -227h-178q-3 118 -69.5 145t-124.5 27t-106 -48t-50 -124h-178q2 137 97.5 227t255.5 90zM120 0v1443h302v-1443h-302z" />
    <glyph glyph-name="iinvertedbreve" unicode="&#x20b;" horiz-adv-x="500" 
d="M250 1575q163 0 260 -91t99 -231h-180q-3 120 -71 148t-127 28t-108.5 -49.5t-51.5 -126.5h-180q2 140 99 231t260 91zM104 1101h292v-1101h-292v1101z" />
    <glyph glyph-name="Odblgrave" unicode="&#x20c;" horiz-adv-x="1541" 
d="M383 721q0 -227 105 -360t283 -133t282.5 133.5t104.5 359.5t-104 360.5t-284 134.5q-177 0 -282 -134t-105 -361zM1279.5 1267q187.5 -201 187.5 -545.5t-187.5 -545.5t-508.5 -201t-508.5 201t-187.5 545.5t187.5 545.5t508.5 201t508.5 -201zM188 1863h268l232 -310
h-222zM583 1863h269l231 -310h-222z" />
    <glyph glyph-name="odblgrave" unicode="&#x20d;" horiz-adv-x="1201" 
d="M688 1263l-233 310h252l189 -310h-208zM318 1263l-233 310h252l189 -310h-208zM601 206q116 0 181 90t65 255q0 248 -94.5 296.5t-152.5 48.5q-115 0 -180.5 -91.5t-65.5 -255.5q0 -163 65.5 -253t181.5 -90zM58 549q0 264 147 417.5t396 153.5t396 -152.5t147 -417.5
t-146 -417t-397 -152t-397 152t-146 416z" />
    <glyph glyph-name="Oinvertedbreve" unicode="&#x20e;" horiz-adv-x="1541" 
d="M383 721q0 -227 105 -360t283 -133t282.5 133.5t104.5 359.5t-104 360.5t-284 134.5q-177 0 -282 -134t-105 -361zM1279.5 1267q187.5 -201 187.5 -545.5t-187.5 -545.5t-508.5 -201t-508.5 201t-187.5 545.5t187.5 545.5t508.5 201t508.5 -201zM771 1860
q160 0 255.5 -90t97.5 -227h-178q-3 118 -69.5 145t-124.5 27t-106 -48t-50 -124h-178q2 137 97.5 227t255.5 90z" />
    <glyph glyph-name="oinvertedbreve" unicode="&#x20f;" horiz-adv-x="1201" 
d="M601 1575q163 0 260 -91t99 -231h-180q-3 120 -71 148t-127 28t-108.5 -49.5t-51.5 -126.5h-180q2 140 99 231t260 91zM601 206q116 0 181 90t65 255q0 248 -94.5 296.5t-152.5 48.5q-115 0 -180.5 -91.5t-65.5 -255.5q0 -163 65.5 -253t181.5 -90zM58 549
q0 264 147 417.5t396 153.5t396 -152.5t147 -417.5t-146 -417t-397 -152t-397 152t-146 416z" />
    <glyph glyph-name="Rdblgrave" unicode="&#x210;" horiz-adv-x="1316" 
d="M422 0h-302v1443h596q247 0 384.5 -123t137.5 -338t-100 -300t-162 -109l304 -573h-342l-269 528h-247v-528zM422 747h265q115 0 178 61t63 167t-66 169t-178 63h-262v-460zM33 1863h268l232 -310h-222zM428 1863h269l231 -310h-222z" />
    <glyph glyph-name="rdblgrave" unicode="&#x211;" horiz-adv-x="759" 
d="M490 1263l-233 310h252l189 -310h-208zM120 1263l-233 310h252l189 -310h-208zM626 862q-112 0 -173.5 -65t-61.5 -181v-616h-292v1101h282v-197h6q28 103 96 156.5t166 53.5q47 0 82 -11v-259q-40 18 -105 18z" />
    <glyph glyph-name="Rinvertedbreve" unicode="&#x212;" horiz-adv-x="1316" 
d="M616 1860q160 0 255.5 -90t97.5 -227h-178q-3 118 -69.5 145t-124.5 27t-106 -48t-50 -124h-178q2 137 97.5 227t255.5 90zM422 0h-302v1443h596q247 0 384.5 -123t137.5 -338t-100 -300t-162 -109l304 -573h-342l-269 528h-247v-528zM422 747h265q115 0 178 61t63 167
t-66 169t-178 63h-262v-460z" />
    <glyph glyph-name="rinvertedbreve" unicode="&#x213;" horiz-adv-x="759" 
d="M384 1429q-59 0 -108.5 -49.5t-51.5 -126.5h-180q2 140 99 231t260 91t260 -91t99 -231h-180q-3 120 -71 148t-127 28zM626 862q-112 0 -173.5 -65t-61.5 -181v-616h-292v1101h282v-197h6q28 103 96 156.5t166 53.5q47 0 82 -11v-259q-40 18 -105 18z" />
    <glyph glyph-name="Udblgrave" unicode="&#x214;" horiz-adv-x="1449" 
d="M422 540q0 -216 115 -261t187 -45q143 0 223 83t80 223v903h302v-933q0 -240 -164.5 -387.5t-440.5 -147.5t-440 147.5t-164 387.5v933h302v-903zM142 1863h268l232 -310h-222zM537 1863h269l231 -310h-222z" />
    <glyph glyph-name="udblgrave" unicode="&#x215;" horiz-adv-x="1227" 
d="M699 1263l-233 310h252l189 -310h-208zM329 1263l-233 310h252l189 -310h-208zM1128 0h-282v199h-6q-42 -104 -131 -159.5t-197 -55.5q-201 0 -309.5 111t-108.5 300v706h292v-645q0 -112 58.5 -170.5t161.5 -58.5t166.5 68t63.5 179v627h292v-1101z" />
    <glyph glyph-name="Uinvertedbreve" unicode="&#x216;" horiz-adv-x="1449" 
d="M725 1860q160 0 255.5 -90t97.5 -227h-178q-3 118 -69.5 145t-124.5 27t-106 -48t-50 -124h-178q2 137 97.5 227t255.5 90zM422 540q0 -216 115 -261t187 -45q143 0 223 83t80 223v903h302v-933q0 -240 -164.5 -387.5t-440.5 -147.5t-440 147.5t-164 387.5v933h302v-903z
" />
    <glyph glyph-name="uinvertedbreve" unicode="&#x217;" horiz-adv-x="1227" 
d="M593 1429q-59 0 -108.5 -49.5t-51.5 -126.5h-180q2 140 99 231t260 91t260 -91t99 -231h-180q-3 120 -71 148t-127 28zM1128 0h-282v199h-6q-42 -104 -131 -159.5t-197 -55.5q-201 0 -309.5 111t-108.5 300v706h292v-645q0 -112 58.5 -170.5t161.5 -58.5t166.5 68
t63.5 179v627h292v-1101z" />
    <glyph glyph-name="Scommaaccent" unicode="&#x218;" horiz-adv-x="1293" 
d="M407 -500l121 345h256l-160 -345h-217zM850.5 265.5q75.5 51.5 75.5 126.5t-56.5 118t-186.5 72l-188 41q-397 85 -397 403q0 198 154.5 320t401.5 122t395.5 -118.5t152.5 -315.5h-283q-8 90 -80.5 143t-185.5 53t-182 -48.5t-69 -122.5t55.5 -115t180.5 -69l175 -37
q321 -68 368 -196t47 -222t-41 -178t-158 -175.5t-382 -91.5t-420 117t-161 319h291q10 -87 93.5 -142t204 -55t196 51.5z" />
    <glyph glyph-name="scommaaccent" unicode="&#x219;" horiz-adv-x="1078" 
d="M298 -500l121 345h256l-160 -345h-217zM80 777q0 154 125.5 248.5t332.5 94.5t331.5 -95.5t128.5 -253.5h-270q-5 66 -55.5 104t-132.5 38t-130 -32t-48 -86q0 -81 147 -115l207 -45q244 -56 276.5 -147.5t32.5 -161.5t-35.5 -135.5t-134 -137.5t-315.5 -72t-346 96
t-141 256h285q11 -70 64.5 -107.5t143.5 -37.5t139.5 32t49.5 80t-31.5 73t-106.5 43l-203 46q-314 70 -314 315z" />
    <glyph glyph-name="Tcommaaccent" unicode="&#x21a;" horiz-adv-x="1242" 
d="M470 0v1194h-422v249h1147v-249h-423v-1194h-302zM382 -500l121 345h256l-160 -345h-217z" />
    <glyph glyph-name="tcommaaccent" unicode="&#x21b;" horiz-adv-x="741" 
d="M177 297v583h-149v221h149v245h292v-245h204v-221h-204v-535q0 -126 131 -126q38 0 73 5v-216q-55 -12 -146 -12q-184 0 -267 69.5t-83 231.5zM185 -500l121 345h256l-160 -345h-217z" />
    <glyph glyph-name="Hcaron" unicode="&#x21e;" horiz-adv-x="1494" 
d="M359 1861h222l163 -197h6l163 197h222l-274 -318h-228zM1072 0v608h-650v-608h-302v1443h302v-586h650v586h302v-1443h-302z" />
    <glyph glyph-name="hcaron" unicode="&#x21f;" horiz-adv-x="1247" 
d="M-136 1930h222l163 -197h6l163 197h222l-274 -318h-228zM756 1117q183 0 290 -110.5t107 -302.5v-704h-292v643q0 109 -59 170t-165 61t-172 -69.5t-66 -179.5v-625h-292v1512h287v-608h6q95 213 356 213z" />
    <glyph glyph-name="Adotaccent" unicode="&#x226;" horiz-adv-x="1413" 
d="M706 1561q-32 0 -58.5 11.5t-46.5 32t-31.5 47.5t-11.5 73.5t43 89.5t90 43t74.5 -11.5t47.5 -31.5t31.5 -47t11.5 -58t-11.5 -58t-31.5 -47.5t-47.5 -32t-59.5 -11.5zM513 576h377l-185 591h-7zM955 350h-507l-110 -350h-310l501 1443h355l502 -1443h-321z" />
    <glyph glyph-name="adotaccent" unicode="&#x227;" horiz-adv-x="1147" 
d="M470 1516q44 44 91 44q77 0 121.5 -43t44.5 -105t-43.5 -105.5t-107.5 -43.5t-107 44.5t-43 104.5t44 104zM412 -13q-146 0 -252 92t-106 240q0 149 111 232t323 96l275 17v73q0 80 -50.5 122t-136.5 42t-137.5 -38t-62.5 -98h-267q6 158 137 256.5t340 98.5
t336.5 -100.5t127.5 -264.5v-755h-282v170h-6q-70 -131 -177 -157t-173 -26zM506 200q117 0 187 57.5t70 146.5v81l-231 -16q-187 -12 -187 -105t47.5 -128.5t113.5 -35.5z" />
    <glyph glyph-name="Ecedilla" unicode="&#x228;" horiz-adv-x="1174" 
d="M556 -339q107 0 107 55q0 31 -28.5 43.5t-96.5 12.5h-56v101l58 127h-420v1443h956v-249h-654v-348h617v-232h-617v-364h654v-250h-386l-49 -116q88 0 136.5 -41t48.5 -123t-63.5 -131t-163.5 -49t-154 15v120q40 -14 111 -14z" />
    <glyph glyph-name="ecedilla" unicode="&#x229;" horiz-adv-x="1164" 
d="M548 -339q107 0 107 55q0 31 -28.5 43.5t-96.5 12.5h-56v101l51 112q-220 22 -343.5 170.5t-123.5 400.5t143.5 408t383.5 156t380.5 -148t140.5 -399v-90h-760v-18q0 -119 70 -192.5t170 -73.5q197 0 242 137h269q-22 -144 -136 -238.5t-285 -112.5l-43 -101
q88 0 136.5 -41t48.5 -123t-63.5 -131t-163.5 -49t-154 15v120q40 -14 111 -14zM423.5 835.5q-66.5 -66.5 -74.5 -171.5h475q-4 107 -68 172.5t-165 65.5t-167.5 -66.5z" />
    <glyph glyph-name="Odieresismacron" unicode="&#x22a;" horiz-adv-x="1541" 
d="M976 1813q54 0 91 -36t37 -75q0 -64 -37 -101t-78 -37q-68 0 -105 37t-37 75t10 61t37.5 49.5t81.5 26.5zM1117 2073v-143h-692v143h692zM657.5 1777q37.5 -36 37.5 -75q0 -64 -37 -101t-78 -37q-67 0 -104.5 36t-37.5 75t9.5 62t37.5 49.5t82 26.5q53 0 90.5 -36z
M383 721q0 -227 105 -360t283 -133t282.5 133.5t104.5 359.5t-104 360.5t-284 134.5q-177 0 -282 -134t-105 -361zM1279.5 1267q187.5 -201 187.5 -545.5t-187.5 -545.5t-508.5 -201t-508.5 201t-187.5 545.5t187.5 545.5t508.5 201t508.5 -201z" />
    <glyph glyph-name="odieresismacron" unicode="&#x22b;" horiz-adv-x="1201" 
d="M601 206q116 0 181 90t65 255q0 248 -94.5 296.5t-152.5 48.5q-115 0 -180.5 -91.5t-65.5 -255.5q0 -163 65.5 -253t181.5 -90zM58 549q0 264 147 417.5t396 153.5t396 -152.5t147 -417.5t-146 -417t-397 -152t-397 152t-146 416zM936 1659h-669v143h669v-143zM804 1258
q-27 0 -50.5 10t-40.5 26.5t-27 39t-10 48.5t10 48.5t27 39.5t40.5 26.5t50.5 9.5t50.5 -9.5t41 -26.5t27 -39.5t9.5 -48.5t-9.5 -48.5t-27 -39t-41 -26.5t-50.5 -10zM398 1258q-27 0 -50.5 10t-41 26.5t-27 39t-9.5 48.5t9.5 48.5t27 39.5t41 26.5t50.5 9.5t50.5 -9.5
t41 -26.5t27 -39.5t9.5 -48.5t-9.5 -48.5t-27 -39t-41 -26.5t-50.5 -10z" />
    <glyph glyph-name="Otildemacron" unicode="&#x22c;" horiz-adv-x="1541" 
d="M383 721q0 -227 105 -360t283 -133t282.5 133.5t104.5 359.5t-104 360.5t-284 134.5q-177 0 -282 -134t-105 -361zM1279.5 1267q187.5 -201 187.5 -545.5t-187.5 -545.5t-508.5 -201t-508.5 201t-187.5 545.5t187.5 545.5t508.5 201t508.5 -201zM1117 1930h-692v143h692
v-143zM1119 1810q0 -125 -60 -199.5t-147 -74.5q-88 0 -160 68t-106 68q-67 0 -69 -119h-158q0 193 83.5 232.5t124.5 39.5t69.5 -10t52 -25.5t42.5 -33t48 -43t57 -25.5q63 0 65 122h158z" />
    <glyph glyph-name="otildemacron" unicode="&#x22d;" horiz-adv-x="1201" 
d="M601 206q116 0 181 90t65 255q0 248 -94.5 296.5t-152.5 48.5q-115 0 -180.5 -91.5t-65.5 -255.5q0 -163 65.5 -253t181.5 -90zM58 549q0 264 147 417.5t396 153.5t396 -152.5t147 -417.5t-146 -417t-397 -152t-397 152t-146 416zM936 1659h-669v143h669v-143zM734 1405
q63 0 65 122h158q0 -125 -60.5 -200t-148.5 -75t-157.5 68t-105.5 68q-67 0 -69 -119h-158q0 124 59.5 197.5t147.5 73.5t141 -46.5t77 -67.5t51 -21z" />
    <glyph glyph-name="Odotaccent" unicode="&#x22e;" horiz-adv-x="1541" 
d="M383 721q0 -227 105 -360t283 -133t282.5 133.5t104.5 359.5t-104 360.5t-284 134.5q-177 0 -282 -134t-105 -361zM1279.5 1267q187.5 -201 187.5 -545.5t-187.5 -545.5t-508.5 -201t-508.5 201t-187.5 545.5t187.5 545.5t508.5 201t508.5 -201zM770 1561
q-32 0 -58.5 11.5t-46.5 32t-31.5 47.5t-11.5 73.5t43 89.5t90 43t74.5 -11.5t47.5 -31.5t31.5 -47t11.5 -58t-11.5 -58t-31.5 -47.5t-47.5 -32t-59.5 -11.5z" />
    <glyph glyph-name="odotaccent" unicode="&#x22f;" horiz-adv-x="1201" 
d="M601 206q116 0 181 90t65 255q0 248 -94.5 296.5t-152.5 48.5q-115 0 -180.5 -91.5t-65.5 -255.5q0 -163 65.5 -253t181.5 -90zM58 549q0 264 147 417.5t396 153.5t396 -152.5t147 -417.5t-146 -417t-397 -152t-397 152t-146 416zM493 1516q44 44 91 44q77 0 121.5 -43
t44.5 -105t-43.5 -105.5t-107.5 -43.5t-107 44.5t-43 104.5t44 104z" />
    <glyph glyph-name="Odotaccentmacron" unicode="&#x230;" horiz-adv-x="1541" 
d="M383 721q0 -227 105 -360t283 -133t282.5 133.5t104.5 359.5t-104 360.5t-284 134.5q-177 0 -282 -134t-105 -361zM1279.5 1267q187.5 -201 187.5 -545.5t-187.5 -545.5t-508.5 -201t-508.5 201t-187.5 545.5t187.5 545.5t508.5 201t508.5 -201zM1117 1930h-692v143h692
v-143zM771 1555q-58 0 -98 38.5t-40 80.5t10.5 66t29 42t43.5 28.5t69 10.5t84 -38.5t40 -80.5q0 -41 -10.5 -65.5t-40 -53t-87.5 -28.5z" />
    <glyph glyph-name="odotaccentmacron" unicode="&#x231;" horiz-adv-x="1201" 
d="M936 1664h-669v143h669v-143zM601 1252q-31 0 -58.5 11.5t-47.5 31.5t-32 47t-12 57t12 57t32 47.5t47.5 32t58.5 11.5t58.5 -11.5t47.5 -32t32 -47.5t12 -57t-12 -57t-32 -47t-47.5 -31.5t-58.5 -11.5zM601 206q116 0 181 90t65 255q0 248 -94.5 296.5t-152.5 48.5
q-115 0 -180.5 -91.5t-65.5 -255.5q0 -163 65.5 -253t181.5 -90zM58 549q0 264 147 417.5t396 153.5t396 -152.5t147 -417.5t-146 -417t-397 -152t-397 152t-146 416z" />
    <glyph glyph-name="Ymacron" unicode="&#x232;" horiz-adv-x="1362" 
d="M1027 1624h-692v143h692v-143zM530 0v539l-502 904h329l323 -616h7l324 616h324l-503 -904v-539h-302z" />
    <glyph glyph-name="ymacron" unicode="&#x233;" horiz-adv-x="1136" 
d="M904 1298h-669v143h669v-143zM146 -175h48q163 0 195 126l10 42l-386 1108h320l238 -864h6l239 864h308l-381 -1123q-70 -209 -183.5 -294.5t-320.5 -85.5q-95 0 -111 4v226q12 -3 18 -3z" />
    <glyph glyph-name="dotlessj" unicode="&#x237;" horiz-adv-x="499" 
d="M5 -376h-33q-33 0 -45 3v216q5 -1 8 -1h28q77 0 109 29.5t32 98.5v1131h291v-1138q0 -339 -390 -339z" />
    <glyph glyph-name="circumflex" unicode="&#x2c6;" horiz-adv-x="1011" 
d="M881 1253h-223l-149 189h-7l-148 -189h-224l266 318h219z" />
    <glyph glyph-name="caron" unicode="&#x2c7;" horiz-adv-x="1011" 
d="M396 1253l-266 318h224l148 -188h7l149 188h223l-266 -318h-219z" />
    <glyph glyph-name="breve" unicode="&#x2d8;" horiz-adv-x="1000" 
d="M518.5 1395q58.5 0 108.5 48.5t52 126.5h180q-2 -140 -99 -231t-260 -91t-259.5 91t-98.5 231h179q3 -119 71 -147t126.5 -28z" />
    <glyph glyph-name="dotaccent" unicode="&#x2d9;" horiz-adv-x="949" 
d="M367 1516q44 44 91 44q77 0 121.5 -43t44.5 -105t-43.5 -105.5t-107.5 -43.5t-107 44.5t-43 104.5t44 104z" />
    <glyph glyph-name="ring" unicode="&#x2da;" horiz-adv-x="1032" 
d="M516 1328q21 0 39.5 8t32.5 21.5t22 31.5t8 39t-8 39t-22 32t-32.5 22t-39.5 8t-39.5 -8t-32.5 -22t-22 -32t-8 -39t8 -39t22 -31.5t32.5 -21.5t39.5 -8zM516 1211q-45 0 -85 17t-70.5 46.5t-48 69t-17.5 84.5t17.5 84.5t48 69t70.5 46.5t85 17t85.5 -17t70.5 -46.5
t47.5 -69t17.5 -84.5t-17.5 -84.5t-47.5 -69t-70.5 -46.5t-85.5 -17z" />
    <glyph glyph-name="ogonek" unicode="&#x2db;" horiz-adv-x="1000" 
d="M617 -305q46 0 77 9v-154q-57 -20 -124 -20q-121 0 -186.5 57.5t-65.5 149.5q0 154 168 263h155q-133 -98 -133 -202q0 -47 31.5 -75t77.5 -28z" />
    <glyph glyph-name="tilde" unicode="&#x2dc;" horiz-adv-x="1011" 
d="M632 1411q63 0 65 122h158q0 -125 -60.5 -200t-148.5 -75t-157.5 68t-105.5 68q-67 0 -69 -119h-158q0 124 59.5 197.5t147.5 73.5t141 -46.5t77 -67.5t51 -21z" />
    <glyph glyph-name="hungarumlaut" unicode="&#x2dd;" horiz-adv-x="1000" 
d="M288 1573h251l-233 -310h-208zM658 1573h252l-233 -310h-208z" />
    <glyph glyph-name="gravecmb" unicode="&#x300;" 
d="M-112 1263l-263 310h273l221 -310h-231z" />
    <glyph glyph-name="acutecmb" unicode="&#x301;" 
d="M-119 1263l221 310h273l-263 -310h-231z" />
    <glyph glyph-name="circumflexcmb" unicode="&#x302;" 
d="M375 1253h-223l-149 189h-7l-148 -189h-224l266 318h219z" />
    <glyph glyph-name="tildecmb" unicode="&#x303;" 
d="M133 1411q63 0 65 122h158q0 -125 -60.5 -200t-148.5 -75t-157.5 68t-105.5 68q-67 0 -69 -119h-158q0 124 59.5 197.5t147.5 73.5t141 -46.5t77 -67.5t51 -21z" />
    <glyph glyph-name="macroncmb" unicode="&#x304;" 
d="M335 1298h-669v143h669v-143z" />
    <glyph glyph-name="brevecmb" unicode="&#x306;" 
d="M17.5 1395q58.5 0 108.5 48.5t52 126.5h180q-2 -140 -99 -231t-260 -91t-259.5 91t-98.5 231h179q3 -119 71 -147t126.5 -28z" />
    <glyph glyph-name="dotaccentcmb" unicode="&#x307;" 
d="M-108 1516q44 44 91 44q77 0 121.5 -43t44.5 -105t-43.5 -105.5t-107.5 -43.5t-107 44.5t-43 104.5t44 104z" />
    <glyph glyph-name="dieresiscmb" unicode="&#x308;" 
d="M210 1259q-29 0 -53.5 10.5t-42.5 28t-28.5 41.5t-10.5 51t10.5 51t28.5 41.5t42.5 28t53.5 10.5t53.5 -10.5t42.5 -28t28.5 -41.5t10.5 -51t-10.5 -51t-28.5 -41.5t-42.5 -28t-53.5 -10.5zM-209 1259q-29 0 -53.5 10.5t-42.5 28t-28.5 41.5t-10.5 51t10.5 51t28.5 41.5
t42.5 28t53.5 10.5t53.5 -10.5t42.5 -28t28.5 -41.5t10.5 -51t-10.5 -51t-28.5 -41.5t-42.5 -28t-53.5 -10.5z" />
    <glyph glyph-name="hookabovecmb" unicode="&#x309;" 
d="M-19 1646q124 0 187 -56t63 -139q0 -163 -189 -243l-85 104q51 23 73.5 49t22.5 63t-28.5 59t-76.5 22t-100 -21v135q63 27 133 27z" />
    <glyph glyph-name="ringcmb" unicode="&#x30a;" 
d="M0 1327q21 0 39.5 8t32.5 21.5t22 31.5t8 39t-8 39t-22 32t-32.5 22t-39.5 8t-39.5 -8t-32.5 -22t-22 -32t-8 -39t8 -39t22 -31.5t32.5 -21.5t39.5 -8zM0 1210q-45 0 -85 17t-70.5 46.5t-48 69t-17.5 84.5t17.5 84.5t48 69t70.5 46.5t85 17t85.5 -17t70.5 -46.5t47.5 -69
t17.5 -84.5t-17.5 -84.5t-47.5 -69t-70.5 -46.5t-85.5 -17z" />
    <glyph glyph-name="hungarumlautcmb" unicode="&#x30b;" 
d="M-106 1573h251l-233 -310h-208zM264 1573h252l-233 -310h-208z" />
    <glyph glyph-name="caroncmb" unicode="&#x30c;" 
d="M-110 1253l-266 318h224l148 -188h7l149 188h223l-266 -318h-219z" />
    <glyph glyph-name="dblgravecmb" unicode="&#x30f;" 
d="M87 1263l-233 310h252l189 -310h-208zM-283 1263l-233 310h252l189 -310h-208z" />
    <glyph glyph-name="invertedbrevecmb" unicode="&#x311;" 
d="M0 1575q163 0 260 -91t99 -231h-180q-3 120 -71 148t-127 28t-108.5 -49.5t-51.5 -126.5h-180q2 140 99 231t260 91z" />
    <glyph glyph-name="horncmb" unicode="&#x31b;" 
d="M115 895q-71 0 -115 29v193q32 -23 73 -21t60 31.5t19 94.5v152h222v-207q0 -125 -66 -198.5t-193 -73.5z" />
    <glyph glyph-name="dotbelowcmb" unicode="&#x323;" 
d="M0 -458q-32 0 -59 11.5t-47 32t-31.5 47.5t-11.5 73.5t43 89.5t90 43t74.5 -11.5t47.5 -31.5t31.5 -47t11.5 -58t-11.5 -58t-31.5 -47.5t-47 -32t-59 -11.5z" />
    <glyph glyph-name="dieresisbelowcmb" unicode="&#x324;" 
d="M210 -430q-29 0 -53.5 10.5t-42.5 28t-28.5 41.5t-10.5 51t10.5 51t28.5 41.5t42.5 28t53.5 10.5t53.5 -10.5t42.5 -28t28.5 -41.5t10.5 -51t-10.5 -51t-28.5 -41.5t-42.5 -28t-53.5 -10.5zM-209 -430q-29 0 -53.5 10.5t-42.5 28t-28.5 41.5t-10.5 51t10.5 51t28.5 41.5
t42.5 28t53.5 10.5t53.5 -10.5t42.5 -28t28.5 -41.5t10.5 -51t-10.5 -51t-28.5 -41.5t-42.5 -28t-53.5 -10.5z" />
    <glyph glyph-name="ringbelowcmb" unicode="&#x325;" 
d="M0 -463q21 0 39.5 8t32.5 21.5t22 31.5t8 39t-8 39t-22 32t-32.5 22t-39.5 8t-39.5 -8t-32.5 -22t-22 -32t-8 -39t8 -39t22 -31.5t32.5 -21.5t39.5 -8zM0 -580q-45 0 -85 17t-70.5 46.5t-48 69t-17.5 84.5t17.5 84.5t48 69t70.5 46.5t85 17t85.5 -17t70.5 -46.5t47.5 -69
t17.5 -84.5t-17.5 -84.5t-47.5 -69t-70.5 -46.5t-85.5 -17z" />
    <glyph glyph-name="commabelowcmb" unicode="&#x326;" 
d="M-239 -500l121 345h256l-160 -345h-217z" />
    <glyph glyph-name="cedillacmb" unicode="&#x327;" 
d="M-42 -339q107 0 107 55q0 31 -28.5 43.5t-96.5 12.5h-56v101l63 139l145 -12l-49 -116q88 0 136.5 -41t48.5 -123t-63.5 -131t-163.5 -49t-154 15v120q40 -14 111 -14z" />
    <glyph glyph-name="ogonekcmb" unicode="&#x328;" 
d="M99 -305q46 0 77 9v-154q-57 -20 -124 -20q-121 0 -186.5 57.5t-65.5 149.5q0 154 168 263h155q-133 -98 -133 -202q0 -47 31.5 -75t77.5 -28z" />
    <glyph glyph-name="circumflexbelowcmb" unicode="&#x32d;" 
d="M114 -160l274 -318h-222l-163 197h-6l-163 -197h-222l274 318h228z" />
    <glyph glyph-name="brevebelowcmb" unicode="&#x32e;" 
d="M19 -348q58 0 106 48t50 124h178q-2 -138 -97.5 -227.5t-255.5 -89.5t-255.5 89.5t-97.5 227.5h178q3 -118 69.5 -145t124.5 -27z" />
    <glyph glyph-name="tildebelowcmb" unicode="&#x330;" 
d="M131 -282q63 0 65 122h158q0 -125 -60.5 -200t-148.5 -75t-157.5 68t-105.5 68q-67 0 -69 -119h-158q0 124 59.5 197.5t147.5 73.5t141 -46.5t77 -67.5t51 -21z" />
    <glyph glyph-name="macronbelowcmb" unicode="&#x331;" 
d="M346 -373h-692v143h692v-143z" />
    <glyph glyph-name="greekquestionmark" unicode="&#x37e;" horiz-adv-x="631" 
d="M57 -271l82 541h276l-137 -541h-221zM172 750.5q-46 47.5 -46 97.5t12.5 79t34 51t51 34.5t80 12.5t97.5 -47t47 -114t-47 -114t-115 -47t-114 47.5z" />
    <glyph glyph-name="tonosgreek" unicode="&#x384;" horiz-adv-x="890" 
d="M333 1588h306l-155 -325h-232z" />
    <glyph glyph-name="dieresistonosgreek" unicode="&#x385;" horiz-adv-x="1303" 
d="M516 1263l26 325h292l-126 -325h-192zM993 1259q-29 0 -53.5 10.5t-42.5 28t-28.5 41.5t-10.5 51t10.5 51t28.5 41.5t42.5 28t53.5 10.5t53.5 -10.5t42.5 -28t28.5 -41.5t10.5 -51t-10.5 -51t-28.5 -41.5t-42.5 -28t-53.5 -10.5zM311 1259q-29 0 -53.5 10.5t-42.5 28
t-28.5 41.5t-10.5 51t10.5 51t28.5 41.5t42.5 28t53.5 10.5t53.5 -10.5t42.5 -28t28.5 -41.5t10.5 -51t-10.5 -51t-28.5 -41.5t-42.5 -28t-53.5 -10.5z" />
    <glyph glyph-name="Alphatonosgreek" unicode="&#x386;" horiz-adv-x="1545" 
d="M93 1118l76 325h306l-160 -325h-222zM601 576h377l-185 591h-7zM1043 350h-507l-110 -350h-310l501 1443h355l502 -1443h-321z" />
    <glyph glyph-name="anoteleia" unicode="&#x387;" horiz-adv-x="626" 
d="M199 848.5q-46 47.5 -46 97.5t12.5 79t34 51t51 34.5t80 12.5t97.5 -47t47 -114t-47 -114t-115 -47t-114 47.5z" />
    <glyph glyph-name="Epsilontonosgreek" unicode="&#x388;" horiz-adv-x="1613" 
d="M1504 0h-956v1443h956v-249h-654v-348h617v-232h-617v-364h654v-250zM45 1118l76 325h306l-160 -325h-222z" />
    <glyph glyph-name="Etatonosgreek" unicode="&#x389;" horiz-adv-x="1944" 
d="M1500 0v608h-650v-608h-302v1443h302v-586h650v586h302v-1443h-302zM45 1118l76 325h306l-160 -325h-222z" />
    <glyph glyph-name="Iotatonosgreek" unicode="&#x38a;" horiz-adv-x="992" 
d="M45 1118l76 325h306l-160 -325h-222zM548 0v1443h302v-1443h-302z" />
    <glyph glyph-name="Omicrontonosgreek" unicode="&#x38c;" horiz-adv-x="1804" 
d="M33 1118l76 325h306l-160 -325h-222zM646 721q0 -227 105 -360t283 -133t282.5 133.5t104.5 359.5t-103.5 360.5t-283.5 134.5q-177 0 -282.5 -134t-105.5 -361zM1542.5 1267q187.5 -201 187.5 -545.5t-187.5 -545.5t-508.5 -201t-508.5 201t-187.5 545.5t187.5 545.5
t508.5 201t508.5 -201z" />
    <glyph glyph-name="Upsilontonosgreek" unicode="&#x38e;" horiz-adv-x="1810" 
d="M978 0v539l-502 904h329l323 -616h7l324 616h324l-503 -904v-539h-302zM35 1118l76 325h306l-160 -325h-222z" />
    <glyph glyph-name="Omegatonosgreek" unicode="&#x38f;" horiz-adv-x="1834" 
d="M33 1118l76 325h306l-160 -325h-222zM642 247q-292 173 -292 589q0 120 50.5 241.5t142.5 208t220.5 134.5t361.5 48t427.5 -181.5t194.5 -469.5q0 -287 -113 -408.5t-179 -161.5v-8h292v-239h-577v299q135 84 204 201.5t69 302.5t-108 299t-287 114t-287 -114t-108 -299
t69.5 -302.5t204.5 -201.5v-299h-577v239h292v8z" />
    <glyph glyph-name="iotadieresistonosgreek" unicode="&#x390;" horiz-adv-x="658" 
d="M142 1263l26 325h292l-126 -325h-192zM619 1259q-29 0 -53.5 10.5t-42.5 28t-28.5 41.5t-10.5 51t10.5 51t28.5 41.5t42.5 28t53.5 10.5t53.5 -10.5t42.5 -28t28.5 -41.5t10.5 -51t-10.5 -51t-28.5 -41.5t-42.5 -28t-53.5 -10.5zM-63 1259q-29 0 -53.5 10.5t-42.5 28
t-28.5 41.5t-10.5 51t10.5 51t28.5 41.5t42.5 28t53.5 10.5t53.5 -10.5t42.5 -28t28.5 -41.5t10.5 -51t-10.5 -51t-28.5 -41.5t-42.5 -28t-53.5 -10.5zM471 -4q-197 0 -285.5 71t-88.5 234v800h291v-734q0 -148 146 -148q46 0 84 7l10 -217q-58 -13 -157 -13z" />
    <glyph glyph-name="Alphagreek" unicode="&#x391;" horiz-adv-x="1413" 
d="M513 576h377l-185 591h-7zM955 350h-507l-110 -350h-310l501 1443h355l502 -1443h-321z" />
    <glyph glyph-name="Betagreek" unicode="&#x392;" horiz-adv-x="1331" 
d="M691 225q131 0 199.5 54t68.5 157q0 208 -275 208h-262v-419h269zM422 843h226q121 0 187 50.5t66 140.5t-58 137t-164 47h-257v-375zM120 0v1443h637q204 0 322.5 -97.5t118.5 -262.5q0 -117 -77.5 -206t-193.5 -107v-8q149 -12 244.5 -109.5t95.5 -239.5
q0 -191 -134.5 -302t-364.5 -111h-648z" />
    <glyph glyph-name="Gammagreek" unicode="&#x393;" horiz-adv-x="1114" 
d="M131 0v1443h925v-249h-623v-1194h-302z" />
    <glyph glyph-name="Deltagreek" unicode="&#x394;" horiz-adv-x="1394" 
d="M370 249h633v8l-311 920h-7l-315 -920v-8zM53 0v172l467 1271h355l467 -1271v-172h-1289z" />
    <glyph glyph-name="Epsilongreek" unicode="&#x395;" horiz-adv-x="1185" 
d="M1076 0h-956v1443h956v-249h-654v-348h617v-232h-617v-364h654v-250z" />
    <glyph glyph-name="Zetagreek" unicode="&#x396;" horiz-adv-x="1293" 
d="M822 1194h-716v249h1077v-196l-730 -990v-7h750v-250h-1114v197l733 989v8z" />
    <glyph glyph-name="Etagreek" unicode="&#x397;" horiz-adv-x="1516" 
d="M1072 0v608h-650v-608h-302v1443h302v-586h650v586h302v-1443h-302z" />
    <glyph glyph-name="Thetagreek" unicode="&#x398;" horiz-adv-x="1586" 
d="M380 721q0 -231 109.5 -362t303.5 -131t303.5 131t109.5 362t-109 363t-304 132t-304 -132t-109 -363zM1322 1267q189 -201 189 -545t-191.5 -545.5t-526.5 -201.5t-526.5 201.5t-191.5 545.5t189.5 545t529 201t528.5 -201zM537 603v228h511v-228h-511z" />
    <glyph glyph-name="Iotagreek" unicode="&#x399;" horiz-adv-x="564" 
d="M120 0v1443h302v-1443h-302z" />
    <glyph glyph-name="Kappagreek" unicode="&#x39a;" horiz-adv-x="1364" 
d="M120 0v1443h302v-658h9l542 658h336l-534 -640l571 -803h-361l-428 603l-135 -162v-441h-302z" />
    <glyph glyph-name="Lambdagreek" unicode="&#x39b;" horiz-adv-x="1383" 
d="M690 1162h-7l-345 -1162h-310l486 1443h355l486 -1443h-320z" />
    <glyph glyph-name="Mugreek" unicode="&#x39c;" horiz-adv-x="1790" 
d="M1648 0h-269v974h-8l-392 -960h-190l-392 960h-8v-974h-269v1443h350l410 -1023h8l410 1023h350v-1443z" />
    <glyph glyph-name="Nugreek" unicode="&#x39d;" horiz-adv-x="1485" 
d="M120 0v1443h252l674 -940h8v940h289v-1443h-250l-675 945h-9v-945h-289z" />
    <glyph glyph-name="Xigreek" unicode="&#x39e;" horiz-adv-x="1283" 
d="M1185 255v-255h-1087v255h1087zM185 609v238h913v-238h-913zM1185 1443v-255h-1087v255h1087z" />
    <glyph glyph-name="Omicrongreek" unicode="&#x39f;" horiz-adv-x="1541" 
d="M383 721q0 -227 105 -360t283 -133t282.5 133.5t104.5 359.5t-104 360.5t-284 134.5q-177 0 -282 -134t-105 -361zM1279.5 1267q187.5 -201 187.5 -545.5t-187.5 -545.5t-508.5 -201t-508.5 201t-187.5 545.5t187.5 545.5t508.5 201t508.5 -201z" />
    <glyph glyph-name="Pigreek" unicode="&#x3a0;" horiz-adv-x="1496" 
d="M1063 0v1194h-630v-1194h-302v1443h1234v-1443h-302z" />
    <glyph glyph-name="Rhogreek" unicode="&#x3a1;" horiz-adv-x="1291" 
d="M422 691h219q131 0 202.5 66.5t71.5 190.5t-71 190t-202 66h-220v-513zM722 1443q222 0 361 -135.5t139 -358t-143.5 -358.5t-371.5 -136h-285v-455h-302v1443h602z" />
    <glyph glyph-name="Sigmagreek" unicode="&#x3a3;" horiz-adv-x="1274" 
d="M460 250h724v-250h-1094v184l382 540l-361 506v213h1047v-249h-670v-8l312 -448v-7l-340 -474v-7z" />
    <glyph glyph-name="Taugreek" unicode="&#x3a4;" horiz-adv-x="1258" 
d="M470 0v1194h-422v249h1147v-249h-423v-1194h-302z" />
    <glyph glyph-name="Upsilongreek" unicode="&#x3a5;" horiz-adv-x="1362" 
d="M530 0v539l-502 904h329l323 -616h7l324 616h324l-503 -904v-539h-302z" />
    <glyph glyph-name="Phigreek" unicode="&#x3a6;" horiz-adv-x="1777" 
d="M750 -106v151q-310 14 -501.5 198t-191.5 471.5t191.5 471t501.5 197.5v152h277v-152q311 -14 502 -197.5t191 -470.5t-190.5 -471.5t-502.5 -198.5v-151h-277zM353 714q0 -190 105 -303t292 -127v860q-187 -14 -292 -127t-105 -303zM1424 714q0 190 -105 303t-292 127
v-860q187 14 292 127t105 303z" />
    <glyph glyph-name="Chigreek" unicode="&#x3a7;" horiz-adv-x="1405" 
d="M501 723v8l-455 712h355l306 -520h8l309 520h337l-472 -718v-7l466 -718h-344l-316 505h-8l-318 -505h-326z" />
    <glyph glyph-name="Psigreek" unicode="&#x3a8;" horiz-adv-x="1666" 
d="M1288 901v542h287v-540q0 -268 -161 -429t-437 -165v-309h-287v309q-279 6 -439 166t-160 428v540h287v-542q0 -324 312 -346v888h287v-888q311 22 311 346z" />
    <glyph glyph-name="Omegagreek" unicode="&#x3a9;" horiz-adv-x="1572" 
d="M380 247q-292 173 -292 589q0 120 50.5 241.5t142.5 208t220.5 134.5t361.5 48t427.5 -181.5t194.5 -469.5q0 -287 -113 -408.5t-179 -161.5v-8h292v-239h-577v299q135 84 204 201.5t69 302.5t-108 299t-287 114t-287 -114t-108 -299t69.5 -302.5t204.5 -201.5v-299h-577
v239h292v8z" />
    <glyph glyph-name="Iotadieresisgreek" unicode="&#x3aa;" horiz-adv-x="472" 
d="M435 1561q-29 0 -53.5 10.5t-42.5 28t-28.5 41.5t-10.5 51t10.5 51t28.5 41.5t42.5 28t53.5 10.5t53.5 -10.5t42.5 -28t28.5 -41.5t10.5 -51t-10.5 -51t-28.5 -41.5t-42.5 -28t-53.5 -10.5zM16 1561q-29 0 -53.5 10.5t-42.5 28t-28.5 41.5t-10.5 51t10.5 51t28.5 41.5
t42.5 28t53.5 10.5t53.5 -10.5t42.5 -28t28.5 -41.5t10.5 -51t-10.5 -51t-28.5 -41.5t-42.5 -28t-53.5 -10.5zM74 0v1443h302v-1443h-302z" />
    <glyph glyph-name="Upsilondieresisgreek" unicode="&#x3ab;" horiz-adv-x="1362" 
d="M891 1561q-29 0 -53.5 10.5t-42.5 28t-28.5 41.5t-10.5 51t10.5 51t28.5 41.5t42.5 28t53.5 10.5t53.5 -10.5t42.5 -28t28.5 -41.5t10.5 -51t-10.5 -51t-28.5 -41.5t-42.5 -28t-53.5 -10.5zM472 1561q-29 0 -53.5 10.5t-42.5 28t-28.5 41.5t-10.5 51t10.5 51t28.5 41.5
t42.5 28t53.5 10.5t53.5 -10.5t42.5 -28t28.5 -41.5t10.5 -51t-10.5 -51t-28.5 -41.5t-42.5 -28t-53.5 -10.5zM530 0v539l-502 904h329l323 -616h7l324 616h324l-503 -904v-539h-302z" />
    <glyph glyph-name="alphatonosgreek" unicode="&#x3ac;" horiz-adv-x="1341" 
d="M578 1588h306l-155 -325h-232zM854 185q-106 -197 -326 -197t-342.5 151.5t-122.5 412.5t123 412t332 151q164 0 235.5 -76.5t93.5 -124.5h5v188h288v-761q0 -69 19.5 -97.5t60.5 -28.5t63 9l10 -212q-55 -17 -156 -17q-212 0 -267 169q-9 15 -11 21h-5zM596 224
q113 0 180.5 89t67.5 237t-68 239t-176 91q-109 0 -173.5 -89.5t-64.5 -238.5q0 -232 89 -280t145 -48z" />
    <glyph glyph-name="epsilontonosgreek" unicode="&#x3ad;" horiz-adv-x="1173" 
d="M374 331q0 -125 214 -125t255 165h298q-24 -177 -180.5 -283.5t-388.5 -106.5q-231 0 -364 85.5t-133 232.5q0 93 53 160t148 96v6q-179 65 -179 237q0 146 135.5 234t355.5 88q359 0 439 -145t90 -236h-286q-17 79 -71 118t-159 39t-161.5 -32t-56.5 -92
q0 -113 202 -113h146v-208h-145q-100 0 -156 -31.5t-56 -88.5zM547 1588h306l-155 -325h-232z" />
    <glyph glyph-name="etatonosgreek" unicode="&#x3ae;" horiz-adv-x="1342" 
d="M551 1588h306l-155 -325h-232zM216 760q0 128 -87 128q-41 0 -73 -10v213q68 16 161 16q201 0 264 -157q8 -23 14 -46h6q45 101 135.5 157t200.5 56q203 0 305.5 -110t102.5 -303v-1050h-292v983q0 115 -55.5 176t-158.5 61t-167 -68.5t-64 -176.5v-629h-292v760z" />
    <glyph glyph-name="iotatonosgreek" unicode="&#x3af;" horiz-adv-x="658" 
d="M204 1588h306l-155 -325h-232zM471 -2q-197 0 -285.5 71t-88.5 234v800h291v-734q0 -148 146 -148q46 0 84 7l10 -217q-58 -13 -157 -13z" />
    <glyph glyph-name="upsilondieresistonosgreek" unicode="&#x3b0;" horiz-adv-x="1174" 
d="M1008 1101q88 -216 88 -550q0 -106 -34.5 -219t-135 -230.5t-346.5 -117.5q-483 0 -483 470v647h276v-612q0 -135 50 -197.5t164 -62.5t169 87.5t55 303.5t-84 481h281zM421 1263l26 325h292l-126 -325h-192zM898 1259q-29 0 -53.5 10.5t-42.5 28t-28.5 41.5t-10.5 51
t10.5 51t28.5 41.5t42.5 28t53.5 10.5t53.5 -10.5t42.5 -28t28.5 -41.5t10.5 -51t-10.5 -51t-28.5 -41.5t-42.5 -28t-53.5 -10.5zM216 1259q-29 0 -53.5 10.5t-42.5 28t-28.5 41.5t-10.5 51t10.5 51t28.5 41.5t42.5 28t53.5 10.5t53.5 -10.5t42.5 -28t28.5 -41.5t10.5 -51
t-10.5 -51t-28.5 -41.5t-42.5 -28t-53.5 -10.5z" />
    <glyph glyph-name="alphagreek" unicode="&#x3b1;" horiz-adv-x="1343" 
d="M854 184q-106 -197 -326 -197t-342.5 151.5t-122.5 412.5t123 412t332 151q164 0 235.5 -76.5t93.5 -124.5h5v188h288v-761q0 -69 19.5 -97.5t60.5 -28.5t63 9l10 -212q-55 -17 -156 -17q-212 0 -267 169q-9 15 -11 21h-5zM596 223q113 0 180.5 89t67.5 237t-68 239
t-176 91q-109 0 -173.5 -89.5t-64.5 -238.5q0 -232 89 -280t145 -48z" />
    <glyph glyph-name="betagreek" unicode="&#x3b2;" horiz-adv-x="1260" 
d="M1200 425q0 -199 -121.5 -318.5t-316.5 -119.5q-194 0 -268 75t-97 123h-6v-531h-292v1326q0 267 132.5 406.5t370.5 139.5t363 -101.5t125 -280.5q0 -109 -57 -190.5t-162 -123.5v-5q329 -74 329 -400zM619 1296q-230 0 -230 -278v-464q0 -160 72.5 -245.5t194.5 -85.5
t184 61t62 171t-76 175.5t-223 65.5h-75v213h72q108 0 166 50.5t58 142.5t-55.5 143t-149.5 51z" />
    <glyph glyph-name="gammagreek" unicode="&#x3b3;" horiz-adv-x="1179" 
d="M1098 910q0 -222 -94 -438t-308 -510v-303h-286v282l-395 1160h304l256 -867h6q122 182 179 343.5t57 346.5q0 82 -11 177h281q11 -80 11 -191z" />
    <glyph glyph-name="deltagreek" unicode="&#x3b4;" horiz-adv-x="1183" 
d="M823 504q0 229 -91.5 271t-146.5 42q-111 0 -173 -86.5t-62 -229.5t63 -225.5t174 -82.5q110 0 173 81t63 230zM689 1312q-152 0 -152 -88q0 -35 28.5 -62.5t134.5 -86.5q224 -123 323.5 -257.5t99.5 -308.5q0 -241 -145.5 -384.5t-389.5 -143.5t-387 137.5t-143 375.5
q0 190 107 317.5t282 158.5v5q-214 100 -214 269q0 134 109 208t321 74t359 -67l-10 -214q-171 67 -323 67z" />
    <glyph glyph-name="epsilongreek" unicode="&#x3b5;" horiz-adv-x="1183" 
d="M374 331q0 -125 214 -125t255 165h298q-24 -177 -180.5 -283.5t-388.5 -106.5q-231 0 -364 85.5t-133 232.5q0 93 53 160t148 96v6q-179 65 -179 237q0 146 135.5 234t355.5 88q359 0 439 -145t90 -236h-286q-17 79 -71 118t-159 39t-161.5 -32t-56.5 -92
q0 -113 202 -113h146v-208h-145q-100 0 -156 -31.5t-56 -88.5z" />
    <glyph glyph-name="zetagreek" unicode="&#x3b6;" horiz-adv-x="990" 
d="M965 1312q-611 -382 -611 -708q0 -74 12.5 -118.5t59.5 -94.5t229 -113q182 -64 256 -144t74 -222t-112 -304l-229 46q67 110 67 189t-42 118.5t-164 79.5q-244 80 -344.5 196t-100.5 304t119.5 368.5t357.5 365.5v6h-395v231h823v-200z" />
    <glyph glyph-name="etagreek" unicode="&#x3b7;" horiz-adv-x="1342" 
d="M216 760q0 128 -87 128q-41 0 -73 -10v213q68 16 161 16q201 0 264 -157q8 -23 14 -46h6q45 101 135.5 157t200.5 56q203 0 305.5 -110t102.5 -303v-1050h-292v983q0 115 -55.5 176t-158.5 61t-167 -68.5t-64 -176.5v-629h-292v760z" />
    <glyph glyph-name="thetagreek" unicode="&#x3b8;" horiz-adv-x="1255" 
d="M885 870q-11 439 -257 439t-258 -439h515zM628 199q192 0 223.5 168.5t33.5 286.5h-515q4 -235 66 -345t192 -110zM628 -19q-550 0 -550 776q0 569 208 669t409 100t341.5 -197.5t140.5 -576.5t-138 -575t-411 -196z" />
    <glyph glyph-name="iotagreek" unicode="&#x3b9;" horiz-adv-x="658" 
d="M471 -4q-197 0 -285.5 71t-88.5 234v800h291v-734q0 -148 146 -148q46 0 84 7l10 -217q-58 -13 -157 -13z" />
    <glyph glyph-name="kappagreek" unicode="&#x3ba;" horiz-adv-x="1211" 
d="M969.5 867.5q-32.5 -20.5 -87.5 -83.5l-137 -152l413 -632h-308l-298 462l-167 -181v-281h-286v1101h286v-507h5l282 326q93 109 157.5 148t153.5 39t137 -16v-213q-25 10 -71 10q-47 0 -79.5 -20.5z" />
    <glyph glyph-name="lambdagreek" unicode="&#x3bb;" horiz-adv-x="1195" 
d="M1052 -6q-140 0 -207 47t-108 171l-160 480h-5l-265 -692h-287l441 1037l-36 96q-41 106 -80 140t-102 34t-90 -10v212q55 17 134 17q159 0 239.5 -75t159.5 -299l288 -819q26 -70 55 -94.5t72 -24.5t67 9l10 -212q-48 -17 -126 -17z" />
    <glyph glyph-name="mugreek" unicode="&#x3bc;" horiz-adv-x="1344" 
d="M564 -16q-50 0 -97.5 22t-70.5 58h-5v-410h-292v1447h292v-639q0 -113 55 -173.5t159 -60.5t167.5 67.5t63.5 178.5v627h292v-761q0 -70 20 -98t61 -28t62 9l10 -212q-59 -17 -148 -17q-234 0 -281 197h-5q-55 -147 -144 -177t-139 -30z" />
    <glyph glyph-name="nugreek" unicode="&#x3bd;" horiz-adv-x="1168" 
d="M1088 909q0 -219 -80 -421t-283 -488h-335l-375 1101h304l256 -867h6q176 267 199 430t23 252t-11 185h284q12 -90 12 -192z" />
    <glyph glyph-name="xigreek" unicode="&#x3be;" horiz-adv-x="1015" 
d="M644 -346q67 109 67 189q0 81 -43.5 119.5t-174.5 82.5q-251 85 -342 176.5t-91 229.5q0 183 107.5 241.5t171.5 72.5v5q-110 40 -163 101t-53 205.5t233 199.5v5h-229v231h824v-203l-130 -16q-230 -28 -323 -77t-93 -138q0 -90 69.5 -124.5t213.5 -34.5h186v-221h-200
q-320 0 -320 -185q0 -75 60 -123.5t194 -95.5q134 -46 198.5 -81.5t121.5 -95.5t57 -203q0 -144 -112 -306z" />
    <glyph glyph-name="omicrongreek" unicode="&#x3bf;" horiz-adv-x="1201" 
d="M601 212q115 0 178 88.5t63 250.5q0 242 -92.5 290.5t-176.5 48.5t-149 -90.5t-65 -250.5t63.5 -248.5t178.5 -88.5zM60 551q0 263 145.5 416t395.5 153t395 -153t145 -416.5t-145 -416.5t-395.5 -153t-395.5 153.5t-145 416.5z" />
    <glyph glyph-name="pigreek" unicode="&#x3c0;" horiz-adv-x="1485" 
d="M1198 -6q-168 0 -236.5 67.5t-68.5 230.5v580h-339v-872h-279v872h-205v229h1330v-229h-228v-537q0 -64 25 -92.5t63 -28.5t72 9l10 -212q-57 -17 -144 -17z" />
    <glyph glyph-name="rhogreek" unicode="&#x3c1;" horiz-adv-x="1226" 
d="M80 533q0 271 146.5 429t396.5 158t396.5 -152t146.5 -413t-122.5 -414.5t-336.5 -153.5q-171 0 -240 76t-90 122h-6v-531h-291v879zM867 562q0 235 -94.5 281.5t-152.5 46.5t-105 -23t-78.5 -66t-48 -105.5t-16.5 -179.5t64.5 -205t180.5 -88q117 0 183.5 88.5
t66.5 250.5z" />
    <glyph glyph-name="sigmafinalgreek" unicode="&#x3c2;" horiz-adv-x="1134" 
d="M644 -346q67 110 67 189t-40 117t-161 79q-243 82 -346.5 205t-103.5 352q0 228 142 376t373 148t361 -112t146 -313h-271q-14 93 -69.5 144t-129.5 51q-131 0 -194.5 -77t-63.5 -204t60.5 -196.5t193.5 -117.5q133 -47 199 -83t122 -96.5t56 -202.5q0 -143 -112 -305z
" />
    <glyph glyph-name="sigmagreek" unicode="&#x3c3;" horiz-adv-x="1345" 
d="M838 539q0 150 -62.5 236.5t-173.5 86.5q-112 0 -180 -87.5t-68 -239t65 -239.5t175 -88q112 0 178 90.5t66 240.5zM996 866q130 -111 130 -349q0 -239 -146.5 -387.5t-391 -148.5t-389 148.5t-144.5 404.5q0 255 158 411t418 156h654v-229h-289v-6z" />
    <glyph glyph-name="taugreek" unicode="&#x3c4;" horiz-adv-x="1107" 
d="M676 367q0 -148 138 -148q65 0 104 7l10 -217q-67 -13 -166 -13q-202 0 -289 71t-87 233v572h-328v229h1014v-229h-396v-505z" />
    <glyph glyph-name="upsilongreek" unicode="&#x3c5;" horiz-adv-x="1174" 
d="M1008 1101q88 -216 88 -550q0 -106 -34.5 -219t-135 -230.5t-346.5 -117.5q-483 0 -483 470v647h276v-612q0 -135 50 -197.5t164 -62.5t169 87.5t55 303.5t-84 481h281z" />
    <glyph glyph-name="phigreek" unicode="&#x3c6;" horiz-adv-x="1554" 
d="M325 552q0 -156 86.5 -247t237.5 -101v694q-152 -6 -238 -98t-86 -248zM1229 552q0 156 -86 248t-238 98v-694q233 16 278.5 143t45.5 205zM211 962.5q166 153.5 433 159.5v273h266v-273q267 -6 433 -159.5t166 -409.5t-166.5 -409t-432.5 -163v-327h-266v327
q-266 10 -432.5 163t-166.5 409t166 409.5z" />
    <glyph glyph-name="chigreek" unicode="&#x3c7;" horiz-adv-x="1230" 
d="M883 -313q-62 39 -115 143l-147 285h-5l-236 -461h-292l401 710l-212 406q-37 72 -70.5 95t-76.5 23t-71 -10v213q62 16 129 16q125 0 191 -43t123 -153l155 -302h5l258 492h291l-421 -742l193 -370q52 -100 88.5 -111t68.5 -11t56 10l5 -213q-59 -16 -157 -16
q-99 0 -161 39z" />
    <glyph glyph-name="psigreek" unicode="&#x3c8;" horiz-adv-x="1559" 
d="M1196 580q0 272 -91 521h284q92 -206 92 -502t-149 -455.5t-423 -159.5v-330h-276v330q-392 3 -464 180.5t-72 290.5v646h276v-586q0 -156 60.5 -221t199.5 -65v1166h276v-1164q287 2 287 349z" />
    <glyph glyph-name="omegagreek" unicode="&#x3c9;" horiz-adv-x="1629" 
d="M1397 1101q154 -244 154 -605q0 -238 -103.5 -376.5t-319.5 -138.5q-217 0 -310 244h-7q-93 -244 -320 -244q-413 0 -413 540q0 239 59 381t95 199h293q-163 -290 -163 -582q0 -293 158 -293q80 0 120.5 54.5t40.5 152.5v354h266v-354q0 -98 40.5 -152.5t120.5 -54.5
q159 0 159 293t-163 582h293z" />
    <glyph glyph-name="iotadieresisgreek" unicode="&#x3ca;" horiz-adv-x="658" 
d="M471 -4q-197 0 -285.5 71t-88.5 234v800h291v-734q0 -148 146 -148q46 0 84 7l10 -217q-58 -13 -157 -13zM462 1259q-29 0 -53.5 10.5t-42.5 28t-28.5 41.5t-10.5 51t10.5 51t28.5 41.5t42.5 28t53.5 10.5t53.5 -10.5t42.5 -28t28.5 -41.5t10.5 -51t-10.5 -51
t-28.5 -41.5t-42.5 -28t-53.5 -10.5zM43 1259q-29 0 -53.5 10.5t-42.5 28t-28.5 41.5t-10.5 51t10.5 51t28.5 41.5t42.5 28t53.5 10.5t53.5 -10.5t42.5 -28t28.5 -41.5t10.5 -51t-10.5 -51t-28.5 -41.5t-42.5 -28t-53.5 -10.5z" />
    <glyph glyph-name="upsilondieresisgreek" unicode="&#x3cb;" horiz-adv-x="1174" 
d="M1008 1101q88 -216 88 -550q0 -106 -34.5 -219t-135 -230.5t-346.5 -117.5q-483 0 -483 470v647h276v-612q0 -135 50 -197.5t164 -62.5t169 87.5t55 303.5t-84 481h281zM774 1259q-29 0 -53.5 10.5t-42.5 28t-28.5 41.5t-10.5 51t10.5 51t28.5 41.5t42.5 28t53.5 10.5
t53.5 -10.5t42.5 -28t28.5 -41.5t10.5 -51t-10.5 -51t-28.5 -41.5t-42.5 -28t-53.5 -10.5zM355 1259q-29 0 -53.5 10.5t-42.5 28t-28.5 41.5t-10.5 51t10.5 51t28.5 41.5t42.5 28t53.5 10.5t53.5 -10.5t42.5 -28t28.5 -41.5t10.5 -51t-10.5 -51t-28.5 -41.5t-42.5 -28
t-53.5 -10.5z" />
    <glyph glyph-name="omicrontonosgreek" unicode="&#x3cc;" horiz-adv-x="1201" 
d="M567 1588h306l-155 -325h-232zM601 212q115 0 178 88.5t63 250.5q0 242 -92.5 290.5t-176.5 48.5t-149 -90.5t-65 -250.5t63.5 -248.5t178.5 -88.5zM60 551q0 263 145.5 416t395.5 153t395 -153t145 -416.5t-145 -416.5t-395.5 -153t-395.5 153.5t-145 416.5z" />
    <glyph glyph-name="upsilontonosgreek" unicode="&#x3cd;" horiz-adv-x="1174" 
d="M1008 1101q88 -216 88 -550q0 -106 -34.5 -219t-135 -230.5t-346.5 -117.5q-483 0 -483 470v647h276v-612q0 -135 50 -197.5t164 -62.5t169 87.5t55 303.5t-84 481h281zM506 1588h306l-155 -325h-232z" />
    <glyph glyph-name="omegatonosgreek" unicode="&#x3ce;" horiz-adv-x="1629" 
d="M759 1588h306l-155 -325h-232zM1397 1101q154 -244 154 -605q0 -238 -103.5 -376.5t-319.5 -138.5q-217 0 -310 244h-7q-93 -244 -320 -244q-413 0 -413 540q0 239 59 381t95 199h293q-163 -290 -163 -582q0 -293 158 -293q80 0 120.5 54.5t40.5 152.5v354h266v-354
q0 -98 40.5 -152.5t120.5 -54.5q159 0 159 293t-163 582h293z" />
    <glyph glyph-name="Iocyrillic" unicode="&#x401;" horiz-adv-x="1205" 
d="M1086 0h-956v1443h956v-249h-654v-348h617v-232h-617v-364h654v-250zM818 1561q-29 0 -53.5 10.5t-42.5 28t-28.5 41.5t-10.5 51t10.5 51t28.5 41.5t42.5 28t53.5 10.5t53.5 -10.5t42.5 -28t28.5 -41.5t10.5 -51t-10.5 -51t-28.5 -41.5t-42.5 -28t-53.5 -10.5zM399 1561
q-29 0 -53.5 10.5t-42.5 28t-28.5 41.5t-10.5 51t10.5 51t28.5 41.5t42.5 28t53.5 10.5t53.5 -10.5t42.5 -28t28.5 -41.5t10.5 -51t-10.5 -51t-28.5 -41.5t-42.5 -28t-53.5 -10.5z" />
    <glyph glyph-name="Djecyrillic" unicode="&#x402;" horiz-adv-x="1743" 
d="M796 785q130 122 356 122q225 0 358 -133t133 -351t-136 -354t-373 -136q-108 0 -146 17v237q36 -12 132 -12t158 62t62 173t-69 175.5t-203 64.5q-133 0 -197.5 -63.5t-82.5 -99.5v-487h-302v1194h-423v249h1148v-249h-423v-409h8z" />
    <glyph glyph-name="Gjecyrillic" unicode="&#x403;" horiz-adv-x="1134" 
d="M141 0v1443h930v-250h-627v-1193h-303zM499 1538l232 310h273l-277 -310h-228z" />
    <glyph glyph-name="Ecyrillic" unicode="&#x404;" horiz-adv-x="1479" 
d="M223.5 222.5q-136.5 149.5 -136.5 498.5t185 551.5t498 202.5q253 0 428.5 -145t203.5 -374h-297q-27 117 -118.5 189.5t-227.5 72.5t-237 -99t-119 -270h566v-234h-568q14 -180 115 -285t242 -105t229 65.5t119 181.5h297q-34 -231 -204.5 -367.5t-442.5 -136.5
q-144 0 -270 52.5t-262.5 202z" />
    <glyph glyph-name="Dzecyrillic" unicode="&#x405;" horiz-adv-x="1314" 
d="M860.5 265.5q75.5 51.5 75.5 126.5t-56.5 118t-186.5 72l-188 41q-397 85 -397 403q0 198 154.5 320t401.5 122t395.5 -118.5t152.5 -315.5h-283q-8 90 -80.5 143t-185.5 53t-182 -48.5t-69 -122.5t55.5 -115t180.5 -69l175 -37q321 -68 368 -196t47 -222t-41 -178
t-158 -175.5t-382 -91.5t-420 117t-161 319h291q10 -87 93.5 -142t204 -55t196 51.5z" />
    <glyph glyph-name="Icyrillic" unicode="&#x406;" horiz-adv-x="628" 
d="M130 0v1443h302v-1443h-302z" />
    <glyph glyph-name="Yicyrillic" unicode="&#x407;" horiz-adv-x="628" 
d="M491 1561q-29 0 -53.5 10.5t-42.5 28t-28.5 41.5t-10.5 51t10.5 51t28.5 41.5t42.5 28t53.5 10.5t53.5 -10.5t42.5 -28t28.5 -41.5t10.5 -51t-10.5 -51t-28.5 -41.5t-42.5 -28t-53.5 -10.5zM72 1561q-29 0 -53.5 10.5t-42.5 28t-28.5 41.5t-10.5 51t10.5 51t28.5 41.5
t42.5 28t53.5 10.5t53.5 -10.5t42.5 -28t28.5 -41.5t10.5 -51t-10.5 -51t-28.5 -41.5t-42.5 -28t-53.5 -10.5zM130 0v1443h302v-1443h-302z" />
    <glyph glyph-name="Jecyrillic" unicode="&#x408;" horiz-adv-x="1163" 
d="M526 231q95 0 144.5 57t49.5 166v989h302v-991q0 -230 -130 -356t-357 -126t-360.5 124t-133.5 331h293q3 -136 76 -165t116 -29z" />
    <glyph glyph-name="Ljecyrillic" unicode="&#x409;" horiz-adv-x="2226" 
d="M1569 241q129 0 200 60.5t71 178.5t-71.5 179.5t-201.5 61.5h-213v-480h215zM143 257q39 0 74.5 25.5t63.5 84.5t37 223l43 853h993v-484h279q228 0 371.5 -132t143.5 -347t-138 -347.5t-361 -132.5h-597v1194h-421l-35 -624q-15 -284 -114 -433.5t-313 -149.5
q-70 0 -109 14v264q44 -8 83 -8z" />
    <glyph glyph-name="Njecyrillic" unicode="&#x40a;" horiz-adv-x="2227" 
d="M443 0h-302v1443h302v-576h620v576h302v-576h280q229 0 372 -118t143 -313t-138.5 -315.5t-361.5 -120.5h-597v623h-620v-623zM1595 241q125 0 192.5 52t67.5 146t-68 143.5t-193 49.5h-229v-391h230z" />
    <glyph glyph-name="Tshecyrillic" unicode="&#x40b;" horiz-adv-x="1753" 
d="M796 786q127 121 350 121t352.5 -141.5t129.5 -378.5v-387h-302v369q0 134 -65.5 207.5t-198.5 73.5t-194.5 -64.5t-79.5 -98.5v-487h-302v1194h-423v249h1148v-249h-423v-408h8z" />
    <glyph glyph-name="Kjecyrillic" unicode="&#x40c;" horiz-adv-x="1377" 
d="M443 634v-634h-302v1443h302v-611h8l533 611h341l-598 -683l645 -760h-377l-544 634h-8zM807 1538h-228l232 310h273z" />
    <glyph glyph-name="Ushortcyrillic" unicode="&#x40e;" horiz-adv-x="1336" 
d="M320 239q131 0 197 105l-479 1099h320l317 -802h8l302 802h318l-442 -1030q-97 -227 -210.5 -326.5t-300.5 -99.5q-102 0 -125 15v246q36 -9 95 -9zM678 1670q76 0 123 45.5t49 122.5h176q0 -140 -95.5 -225t-251.5 -85t-251.5 85t-95.5 225h176q3 -118 67.5 -143
t102.5 -25z" />
    <glyph glyph-name="Dzhecyrillic" unicode="&#x40f;" horiz-adv-x="1521" 
d="M141 0v1443h302v-1194h635v1194h302v-1443h-478v-285h-283v285h-478z" />
    <glyph glyph-name="Acyrillic" unicode="&#x410;" horiz-adv-x="1433" 
d="M523 576h377l-185 591h-7zM965 350h-507l-110 -350h-310l501 1443h355l502 -1443h-321z" />
    <glyph glyph-name="Becyrillic" unicode="&#x411;" horiz-adv-x="1318" 
d="M658 241q127 0 196.5 54.5t69.5 160.5t-69.5 160.5t-197.5 54.5h-214v-430h215zM1094.5 125.5q-138.5 -125.5 -361.5 -125.5h-592v1443h959v-249h-657v-293h280q226 0 368 -123t142 -325t-138.5 -327.5z" />
    <glyph glyph-name="Vecyrillic" unicode="&#x412;" horiz-adv-x="1351" 
d="M701 225q131 0 199.5 54t68.5 157q0 208 -275 208h-262v-419h269zM432 843h226q121 0 187 50.5t66 140.5t-58 137t-164 47h-257v-375zM130 0v1443h637q204 0 322.5 -97.5t118.5 -262.5q0 -117 -77.5 -206t-193.5 -107v-8q149 -12 244.5 -109.5t95.5 -239.5
q0 -191 -134.5 -302t-364.5 -111h-648z" />
    <glyph glyph-name="Gecyrillic" unicode="&#x413;" horiz-adv-x="1134" 
d="M141 0v1443h930v-250h-627v-1193h-303z" />
    <glyph glyph-name="Decyrillic" unicode="&#x414;" horiz-adv-x="1561" 
d="M299 -285h-274v535h101q103 71 120 187.5t22 190.5l50 815h1023v-1193h180v-535h-273v285h-949v-285zM450 250h589v945h-455l-38 -590q-8 -121 -28 -206t-68 -141v-8z" />
    <glyph glyph-name="Iecyrillic" unicode="&#x415;" horiz-adv-x="1205" 
d="M1086 0h-956v1443h956v-249h-654v-348h617v-232h-617v-364h654v-250z" />
    <glyph glyph-name="Zhecyrillic" unicode="&#x416;" horiz-adv-x="2064" 
d="M1177 634v-634h-294v634h-8l-495 -634h-362l590 754l-556 689h342l481 -611h8v611h294v-611h8l482 611h336l-552 -684l596 -759h-370l-492 634h-8z" />
    <glyph glyph-name="Zecyrillic" unicode="&#x417;" horiz-adv-x="1286" 
d="M445 855h191q107 0 175 54.5t68 144.5t-63.5 140.5t-175.5 50.5q-171 0 -212 -79.5t-44 -127.5h-279q8 205 154.5 323.5t382.5 118.5q237 0 381 -108t144 -283q0 -123 -75 -213.5t-197 -116.5v-8q146 -16 232 -112t86 -240q0 -191 -162 -313.5t-410 -122.5t-403 122.5
t-165 324.5h289q9 -142 114.5 -172.5t165.5 -30.5q118 0 189.5 58.5t71.5 153.5t-69.5 148t-194.5 53h-194v235z" />
    <glyph glyph-name="Iicyrillic" unicode="&#x418;" horiz-adv-x="1541" 
d="M1099 976h-12l-655 -976h-291v1443h301v-977h12l655 977h291v-1443h-301v976z" />
    <glyph glyph-name="Iishortcyrillic" unicode="&#x419;" horiz-adv-x="1541" 
d="M1099 976h-12l-655 -976h-291v1443h301v-977h12l655 977h291v-1443h-301v976zM764 1670q76 0 123 45.5t49 122.5h176q0 -140 -95.5 -225t-251.5 -85t-251.5 85t-95.5 225h176q3 -118 67.5 -143t102.5 -25z" />
    <glyph glyph-name="Kacyrillic" unicode="&#x41a;" horiz-adv-x="1393" 
d="M443 634v-634h-302v1443h302v-611h8l533 611h341l-598 -683l645 -760h-377l-544 634h-8z" />
    <glyph glyph-name="Elcyrillic" unicode="&#x41b;" horiz-adv-x="1480" 
d="M126 257q82 0 125.5 81t51.5 252l43 853h993v-1443h-302v1194h-421l-35 -624q-17 -291 -117 -437t-310 -146q-67 0 -109 14v264q45 -8 81 -8z" />
    <glyph glyph-name="Emcyrillic" unicode="&#x41c;" horiz-adv-x="1810" 
d="M1658 0h-269v974h-8l-392 -960h-190l-392 960h-8v-974h-269v1443h350l410 -1023h8l410 1023h350v-1443z" />
    <glyph glyph-name="Encyrillic" unicode="&#x41d;" horiz-adv-x="1536" 
d="M1082 0v608h-650v-608h-302v1443h302v-586h650v586h302v-1443h-302z" />
    <glyph glyph-name="Ocyrillic" unicode="&#x41e;" horiz-adv-x="1566" 
d="M498 1082q-105 -134 -105 -361t105 -360t283 -133t282.5 133.5t104.5 359.5t-104 360.5t-283 134.5q-178 0 -283 -134zM1289.5 1267q187.5 -201 187.5 -545.5t-187.5 -545.5t-508.5 -201t-508.5 201t-187.5 545.5t187.5 545.5t508.5 201t508.5 -201z" />
    <glyph glyph-name="Pecyrillic" unicode="&#x41f;" horiz-adv-x="1521" 
d="M1079 0v1193h-635v-1193h-303v1443h1239v-1443h-301z" />
    <glyph glyph-name="Ercyrillic" unicode="&#x420;" horiz-adv-x="1310" 
d="M432 691h219q131 0 202.5 66.5t71.5 190.5t-71 190t-202 66h-220v-513zM732 1443q222 0 361 -135.5t139 -358t-143.5 -358.5t-371.5 -136h-285v-455h-302v1443h602z" />
    <glyph glyph-name="Escyrillic" unicode="&#x421;" horiz-adv-x="1479" 
d="M223.5 222.5q-136.5 149.5 -136.5 498.5t185 551.5t498 202.5q253 0 428.5 -145t203.5 -374h-297q-27 117 -118.5 189.5t-196.5 72.5q-192 0 -293 -134t-101 -364q0 -229 101 -362t274 -133q128 0 216 65.5t119 181.5h297q-34 -231 -204.5 -367.5t-442.5 -136.5
q-144 0 -270 52.5t-262.5 202z" />
    <glyph glyph-name="Tecyrillic" unicode="&#x422;" horiz-adv-x="1278" 
d="M480 0v1194h-422v249h1147v-249h-423v-1194h-302z" />
    <glyph glyph-name="Ucyrillic" unicode="&#x423;" horiz-adv-x="1336" 
d="M320 239q131 0 197 105l-479 1099h320l317 -802h8l302 802h318l-442 -1030q-97 -227 -210.5 -326.5t-300.5 -99.5q-102 0 -125 15v246q36 -9 95 -9z" />
    <glyph glyph-name="Efcyrillic" unicode="&#x424;" horiz-adv-x="1781" 
d="M258 1154.5q180 159.5 484 169.5v149h297v-149q305 -10 484.5 -169t179.5 -430.5t-180 -431t-484 -169.5v-154h-297v154q-303 8 -483.5 169t-180.5 431q0 271 180 430.5zM1302 978q-98 96 -266 104v-715q168 8 266 103t98 253.5t-98 254.5zM381 724q0 -159 99.5 -255
t265.5 -102v715q-167 -8 -266 -103.5t-99 -254.5z" />
    <glyph glyph-name="Xacyrillic" unicode="&#x425;" horiz-adv-x="1425" 
d="M511 723v8l-455 712h355l306 -520h8l309 520h337l-472 -718v-7l466 -718h-344l-316 505h-8l-318 -505h-326z" />
    <glyph glyph-name="Tsecyrillic" unicode="&#x426;" horiz-adv-x="1600" 
d="M1287 -285v285h-1146v1443h302v-1194h635v1194h302v-1194h180v-534h-273z" />
    <glyph glyph-name="Checyrillic" unicode="&#x427;" horiz-adv-x="1463" 
d="M1012 621q-137 -123 -367 -123t-376 146t-146 389v410h302v-381q0 -219 109.5 -262t197.5 -43t169 44t119 122v520h302v-1443h-302v621h-8z" />
    <glyph glyph-name="Shacyrillic" unicode="&#x428;" horiz-adv-x="2008" 
d="M141 1443h302v-1194h410v1194h302v-1194h410v1194h302v-1443h-1726v1443z" />
    <glyph glyph-name="Shchacyrillic" unicode="&#x429;" horiz-adv-x="2087" 
d="M1774 -285v285h-1633v1443h302v-1194h410v1194h302v-1194h410v1194h302v-1194h180v-534h-273z" />
    <glyph glyph-name="Hardsigncyrillic" unicode="&#x42a;" horiz-adv-x="1579" 
d="M932 241q130 0 200.5 60.5t70.5 178.5t-71 179.5t-201 61.5h-214v-480h215zM415 0v1195h-335v248h637v-484h280q228 0 371.5 -132t143.5 -347t-138.5 -347.5t-361.5 -132.5h-597z" />
    <glyph glyph-name="Yericyrillic" unicode="&#x42b;" horiz-adv-x="1839" 
d="M658 241q130 0 200.5 60.5t70.5 178.5t-71 179.5t-201 61.5h-214v-480h215zM141 1443h302v-484h280q228 0 371.5 -132t143.5 -347t-138.5 -347.5t-361.5 -132.5h-597v1443zM1385 0v1443h302v-1443h-302z" />
    <glyph glyph-name="Softsigncyrillic" unicode="&#x42c;" horiz-adv-x="1305" 
d="M658 241q130 0 200.5 60.5t70.5 178.5t-71 179.5t-201 61.5h-214v-480h215zM141 1443h302v-484h280q228 0 371.5 -132t143.5 -347t-138.5 -347.5t-361.5 -132.5h-597v1443z" />
    <glyph glyph-name="Ereversedcyrillic" unicode="&#x42d;" horiz-adv-x="1479" 
d="M729 -32q-272 0 -444.5 136t-208.5 368h297q49 -177 163 -212t184 -35q146 0 246.5 106t112.5 284h-569v234h566q-16 169 -114.5 269t-246.5 100q-194 0 -260.5 -101t-80.5 -161h-297q28 230 206.5 374.5t431.5 144.5q313 0 495 -203t182 -551t-135 -498t-260 -202.5
t-268 -52.5z" />
    <glyph glyph-name="IUcyrillic" unicode="&#x42e;" horiz-adv-x="2102" 
d="M1056 355.5q102 -136.5 274 -136.5t274.5 136.5t102.5 367t-102.5 366t-273.5 135.5t-274 -136.5t-103 -366t102 -366zM443 608v-608h-302v1443h302v-586h213q36 293 216 458t477 165t481.5 -203.5t184.5 -554t-183.5 -555t-493.5 -204.5q-296 0 -475 172t-209 473h-211z
" />
    <glyph glyph-name="IAcyrillic" unicode="&#x42f;" horiz-adv-x="1380" 
d="M123 991q0 90 36.5 176t142.5 181t345 95h592v-1443h-300v521h-207l-343 -521h-334l380 563q-220 69 -266 203.5t-46 224.5zM939 1206h-249q-120 0 -189 -61t-69 -169q0 -109 68 -169.5t190 -60.5h249v460z" />
    <glyph glyph-name="acyrillic" unicode="&#x430;" horiz-adv-x="1149" 
d="M422 -13q-146 0 -252 92t-106 240q0 149 111 232t323 96l275 17v73q0 80 -50.5 122t-136.5 42t-137.5 -38t-62.5 -98h-267q6 158 137 256.5t340 98.5t336.5 -100.5t127.5 -264.5v-755h-282v170h-6q-70 -131 -177 -157t-173 -26zM516 200q117 0 187 57.5t70 146.5v81
l-231 -16q-187 -12 -187 -105t47.5 -128.5t113.5 -35.5z" />
    <glyph glyph-name="becyrillic" unicode="&#x431;" horiz-adv-x="1244" 
d="M626 207q118 0 183.5 84.5t65.5 236.5t-65.5 234t-183.5 82t-183.5 -82t-65.5 -234t65.5 -236.5t183.5 -84.5zM684 1063q222 0 356 -142t134 -393q0 -250 -145.5 -401t-397.5 -151q-406 0 -479.5 248t-73.5 446q0 421 149 629t460 218l125 4q214 8 289 46v-228
q-25 -25 -120 -36t-151 -12l-118 -4q-202 -6 -291.5 -107t-116.5 -323h8q107 206 372 206z" />
    <glyph glyph-name="vecyrillic" unicode="&#x432;" horiz-adv-x="1151" 
d="M109 1101h554q261 0 312.5 -106.5t51.5 -160.5q0 -100 -56.5 -167.5t-141.5 -81.5v-8q110 -14 178.5 -84.5t68.5 -158.5q0 -162 -109 -248t-294 -86h-564v1101zM601 188q183 0 183 147.5t-198 147.5h-191v-295h206zM570 655q172 0 172 130q0 62 -40.5 95.5t-115.5 33.5
h-191v-259h175z" />
    <glyph glyph-name="gecyrillic" unicode="&#x433;" horiz-adv-x="938" 
d="M400 880v-880h-291v1101h764v-221h-473z" />
    <glyph glyph-name="decyrillic" unicode="&#x434;" horiz-adv-x="1328" 
d="M20 -285v507h85q103 59 122 321l36 558h873v-879h164v-507h-266v285h-748v-285h-266zM846 881h-336l-25 -356q-15 -197 -82 -295v-8h443v659z" />
    <glyph glyph-name="iecyrillic" unicode="&#x435;" horiz-adv-x="1179" 
d="M211.5 964.5q143.5 155.5 383.5 155.5t380.5 -148t140.5 -399v-90h-760v-18q0 -119 70 -192.5t170 -73.5q197 0 242 137h269q-24 -159 -160.5 -257t-351.5 -98q-239 0 -383 151.5t-144 414t143.5 418zM433.5 835.5q-66.5 -66.5 -74.5 -171.5h475q-4 107 -68 172.5
t-165 65.5t-167.5 -66.5z" />
    <glyph glyph-name="zhecyrillic" unicode="&#x436;" horiz-adv-x="1708" 
d="M996 476v-476h-288v476h-8l-344 -476h-343l424 583l-411 518h336l338 -446h8v446h288v-446h8l337 446h333l-406 -511l427 -590h-348l-343 476h-8z" />
    <glyph glyph-name="zecyrillic" unicode="&#x437;" horiz-adv-x="1103" 
d="M739 340q0 129 -188 129h-153v192h145q164 0 164 120q0 55 -40.5 89t-120.5 34t-129.5 -34t-59.5 -97h-275q16 165 138.5 258.5t323.5 93.5q327 0 387 -120t60 -177q0 -100 -46.5 -163t-120.5 -82v-8q101 -26 153.5 -89.5t52.5 -149.5q0 -168 -128.5 -263.5t-346.5 -95.5
t-348.5 97.5t-146.5 270.5h280q38 -142 210 -142q91 0 140 37t49 100z" />
    <glyph glyph-name="iicyrillic" unicode="&#x438;" horiz-adv-x="1254" 
d="M109 0v1101h286v-697h8l456 697h286v-1101h-286v705h-8l-456 -705h-286z" />
    <glyph glyph-name="iishortcyrillic" unicode="&#x439;" horiz-adv-x="1254" 
d="M109 0v1101h286v-697h8l456 697h286v-1101h-286v705h-8l-456 -705h-286zM648 1403q58 0 105 51t49 133h179q0 -147 -97 -238t-255.5 -91t-255 91t-96.5 238h178q3 -128 69 -156t124 -28z" />
    <glyph glyph-name="kacyrillic" unicode="&#x43a;" horiz-adv-x="1153" 
d="M400 476v-476h-291v1101h291v-446h8l374 446h334l-445 -511l470 -590h-353l-380 476h-8z" />
    <glyph glyph-name="elcyrillic" unicode="&#x43b;" horiz-adv-x="1215" 
d="M103 240q68 0 100 77.5t41 225.5l32 558h830v-1101h-291v880h-289l-23 -355q-15 -262 -100.5 -400t-276.5 -138q-62 0 -93 14v247q37 -8 70 -8z" />
    <glyph glyph-name="emcyrillic" unicode="&#x43c;" horiz-adv-x="1565" 
d="M109 0v1101h377l295 -728h8l294 728h373v-1101h-275v739h-8l-289 -679h-203l-290 679h-8v-739h-274z" />
    <glyph glyph-name="encyrillic" unicode="&#x43d;" horiz-adv-x="1241" 
d="M841 454h-441v-454h-291v1101h291v-425h441v425h291v-1101h-291v454z" />
    <glyph glyph-name="ocyrillic" unicode="&#x43e;" horiz-adv-x="1226" 
d="M611 206q116 0 181 90t65 255q0 248 -94.5 296.5t-152.5 48.5q-115 0 -180.5 -91.5t-65.5 -255.5q0 -163 65.5 -253t181.5 -90zM68 549q0 264 147 417.5t396 153.5t396 -152.5t147 -417.5t-146 -417t-397 -152t-397 152t-146 416z" />
    <glyph glyph-name="pecyrillic" unicode="&#x43f;" horiz-adv-x="1231" 
d="M831 880h-431v-880h-291v1101h1013v-1101h-291v880z" />
    <glyph glyph-name="ercyrillic" unicode="&#x440;" horiz-adv-x="1267" 
d="M898 551q0 148 -68.5 237.5t-180.5 89.5t-180.5 -90.5t-68.5 -237.5t68 -237t180 -90q114 0 182 90t68 238zM768 1114q82 0 165.5 -39t142 -111.5t90 -177t31.5 -301.5t-121 -347.5t-327 -150.5q-120 0 -208.5 52t-133.5 146h-6v-531h-292v1447h288v-188h6
q96 201 365 201z" />
    <glyph glyph-name="escyrillic" unicode="&#x441;" horiz-adv-x="1161" 
d="M610 212q175 0 216 161h273q-22 -182 -154 -287t-338 -105q-247 0 -392 153t-145 416t145.5 416.5t389.5 153.5q206 0 338 -108t155 -285h-274q-18 73 -73 118t-127 45q-128 0 -194 -90t-66 -249q0 -246 94.5 -292.5t151.5 -46.5z" />
    <glyph glyph-name="tecyrillic" unicode="&#x442;" horiz-adv-x="1041" 
d="M996 880h-330v-880h-291v880h-330v221h951v-221z" />
    <glyph glyph-name="ucyrillic" unicode="&#x443;" horiz-adv-x="1156" 
d="M156 -175h48q163 0 195 126l10 42l-386 1108h320l238 -864h6l239 864h308l-381 -1123q-70 -209 -183.5 -294.5t-320.5 -85.5q-95 0 -111 4v226q12 -3 18 -3z" />
    <glyph glyph-name="efcyrillic" unicode="&#x444;" horiz-adv-x="1614" 
d="M231 958q161 153 434 159v339h285v-339q272 -6 433 -157t161 -407q0 -257 -161 -410t-433 -159v-330h-285v330q-273 6 -434 157.5t-161 407.5t161 409zM1168.5 800q-80.5 92 -221.5 96v-690q138 4 220 95.5t82 249t-80.5 249.5zM446 300.5q81 -90.5 221 -94.5v690
q-138 -4 -220 -96t-82 -251q0 -158 81 -248.5z" />
    <glyph glyph-name="hacyrillic" unicode="&#x445;" horiz-adv-x="1124" 
d="M552 385l-211 -385h-308l348 549l-345 552h329l202 -375h6l201 375h317l-346 -545l344 -556h-319l-212 385h-6z" />
    <glyph glyph-name="tsecyrillic" unicode="&#x446;" horiz-adv-x="1311" 
d="M1017 -285v285h-908v1101h291v-879h426v879h291v-879h166v-507h-266z" />
    <glyph glyph-name="checyrillic" unicode="&#x447;" horiz-adv-x="1185" 
d="M563 594q146 0 222 111v396h291v-1101h-291v480h-8q-105 -129 -292 -129t-292 109t-105 297v344h291v-303q0 -97 49.5 -150.5t134.5 -53.5z" />
    <glyph glyph-name="shacyrillic" unicode="&#x448;" horiz-adv-x="1723" 
d="M109 1101h291v-879h316v879h291v-879h316v879h291v-1101h-1505v1101z" />
    <glyph glyph-name="shchacyrillic" unicode="&#x449;" horiz-adv-x="1801" 
d="M1508 -285v285h-1399v1101h291v-879h316v879h291v-879h316v879h291v-879h160v-507h-266z" />
    <glyph glyph-name="hardsigncyrillic" unicode="&#x44a;" horiz-adv-x="1321" 
d="M621 564v-345h168q128 0 155.5 67t27.5 106q0 78 -49.5 125t-133.5 47h-168zM330 0v880h-285v221h576v-320h214q195 0 310.5 -106.5t115.5 -284.5t-115.5 -284t-310.5 -106h-505z" />
    <glyph glyph-name="yericyrillic" unicode="&#x44b;" horiz-adv-x="1549" 
d="M109 1101h291v-320h214q195 0 310.5 -106.5t115.5 -284.5t-115.5 -284t-310.5 -106h-505v1101zM400 564v-345h168q128 0 155.5 67t27.5 106q0 78 -49.5 125t-133.5 47h-168zM1149 1101h291v-1101h-291v1101z" />
    <glyph glyph-name="softsigncyrillic" unicode="&#x44c;" horiz-adv-x="1100" 
d="M109 1101h291v-320h214q195 0 310.5 -106.5t115.5 -284.5t-115.5 -284t-310.5 -106h-505v1101zM400 564v-345h168q128 0 155.5 67t27.5 106q0 78 -49.5 125t-133.5 47h-168z" />
    <glyph glyph-name="ereversedcyrillic" unicode="&#x44d;" horiz-adv-x="1161" 
d="M394 469v192h398q-24 165 -107 197t-128 32q-89 0 -145 -45t-75 -118h-273q20 174 154 283.5t360 109.5t369.5 -154t143.5 -417q0 -262 -143.5 -415t-370.5 -153t-360.5 105.5t-153.5 285.5h272q41 -160 221 -160q99 0 164.5 67.5t75.5 189.5h-402z" />
    <glyph glyph-name="iucyrillic" unicode="&#x44e;" horiz-adv-x="1701" 
d="M1092 207q115 0 177.5 89.5t62.5 254.5q0 248 -91.5 295.5t-177 47.5t-148.5 -91t-63 -254t62.5 -252.5t177.5 -89.5zM400 454v-454h-291v1101h291v-425h165q32 210 172 329.5t372 119.5q233 0 377.5 -152.5t144.5 -423.5q0 -270 -143.5 -421.5t-388.5 -151.5
q-232 0 -371.5 125.5t-165.5 352.5h-162z" />
    <glyph glyph-name="iacyrillic" unicode="&#x44f;" horiz-adv-x="1138" 
d="M744 358h-126l-246 -358h-324l290 402q-113 35 -177.5 116.5t-64.5 185.5q0 191 118.5 294t319.5 103h495v-1101h-285v358zM744 564v319h-182q-124 0 -150.5 -62.5t-26.5 -98.5q0 -70 49 -114t128 -44h182z" />
    <glyph glyph-name="iocyrillic" unicode="&#x451;" horiz-adv-x="1179" 
d="M806 1259q-29 0 -53.5 10.5t-42.5 28t-28.5 41.5t-10.5 51t10.5 51t28.5 41.5t42.5 28t53.5 10.5t53.5 -10.5t42.5 -28t28.5 -41.5t10.5 -51t-10.5 -51t-28.5 -41.5t-42.5 -28t-53.5 -10.5zM387 1259q-29 0 -53.5 10.5t-42.5 28t-28.5 41.5t-10.5 51t10.5 51t28.5 41.5
t42.5 28t53.5 10.5t53.5 -10.5t42.5 -28t28.5 -41.5t10.5 -51t-10.5 -51t-28.5 -41.5t-42.5 -28t-53.5 -10.5zM211.5 964.5q143.5 155.5 383.5 155.5t380.5 -148t140.5 -399v-90h-760v-18q0 -119 70 -192.5t170 -73.5q197 0 242 137h269q-24 -159 -160.5 -257t-351.5 -98
q-239 0 -383 151.5t-144 414t143.5 418zM433.5 835.5q-66.5 -66.5 -74.5 -171.5h475q-4 107 -68 172.5t-165 65.5t-167.5 -66.5z" />
    <glyph glyph-name="djecyrillic" unicode="&#x452;" horiz-adv-x="1291" 
d="M793 -376h-33q-33 0 -45 3v216q5 -1 8 -1h29q77 0 109 30t32 98v673q0 167 -86 199.5t-138 32.5q-105 0 -172 -69t-67 -181v-625h-292v1242h-90v150h90v165h287v-165h231v-150h-231v-323h12q44 95 136.5 146.5t198.5 51.5q197 0 305 -110t108 -303v-743q0 -337 -392 -337
z" />
    <glyph glyph-name="gjecyrillic" unicode="&#x453;" horiz-adv-x="954" 
d="M400 880v-880h-291v1101h764v-221h-473zM368 1263l221 310h273l-263 -310h-231z" />
    <glyph glyph-name="ecyrillic" unicode="&#x454;" horiz-adv-x="1161" 
d="M607 -19q-247 0 -392 153t-145 416t145.5 416.5t389.5 153.5q206 0 338 -108t155 -285h-274q-19 73 -74.5 118t-122.5 45q-114 0 -178.5 -61.5t-78.5 -167.5h397v-192h-401q8 -120 74.5 -188.5t166.5 -68.5q178 0 219 160h273q-22 -181 -154 -286t-338 -105z" />
    <glyph glyph-name="dzecyrillic" unicode="&#x455;" horiz-adv-x="1098" 
d="M90 777q0 154 125.5 248.5t332.5 94.5t331.5 -95.5t128.5 -253.5h-270q-5 66 -55.5 104t-132.5 38t-130 -32t-48 -86q0 -81 147 -115l207 -45q244 -56 276.5 -147.5t32.5 -161.5t-35.5 -135.5t-134 -137.5t-315.5 -72t-346 96t-141 256h285q11 -70 64.5 -107.5
t143.5 -37.5t139.5 32t49.5 80t-31.5 73t-106.5 43l-203 46q-314 70 -314 315z" />
    <glyph glyph-name="icyrillic" unicode="&#x456;" horiz-adv-x="520" 
d="M256 1221q-32 0 -61 11.5t-50.5 32t-34 48.5t-12.5 76.5t46 92.5t95 44t77.5 -11.5t50 -32t34 -48t12.5 -60.5t-12.5 -61t-34 -48.5t-50 -32t-60.5 -11.5zM109 1101h292v-1101h-292v1101z" />
    <glyph glyph-name="yicyrillic" unicode="&#x457;" horiz-adv-x="527" 
d="M469 1259q-29 0 -53.5 10.5t-42.5 28t-28.5 41.5t-10.5 51t10.5 51t28.5 41.5t42.5 28t53.5 10.5t53.5 -10.5t42.5 -28t28.5 -41.5t10.5 -51t-10.5 -51t-28.5 -41.5t-42.5 -28t-53.5 -10.5zM50 1259q-29 0 -53.5 10.5t-42.5 28t-28.5 41.5t-10.5 51t10.5 51t28.5 41.5
t42.5 28t53.5 10.5t53.5 -10.5t42.5 -28t28.5 -41.5t10.5 -51t-10.5 -51t-28.5 -41.5t-42.5 -28t-53.5 -10.5zM113 1101h292v-1101h-292v1101z" />
    <glyph glyph-name="jecyrillic" unicode="&#x458;" horiz-adv-x="532" 
d="M262 1221q-32 0 -61 11.5t-50.5 32t-34 48.5t-12.5 76.5t46 92.5t95 44t77.5 -11.5t50 -32t34 -48t12.5 -60.5t-12.5 -61t-34 -48.5t-50 -32t-60.5 -11.5zM16 -376h-33q-33 0 -45 3v216q5 -1 8 -1h29q76 0 108 29.5t32 98.5v1131h292v-1138q0 -339 -391 -339z" />
    <glyph glyph-name="ljecyrillic" unicode="&#x459;" horiz-adv-x="1806" 
d="M1106 564v-345h168q84 0 133 47.5t49 125.5q0 119 -70.5 145.5t-111.5 26.5h-168zM103 240q68 0 100 77.5t41 225.5l32 558h830v-320h214q195 0 310.5 -106.5t115.5 -284.5t-115.5 -284t-310.5 -106h-505v880h-289l-23 -355q-15 -262 -100.5 -400t-276.5 -138
q-62 0 -93 14v247q37 -8 70 -8z" />
    <glyph glyph-name="njecyrillic" unicode="&#x45a;" horiz-adv-x="1817" 
d="M826 494h-426v-494h-291v1101h291v-390h426v390h291v-385h219q193 0 307 -96.5t114 -261.5t-114 -261.5t-307 -96.5h-510v494zM1117 502v-285h187q77 0 122 39.5t45 102.5t-45.5 103t-121.5 40h-187z" />
    <glyph glyph-name="tshecyrillic" unicode="&#x45b;" horiz-adv-x="1291" 
d="M772 1117q197 0 305 -110t108 -303v-704h-292v643q0 167 -86 199.5t-138 32.5q-105 0 -172 -69t-67 -181v-625h-292v1242h-90v150h90v165h287v-165h231v-150h-231v-323h12q44 95 136.5 146.5t198.5 51.5z" />
    <glyph glyph-name="kjecyrillic" unicode="&#x45c;" horiz-adv-x="1153" 
d="M400 476v-476h-291v1101h291v-446h8l374 446h334l-445 -511l470 -590h-353l-380 476h-8zM714 1263h-231l221 310h273z" />
    <glyph glyph-name="ushortcyrillic" unicode="&#x45e;" horiz-adv-x="1156" 
d="M156 -175h48q163 0 195 126l10 42l-386 1108h320l238 -864h6l239 864h308l-381 -1123q-70 -209 -183.5 -294.5t-320.5 -85.5q-95 0 -111 4v226q12 -3 18 -3zM603 1403q58 0 105 51t49 133h179q0 -147 -97 -238t-255.5 -91t-255 91t-96.5 238h178q3 -128 69 -156t124 -28z
" />
    <glyph glyph-name="dzhecyrillic" unicode="&#x45f;" horiz-adv-x="1231" 
d="M749 0v-285h-266v285h-374v1101h291v-879h431v879h291v-1101h-373z" />
    <glyph glyph-name="Geupturncyrillic" unicode="&#x490;" horiz-adv-x="1134" 
d="M444 0h-303v1443h647v285h283v-535h-627v-1193z" />
    <glyph glyph-name="geupturncyrillic" unicode="&#x491;" horiz-adv-x="938" 
d="M400 880v-880h-291v1101h498v285h266v-506h-473z" />
    <glyph glyph-name="baht" unicode="&#xe3f;" horiz-adv-x="1326" 
d="M1221 400q0 -82 -34.5 -158.5t-134 -159t-329.5 -82.5h-40v-136h-140v136h-438v1443h438v147h140v-147h22q209 0 328 -96t119 -264q0 -115 -75.5 -203.5t-185.5 -104.5v-18q145 -12 237.5 -109t92.5 -248zM864 1031q0 79 -47 127t-134 58v-368q181 28 181 183zM401 843
h142v376h-142v-376zM543 225v419h-142v-419h142zM913 437q0 192 -230 206v-417q230 12 230 211z" />
    <glyph glyph-name="Aringbelow" unicode="&#x1e00;" horiz-adv-x="1413" 
d="M707 -463q21 0 39.5 8t32.5 21.5t22 31.5t8 39t-8 39t-22 32t-32.5 22t-39.5 8t-39.5 -8t-32.5 -22t-22 -32t-8 -39t8 -39t22 -31.5t32.5 -21.5t39.5 -8zM707 -580q-45 0 -85 17t-70.5 46.5t-48 69t-17.5 84.5t17.5 84.5t48 69t70.5 46.5t85 17t85.5 -17t70.5 -46.5
t47.5 -69t17.5 -84.5t-17.5 -84.5t-47.5 -69t-70.5 -46.5t-85.5 -17zM513 576h377l-185 591h-7zM955 350h-507l-110 -350h-310l501 1443h355l502 -1443h-321z" />
    <glyph glyph-name="aringbelow" unicode="&#x1e01;" horiz-adv-x="1147" 
d="M567 -463q21 0 39.5 8t32.5 21.5t22 31.5t8 39t-8 39t-22 32t-32.5 22t-39.5 8t-39.5 -8t-32.5 -22t-22 -32t-8 -39t8 -39t22 -31.5t32.5 -21.5t39.5 -8zM567 -580q-45 0 -85 17t-70.5 46.5t-48 69t-17.5 84.5t17.5 84.5t48 69t70.5 46.5t85 17t85.5 -17t70.5 -46.5
t47.5 -69t17.5 -84.5t-17.5 -84.5t-47.5 -69t-70.5 -46.5t-85.5 -17zM412 -13q-146 0 -252 92t-106 240q0 149 111 232t323 96l275 17v73q0 80 -50.5 122t-136.5 42t-137.5 -38t-62.5 -98h-267q6 158 137 256.5t340 98.5t336.5 -100.5t127.5 -264.5v-755h-282v170h-6
q-70 -131 -177 -157t-173 -26zM506 200q117 0 187 57.5t70 146.5v81l-231 -16q-187 -12 -187 -105t47.5 -128.5t113.5 -35.5z" />
    <glyph glyph-name="Bdotaccent" unicode="&#x1e02;" horiz-adv-x="1319" 
d="M691 225q131 0 199.5 54t68.5 157q0 208 -275 208h-262v-419h269zM422 843h226q121 0 187 50.5t66 140.5t-58 137t-164 47h-257v-375zM120 0v1443h637q204 0 322.5 -97.5t118.5 -262.5q0 -117 -77.5 -206t-193.5 -107v-8q149 -12 244.5 -109.5t95.5 -239.5
q0 -191 -134.5 -302t-364.5 -111h-648zM626 1561q-32 0 -59 11.5t-47 32t-31.5 47.5t-11.5 73.5t43 89.5t90 43t74.5 -11.5t47.5 -31.5t31.5 -47t11.5 -58t-11.5 -58t-31.5 -47.5t-47 -32t-59 -11.5z" />
    <glyph glyph-name="bdotaccent" unicode="&#x1e03;" horiz-adv-x="1252" 
d="M466 312q69 -89 182 -89q112 0 179.5 89t67.5 238.5t-67.5 238.5t-180 89t-181.5 -90t-69 -238.5t69 -237.5zM738 -13q-112 0 -202 52.5t-136 148.5h-6v-188h-287v1512h292v-599h6q46 96 134 148.5t199 52.5t194.5 -39t141.5 -111.5t89 -177t31 -235.5t-31 -235.5
t-89 -177.5t-141 -112t-195 -39zM252 1630q-32 0 -58.5 11.5t-46.5 32t-31.5 47.5t-11.5 73.5t43 89.5t90 43t74.5 -11.5t47.5 -31.5t31.5 -47t11.5 -58t-11.5 -58t-31.5 -47.5t-47.5 -32t-59.5 -11.5z" />
    <glyph glyph-name="Bdotbelow" unicode="&#x1e04;" horiz-adv-x="1319" 
d="M691 225q131 0 199.5 54t68.5 157q0 208 -275 208h-262v-419h269zM422 843h226q121 0 187 50.5t66 140.5t-58 137t-164 47h-257v-375zM120 0v1443h637q204 0 322.5 -97.5t118.5 -262.5q0 -117 -77.5 -206t-193.5 -107v-8q149 -12 244.5 -109.5t95.5 -239.5
q0 -191 -134.5 -302t-364.5 -111h-648zM626 -458q-32 0 -59 11.5t-47 32t-31.5 47.5t-11.5 73.5t43 89.5t90 43t74.5 -11.5t47.5 -31.5t31.5 -47t11.5 -58t-11.5 -58t-31.5 -47.5t-47 -32t-59 -11.5z" />
    <glyph glyph-name="bdotbelow" unicode="&#x1e05;" horiz-adv-x="1252" 
d="M466 312q69 -89 182 -89q112 0 179.5 89t67.5 238.5t-67.5 238.5t-180 89t-181.5 -90t-69 -238.5t69 -237.5zM738 -13q-112 0 -202 52.5t-136 148.5h-6v-188h-287v1512h292v-599h6q46 96 134 148.5t199 52.5t194.5 -39t141.5 -111.5t89 -177t31 -235.5t-31 -235.5
t-89 -177.5t-141 -112t-195 -39zM642 -458q-32 0 -59 11.5t-47 32t-31.5 47.5t-11.5 73.5t43 89.5t90 43t74.5 -11.5t47.5 -31.5t31.5 -47t11.5 -58t-11.5 -58t-31.5 -47.5t-47 -32t-59 -11.5z" />
    <glyph glyph-name="Blinebelow" unicode="&#x1e06;" horiz-adv-x="1319" 
d="M972 -373h-692v143h692v-143zM691 225q131 0 199.5 54t68.5 157q0 208 -275 208h-262v-419h269zM422 843h226q121 0 187 50.5t66 140.5t-58 137t-164 47h-257v-375zM120 0v1443h637q204 0 322.5 -97.5t118.5 -262.5q0 -117 -77.5 -206t-193.5 -107v-8
q149 -12 244.5 -109.5t95.5 -239.5q0 -191 -134.5 -302t-364.5 -111h-648z" />
    <glyph glyph-name="blinebelow" unicode="&#x1e07;" horiz-adv-x="1252" 
d="M466 312q69 -89 182 -89q112 0 179.5 89t67.5 238.5t-67.5 238.5t-180 89t-181.5 -90t-69 -238.5t69 -237.5zM738 -13q-112 0 -202 52.5t-136 148.5h-6v-188h-287v1512h292v-599h6q46 96 134 148.5t199 52.5t194.5 -39t141.5 -111.5t89 -177t31 -235.5t-31 -235.5
t-89 -177.5t-141 -112t-195 -39zM988 -373h-692v143h692v-143z" />
    <glyph glyph-name="Ccedillaacute" unicode="&#x1e08;" horiz-adv-x="1459" 
d="M703 -339q107 0 107 55q0 31 -28.5 43.5t-96.5 12.5h-56v101l48 106q-281 26 -441.5 221.5t-160.5 531.5t184 536t499 200q261 0 438.5 -150.5t195.5 -392.5h-294q-22 134 -115 213.5t-225 79.5q-172 0 -273.5 -134t-101.5 -362t101 -362.5t275 -134.5q205 0 266.5 106
t73.5 170h294q-24 -224 -176 -364.5t-389 -158.5l-40 -94q88 0 136.5 -41t48.5 -123t-63.5 -131t-163.5 -49t-154 15v120q40 -14 111 -14zM854 1554h-228l232 310h273z" />
    <glyph glyph-name="ccedillaacute" unicode="&#x1e09;" horiz-adv-x="1142" 
d="M541 -339q107 0 107 55q0 31 -28.5 43.5t-96.5 12.5h-56v101l51 112q-212 24 -336 173.5t-124 401.5t146 406t377 154q232 0 367.5 -118.5t145.5 -306.5h-272q-19 136 -97 165.5t-130 29.5q-108 0 -174.5 -90t-66.5 -249q0 -246 94.5 -292.5t169.5 -46.5t133 48.5
t72 139.5h272q-12 -176 -126.5 -287t-300.5 -129l-42 -100q88 0 136.5 -41t48.5 -123t-63.5 -131t-163.5 -49t-154 15v120q40 -14 111 -14zM694 1263h-231l221 310h273z" />
    <glyph glyph-name="Ddotaccent" unicode="&#x1e0a;" horiz-adv-x="1438" 
d="M422 250h218q204 0 310 120.5t106 355.5q0 344 -158 406t-258 62h-218v-944zM676 1443q326 0 507 -187t181 -530t-181.5 -534.5t-506.5 -191.5h-556v1443h556zM644 1561q-32 0 -59 11.5t-47 32t-31.5 47.5t-11.5 73.5t43 89.5t90 43t74.5 -11.5t47.5 -31.5t31.5 -47
t11.5 -58t-11.5 -58t-31.5 -47.5t-47 -32t-59 -11.5z" />
    <glyph glyph-name="ddotaccent" unicode="&#x1e0b;" horiz-adv-x="1249" 
d="M577.5 878q-85.5 0 -153 -89t-67.5 -239q0 -151 67.5 -239t181.5 -88t181.5 89t67.5 278.5t-96 238.5t-181.5 49zM149 179.5q-91 113.5 -91 371.5q0 259 123 411t329 152q120 0 207.5 -54.5t129.5 -146.5h6v599h292v-1512h-288v188h-5q-89 -201 -364 -201
q-82 0 -165 39.5t-174 153zM1006 1630q-32 0 -59 11.5t-47 32t-31.5 47.5t-11.5 73.5t43 89.5t90 43t74.5 -11.5t47.5 -31.5t31.5 -47t11.5 -58t-11.5 -58t-31.5 -47.5t-47 -32t-59 -11.5z" />
    <glyph glyph-name="Ddotbelow" unicode="&#x1e0c;" horiz-adv-x="1438" 
d="M422 250h218q204 0 310 120.5t106 355.5q0 344 -158 406t-258 62h-218v-944zM676 1443q326 0 507 -187t181 -530t-181.5 -534.5t-506.5 -191.5h-556v1443h556zM644 -458q-32 0 -59 11.5t-47 32t-31.5 47.5t-11.5 73.5t43 89.5t90 43t74.5 -11.5t47.5 -31.5t31.5 -47
t11.5 -58t-11.5 -58t-31.5 -47.5t-47 -32t-59 -11.5z" />
    <glyph glyph-name="ddotbelow" unicode="&#x1e0d;" horiz-adv-x="1249" 
d="M577.5 878q-85.5 0 -153 -89t-67.5 -239q0 -151 67.5 -239t181.5 -88t181.5 89t67.5 278.5t-96 238.5t-181.5 49zM149 179.5q-91 113.5 -91 371.5q0 259 123 411t329 152q120 0 207.5 -54.5t129.5 -146.5h6v599h292v-1512h-288v188h-5q-89 -201 -364 -201
q-82 0 -165 39.5t-174 153zM594 -458q-32 0 -58.5 11.5t-46.5 32t-31.5 47.5t-11.5 73.5t43 89.5t90 43t74.5 -11.5t47.5 -31.5t31.5 -47t11.5 -58t-11.5 -58t-31.5 -47.5t-47.5 -32t-59.5 -11.5z" />
    <glyph glyph-name="Dlinebelow" unicode="&#x1e0e;" horiz-adv-x="1438" 
d="M422 250h218q204 0 310 120.5t106 355.5q0 344 -158 406t-258 62h-218v-944zM676 1443q326 0 507 -187t181 -530t-181.5 -534.5t-506.5 -191.5h-556v1443h556zM990 -373h-692v143h692v-143z" />
    <glyph glyph-name="dlinebelow" unicode="&#x1e0f;" horiz-adv-x="1249" 
d="M577.5 878q-85.5 0 -153 -89t-67.5 -239q0 -151 67.5 -239t181.5 -88t181.5 89t67.5 278.5t-96 238.5t-181.5 49zM149 179.5q-91 113.5 -91 371.5q0 259 123 411t329 152q120 0 207.5 -54.5t129.5 -146.5h6v599h292v-1512h-288v188h-5q-89 -201 -364 -201
q-82 0 -165 39.5t-174 153zM941 -373h-692v143h692v-143z" />
    <glyph glyph-name="Dcommaaccent" unicode="&#x1e10;" horiz-adv-x="1438" 
d="M422 250h218q204 0 310 120.5t106 355.5q0 344 -158 406t-258 62h-218v-944zM676 1443q326 0 507 -187t181 -530t-181.5 -534.5t-506.5 -191.5h-556v1443h556zM405 -500l121 345h256l-160 -345h-217z" />
    <glyph glyph-name="dcommaaccent" unicode="&#x1e11;" horiz-adv-x="1249" 
d="M577.5 878q-85.5 0 -153 -89t-67.5 -239q0 -151 67.5 -239t181.5 -88t181.5 89t67.5 278.5t-96 238.5t-181.5 49zM149 179.5q-91 113.5 -91 371.5q0 259 123 411t329 152q120 0 207.5 -54.5t129.5 -146.5h6v599h292v-1512h-288v188h-5q-89 -201 -364 -201
q-82 0 -165 39.5t-174 153zM356 -500l121 345h256l-160 -345h-217z" />
    <glyph glyph-name="Dcircumflexbelow" unicode="&#x1e12;" horiz-adv-x="1438" 
d="M758 -160l274 -318h-222l-163 197h-6l-163 -197h-222l274 318h228zM422 250h218q204 0 310 120.5t106 355.5q0 344 -158 406t-258 62h-218v-944zM676 1443q326 0 507 -187t181 -530t-181.5 -534.5t-506.5 -191.5h-556v1443h556z" />
    <glyph glyph-name="dcircumflexbelow" unicode="&#x1e13;" horiz-adv-x="1249" 
d="M709 -160l274 -318h-222l-163 197h-6l-163 -197h-222l274 318h228zM577.5 878q-85.5 0 -153 -89t-67.5 -239q0 -151 67.5 -239t181.5 -88t181.5 89t67.5 278.5t-96 238.5t-181.5 49zM149 179.5q-91 113.5 -91 371.5q0 259 123 411t329 152q120 0 207.5 -54.5
t129.5 -146.5h6v599h292v-1512h-288v188h-5q-89 -201 -364 -201q-82 0 -165 39.5t-174 153z" />
    <glyph glyph-name="Emacrongrave" unicode="&#x1e14;" horiz-adv-x="1174" 
d="M1076 0h-956v1443h956v-249h-654v-348h617v-232h-617v-364h654v-250zM499 1887l-237 243h254l194 -243h-211zM252 1767h692v-143h-692v143z" />
    <glyph glyph-name="emacrongrave" unicode="&#x1e15;" horiz-adv-x="1164" 
d="M921 1298h-669v143h669v-143zM486 1619l-216 272h255l167 -272h-206zM201.5 964.5q143.5 155.5 383.5 155.5t380.5 -148t140.5 -399v-90h-760v-18q0 -119 70 -192.5t170 -73.5q197 0 242 137h269q-24 -159 -160.5 -257t-351.5 -98q-239 0 -383 151.5t-144 414t143.5 418z
M423.5 835.5q-66.5 -66.5 -74.5 -171.5h475q-4 107 -68 172.5t-165 65.5t-167.5 -66.5z" />
    <glyph glyph-name="Emacronacute" unicode="&#x1e16;" horiz-adv-x="1174" 
d="M1076 0h-956v1443h956v-249h-654v-348h617v-232h-617v-364h654v-250zM680 2130h254l-237 -243h-211zM252 1624v143h692v-143h-692z" />
    <glyph glyph-name="emacronacute" unicode="&#x1e17;" horiz-adv-x="1164" 
d="M921 1298h-669v143h669v-143zM659 1891h255l-218 -269h-219zM201.5 964.5q143.5 155.5 383.5 155.5t380.5 -148t140.5 -399v-90h-760v-18q0 -119 70 -192.5t170 -73.5q197 0 242 137h269q-24 -159 -160.5 -257t-351.5 -98q-239 0 -383 151.5t-144 414t143.5 418z
M423.5 835.5q-66.5 -66.5 -74.5 -171.5h475q-4 107 -68 172.5t-165 65.5t-167.5 -66.5z" />
    <glyph glyph-name="Ecircumflexbelow" unicode="&#x1e18;" horiz-adv-x="1174" 
d="M712 -160l274 -318h-222l-163 197h-6l-163 -197h-222l274 318h228zM1076 0h-956v1443h956v-249h-654v-348h617v-232h-617v-364h654v-250z" />
    <glyph glyph-name="ecircumflexbelow" unicode="&#x1e19;" horiz-adv-x="1164" 
d="M704 -160l274 -318h-222l-163 197h-6l-163 -197h-222l274 318h228zM201.5 964.5q143.5 155.5 383.5 155.5t380.5 -148t140.5 -399v-90h-760v-18q0 -119 70 -192.5t170 -73.5q197 0 242 137h269q-24 -159 -160.5 -257t-351.5 -98q-239 0 -383 151.5t-144 414t143.5 418z
M423.5 835.5q-66.5 -66.5 -74.5 -171.5h475q-4 107 -68 172.5t-165 65.5t-167.5 -66.5z" />
    <glyph glyph-name="Etildebelow" unicode="&#x1e1a;" horiz-adv-x="1174" 
d="M1076 0h-956v1443h956v-249h-654v-348h617v-232h-617v-364h654v-250zM729 -282q63 0 65 122h158q0 -125 -60.5 -200t-148.5 -75t-157.5 68t-105.5 68q-67 0 -69 -119h-158q0 124 59.5 197.5t147.5 73.5t141 -46.5t77 -67.5t51 -21z" />
    <glyph glyph-name="etildebelow" unicode="&#x1e1b;" horiz-adv-x="1164" 
d="M201.5 964.5q143.5 155.5 383.5 155.5t380.5 -148t140.5 -399v-90h-760v-18q0 -119 70 -192.5t170 -73.5q197 0 242 137h269q-24 -159 -160.5 -257t-351.5 -98q-239 0 -383 151.5t-144 414t143.5 418zM423.5 835.5q-66.5 -66.5 -74.5 -171.5h475q-4 107 -68 172.5
t-165 65.5t-167.5 -66.5zM721 -282q63 0 65 122h158q0 -125 -60.5 -200t-148.5 -75t-157.5 68t-105.5 68q-67 0 -69 -119h-158q0 124 59.5 197.5t147.5 73.5t141 -46.5t77 -67.5t51 -21z" />
    <glyph glyph-name="Ecedillabreve" unicode="&#x1e1c;" horiz-adv-x="1174" 
d="M556 -339q107 0 107 55q0 31 -28.5 43.5t-96.5 12.5h-56v101l58 127h-420v1443h956v-249h-654v-348h617v-232h-617v-364h654v-250h-386l-49 -116q88 0 136.5 -41t48.5 -123t-63.5 -131t-163.5 -49t-154 15v120q40 -14 111 -14zM598 1543q-160 0 -255.5 89.5t-97.5 227.5
h178q3 -118 69.5 -145t124.5 -27t106 48t50 124h178q-2 -138 -97.5 -227.5t-255.5 -89.5z" />
    <glyph glyph-name="ecedillabreve" unicode="&#x1e1d;" horiz-adv-x="1164" 
d="M548 -339q107 0 107 55q0 31 -28.5 43.5t-96.5 12.5h-56v101l51 112q-220 22 -343.5 170.5t-123.5 400.5t143.5 408t383.5 156t380.5 -148t140.5 -399v-90h-760v-18q0 -119 70 -192.5t170 -73.5q197 0 242 137h269q-22 -144 -136 -238.5t-285 -112.5l-43 -101
q88 0 136.5 -41t48.5 -123t-63.5 -131t-163.5 -49t-154 15v120q40 -14 111 -14zM423.5 835.5q-66.5 -66.5 -74.5 -171.5h475q-4 107 -68 172.5t-165 65.5t-167.5 -66.5zM325.5 1339q-96.5 91 -98.5 231h179q3 -119 71 -147t126.5 -28t108.5 48.5t52 126.5h180
q-2 -140 -99 -231t-260 -91t-259.5 91z" />
    <glyph glyph-name="Fdotaccent" unicode="&#x1e1e;" horiz-adv-x="1123" 
d="M120 0v1443h945v-249h-643v-387h587v-239h-587v-568h-302zM580 1561q-32 0 -59 11.5t-47 32t-31.5 47.5t-11.5 73.5t43 89.5t90 43t74.5 -11.5t47.5 -31.5t31.5 -47t11.5 -58t-11.5 -58t-31.5 -47.5t-47 -32t-59 -11.5z" />
    <glyph glyph-name="fdotaccent" unicode="&#x1e1f;" horiz-adv-x="734" 
d="M576 1292q-111 0 -113 -110v-81h206v-221h-200v-880h-292v880h-149v221h149v98q0 159 82.5 229t273.5 70q75 0 135 -10v-203q-38 7 -92 7zM436 1612q-32 0 -58.5 11.5t-46.5 32t-31.5 47.5t-11.5 73.5t43 89.5t90 43t74.5 -11.5t47.5 -31.5t31.5 -47t11.5 -58t-11.5 -58
t-31.5 -47.5t-47.5 -32t-59.5 -11.5z" />
    <glyph glyph-name="Gmacron" unicode="&#x1e20;" horiz-adv-x="1489" 
d="M1097 1624h-692v143h692v-143zM1094 977q-72 241 -344 241q-75 0 -146 -33t-146 -129.5t-75 -327.5t105.5 -366.5t286.5 -135.5q149 0 242.5 83t97.5 217l1 23h-314v220h608v-163q0 -295 -170 -463t-482 -168q-311 0 -497 199.5t-186 547.5t184.5 547t503.5 199
q253 0 427.5 -136.5t206.5 -354.5h-303z" />
    <glyph glyph-name="gmacron" unicode="&#x1e21;" horiz-adv-x="1244" 
d="M847 200q-87 -193 -361 -193q-80 0 -163 38t-174 147.5t-91 365.5t122 406t316 150t264 -77.5t92 -123.5h5v188h288v-1076q0 -197 -148 -312.5t-388 -115.5q-226 0 -364.5 88.5t-150.5 236.5h288q21 -83 102 -101t130 -18q105 0 172 53.5t67 146.5v197h-6zM604 233
q57 0 103 22t79 63.5t50.5 100.5t17.5 133t-17.5 134.5t-50.5 103t-79 65.5t-103 23t-102.5 -23t-77.5 -65t-49.5 -102t-17.5 -135t17 -134.5t49.5 -100.5t78 -63t102.5 -22zM944 1298h-669v143h669v-143z" />
    <glyph glyph-name="Hdotaccent" unicode="&#x1e22;" horiz-adv-x="1494" 
d="M746 1561q-32 0 -58.5 11.5t-46.5 32t-31.5 47.5t-11.5 73.5t43 89.5t90 43t74.5 -11.5t47.5 -31.5t31.5 -47t11.5 -58t-11.5 -58t-31.5 -47.5t-47.5 -32t-59.5 -11.5zM1072 0v608h-650v-608h-302v1443h302v-586h650v586h302v-1443h-302z" />
    <glyph glyph-name="hdotaccent" unicode="&#x1e23;" horiz-adv-x="1247" 
d="M252 1630q-32 0 -59 11.5t-47 32t-31.5 47.5t-11.5 73.5t43 89.5t90 43t74.5 -11.5t47.5 -31.5t31.5 -47t11.5 -58t-11.5 -58t-31.5 -47.5t-47 -32t-59 -11.5zM756 1117q183 0 290 -110.5t107 -302.5v-704h-292v643q0 109 -59 170t-165 61t-172 -69.5t-66 -179.5v-625
h-292v1512h287v-608h6q95 213 356 213z" />
    <glyph glyph-name="Hdotbelow" unicode="&#x1e24;" horiz-adv-x="1494" 
d="M746 -458q-32 0 -58.5 11.5t-46.5 32t-31.5 47.5t-11.5 73.5t43 89.5t90 43t74.5 -11.5t47.5 -31.5t31.5 -47t11.5 -58t-11.5 -58t-31.5 -47.5t-47.5 -32t-59.5 -11.5zM1072 0v608h-650v-608h-302v1443h302v-586h650v586h302v-1443h-302z" />
    <glyph glyph-name="hdotbelow" unicode="&#x1e25;" horiz-adv-x="1247" 
d="M626 -458q-32 0 -58.5 11.5t-46.5 32t-31.5 47.5t-11.5 73.5t43 89.5t90 43t74.5 -11.5t47.5 -31.5t31.5 -47t11.5 -58t-11.5 -58t-31.5 -47.5t-47.5 -32t-59.5 -11.5zM756 1117q183 0 290 -110.5t107 -302.5v-704h-292v643q0 109 -59 170t-165 61t-172 -69.5t-66 -179.5
v-625h-292v1512h287v-608h6q95 213 356 213z" />
    </font>
</defs>
</svg>
